<?xml version="1.0" encoding="utf-8" standalone="no"?>
<!DOCTYPE svg PUBLIC "-//W3C//DTD SVG 1.1//EN"
  "http://www.w3.org/Graphics/SVG/1.1/DTD/svg11.dtd">
<svg xmlns:xlink="http://www.w3.org/1999/xlink" width="864pt" height="576pt" viewBox="0 0 864 576" xmlns="http://www.w3.org/2000/svg" version="1.1">
 <metadata>
  <rdf:RDF xmlns:dc="http://purl.org/dc/elements/1.1/" xmlns:cc="http://creativecommons.org/ns#" xmlns:rdf="http://www.w3.org/1999/02/22-rdf-syntax-ns#">
   <cc:Work>
    <dc:type rdf:resource="http://purl.org/dc/dcmitype/StillImage"/>
    <dc:date>2025-10-24T17:56:18.206402</dc:date>
    <dc:format>image/svg+xml</dc:format>
    <dc:creator>
     <cc:Agent>
      <dc:title>Matplotlib v3.9.4, https://matplotlib.org/</dc:title>
     </cc:Agent>
    </dc:creator>
   </cc:Work>
  </rdf:RDF>
 </metadata>
 <defs>
  <style type="text/css">*{stroke-linejoin: round; stroke-linecap: butt}</style>
 </defs>
 <g id="figure_1">
  <g id="patch_1">
   <path d="M 0 576 
L 864 576 
L 864 0 
L 0 0 
z
" style="fill: #ffffff"/>
  </g>
  <g id="axes_1">
   <g id="patch_2">
    <path d="M 108 512.64 
L 777.6 512.64 
L 777.6 69.12 
L 108 69.12 
z
" style="fill: #ffffff"/>
   </g>
   <g id="PathCollection_1">
    <path d="M 385.355872 335.41049 
C 387.217921 335.41049 389.003956 334.67069 390.320624 333.354022 
C 391.637291 332.037355 392.377091 330.25132 392.377091 328.389271 
C 392.377091 326.527221 391.637291 324.741186 390.320624 323.424519 
C 389.003956 322.107851 387.217921 321.368051 385.355872 321.368051 
C 383.493823 321.368051 381.707788 322.107851 380.39112 323.424519 
C 379.074452 324.741186 378.334652 326.527221 378.334652 328.389271 
C 378.334652 330.25132 379.074452 332.037355 380.39112 333.354022 
C 381.707788 334.67069 383.493823 335.41049 385.355872 335.41049 
z
" clip-path="url(#p236a7f897f)" style="fill: #ff8d00; fill-opacity: 0.8; stroke: #ff8d00; stroke-opacity: 0.8"/>
    <path d="M 514.041811 152.619336 
C 515.903861 152.619336 517.689896 151.879536 519.006563 150.562869 
C 520.323231 149.246201 521.063031 147.460166 521.063031 145.598117 
C 521.063031 143.736067 520.323231 141.950032 519.006563 140.633365 
C 517.689896 139.316697 515.903861 138.576897 514.041811 138.576897 
C 512.179762 138.576897 510.393727 139.316697 509.077059 140.633365 
C 507.760392 141.950032 507.020592 143.736067 507.020592 145.598117 
C 507.020592 147.460166 507.760392 149.246201 509.077059 150.562869 
C 510.393727 151.879536 512.179762 152.619336 514.041811 152.619336 
z
" clip-path="url(#p236a7f897f)" style="fill: #d3d3d3; fill-opacity: 0.8; stroke: #d3d3d3; stroke-opacity: 0.8"/>
    <path d="M 248.569125 173.248316 
C 250.431174 173.248316 252.217209 172.508516 253.533876 171.191849 
C 254.850544 169.875181 255.590344 168.089146 255.590344 166.227097 
C 255.590344 164.365048 254.850544 162.579012 253.533876 161.262345 
C 252.217209 159.945677 250.431174 159.205877 248.569125 159.205877 
C 246.707075 159.205877 244.92104 159.945677 243.604373 161.262345 
C 242.287705 162.579012 241.547905 164.365048 241.547905 166.227097 
C 241.547905 168.089146 242.287705 169.875181 243.604373 171.191849 
C 244.92104 172.508516 246.707075 173.248316 248.569125 173.248316 
z
" clip-path="url(#p236a7f897f)" style="fill: #e1bc8e; fill-opacity: 0.8; stroke: #e1bc8e; stroke-opacity: 0.8"/>
    <path d="M 500.201794 131.145049 
C 502.638492 131.145049 504.975717 130.176939 506.698723 128.453933 
C 508.421729 126.730928 509.389839 124.393702 509.389839 121.957004 
C 509.389839 119.520306 508.421729 117.183081 506.698723 115.460075 
C 504.975717 113.737069 502.638492 112.768959 500.201794 112.768959 
C 497.765096 112.768959 495.427871 113.737069 493.704865 115.460075 
C 491.981859 117.183081 491.013749 119.520306 491.013749 121.957004 
C 491.013749 124.393702 491.981859 126.730928 493.704865 128.453933 
C 495.427871 130.176939 497.765096 131.145049 500.201794 131.145049 
z
" clip-path="url(#p236a7f897f)" style="fill: #d3d3d3; fill-opacity: 0.8; stroke: #d3d3d3; stroke-opacity: 0.8"/>
    <path d="M 287.029036 169.184511 
C 289.465734 169.184511 291.802959 168.2164 293.525965 166.493394 
C 295.24897 164.770389 296.217081 162.433163 296.217081 159.996465 
C 296.217081 157.559767 295.24897 155.222542 293.525965 153.499536 
C 291.802959 151.776531 289.465734 150.80842 287.029036 150.80842 
C 284.592337 150.80842 282.255112 151.776531 280.532107 153.499536 
C 278.809101 155.222542 277.84099 157.559767 277.84099 159.996465 
C 277.84099 162.433163 278.809101 164.770389 280.532107 166.493394 
C 282.255112 168.2164 284.592337 169.184511 287.029036 169.184511 
z
" clip-path="url(#p236a7f897f)" style="fill: #e1bc8e; fill-opacity: 0.8; stroke: #e1bc8e; stroke-opacity: 0.8"/>
    <path d="M 488.512993 425.519057 
C 490.949691 425.519057 493.286916 424.550947 495.009922 422.827941 
C 496.732928 421.104935 497.701038 418.76771 497.701038 416.331012 
C 497.701038 413.894314 496.732928 411.557088 495.009922 409.834083 
C 493.286916 408.111077 490.949691 407.142967 488.512993 407.142967 
C 486.076295 407.142967 483.73907 408.111077 482.016064 409.834083 
C 480.293058 411.557088 479.324948 413.894314 479.324948 416.331012 
C 479.324948 418.76771 480.293058 421.104935 482.016064 422.827941 
C 483.73907 424.550947 486.076295 425.519057 488.512993 425.519057 
z
" clip-path="url(#p236a7f897f)" style="fill: #ff8d00; fill-opacity: 0.8; stroke: #ff8d00; stroke-opacity: 0.8"/>
    <path d="M 527.434515 111.883652 
C 528.973662 111.883652 530.449976 111.272142 531.538317 110.183801 
C 532.626658 109.095461 533.238167 107.619146 533.238167 106.08 
C 533.238167 104.540854 532.626658 103.064539 531.538317 101.976199 
C 530.449976 100.887858 528.973662 100.276348 527.434515 100.276348 
C 525.895369 100.276348 524.419055 100.887858 523.330714 101.976199 
C 522.242373 103.064539 521.630864 104.540854 521.630864 106.08 
C 521.630864 107.619146 522.242373 109.095461 523.330714 110.183801 
C 524.419055 111.272142 525.895369 111.883652 527.434515 111.883652 
z
" clip-path="url(#p236a7f897f)" style="fill: #d3d3d3; fill-opacity: 0.8; stroke: #d3d3d3; stroke-opacity: 0.8"/>
    <path d="M 307.595035 152.576403 
C 309.134181 152.576403 310.610496 151.964893 311.698836 150.876552 
C 312.787177 149.788212 313.398687 148.311897 313.398687 146.772751 
C 313.398687 145.233605 312.787177 143.757291 311.698836 142.66895 
C 310.610496 141.580609 309.134181 140.969099 307.595035 140.969099 
C 306.055889 140.969099 304.579575 141.580609 303.491234 142.66895 
C 302.402893 143.757291 301.791384 145.233605 301.791384 146.772751 
C 301.791384 148.311897 302.402893 149.788212 303.491234 150.876552 
C 304.579575 151.964893 306.055889 152.576403 307.595035 152.576403 
z
" clip-path="url(#p236a7f897f)" style="fill: #e1bc8e; fill-opacity: 0.8; stroke: #e1bc8e; stroke-opacity: 0.8"/>
    <path d="M 494.661978 168.3677 
C 495.932534 168.3677 497.151222 167.862902 498.04964 166.964484 
C 498.948059 166.066066 499.452856 164.847378 499.452856 163.576822 
C 499.452856 162.306267 498.948059 161.087579 498.04964 160.18916 
C 497.151222 159.290742 495.932534 158.785945 494.661978 158.785945 
C 493.391423 158.785945 492.172735 159.290742 491.274317 160.18916 
C 490.375898 161.087579 489.871101 162.306267 489.871101 163.576822 
C 489.871101 164.847378 490.375898 166.066066 491.274317 166.964484 
C 492.172735 167.862902 493.391423 168.3677 494.661978 168.3677 
z
" clip-path="url(#p236a7f897f)" style="fill: #d3d3d3; fill-opacity: 0.8; stroke: #d3d3d3; stroke-opacity: 0.8"/>
    <path d="M 448.307667 205.581903 
C 449.578223 205.581903 450.796911 205.077106 451.695329 204.178687 
C 452.593748 203.280269 453.098545 202.061581 453.098545 200.791026 
C 453.098545 199.52047 452.593748 198.301782 451.695329 197.403364 
C 450.796911 196.504945 449.578223 196.000148 448.307667 196.000148 
C 447.037112 196.000148 445.818424 196.504945 444.920006 197.403364 
C 444.021587 198.301782 443.51679 199.52047 443.51679 200.791026 
C 443.51679 202.061581 444.021587 203.280269 444.920006 204.178687 
C 445.818424 205.077106 447.037112 205.581903 448.307667 205.581903 
z
" clip-path="url(#p236a7f897f)" style="fill: #e1bc8e; fill-opacity: 0.8; stroke: #e1bc8e; stroke-opacity: 0.8"/>
    <path d="M 292.958353 329.607317 
C 296.920146 329.607317 300.720207 328.03328 303.521617 325.23187 
C 306.323028 322.430459 307.897065 318.630398 307.897065 314.668606 
C 307.897065 310.706813 306.323028 306.906752 303.521617 304.105341 
C 300.720207 301.303931 296.920146 299.729894 292.958353 299.729894 
C 288.996561 299.729894 285.196499 301.303931 282.395089 304.105341 
C 279.593679 306.906752 278.019642 310.706813 278.019642 314.668606 
C 278.019642 318.630398 279.593679 322.430459 282.395089 325.23187 
C 285.196499 328.03328 288.996561 329.607317 292.958353 329.607317 
z
" clip-path="url(#p236a7f897f)" style="fill: #ff8d00; fill-opacity: 0.8; stroke: #ff8d00; stroke-opacity: 0.8"/>
    <path d="M 670.443243 290.788981 
C 672.017385 290.788981 673.527265 290.163568 674.640351 289.050482 
C 675.753437 287.937396 676.37885 286.427516 676.37885 284.853374 
C 676.37885 283.279233 675.753437 281.769352 674.640351 280.656266 
C 673.527265 279.54318 672.017385 278.917768 670.443243 278.917768 
C 668.869102 278.917768 667.359221 279.54318 666.246135 280.656266 
C 665.133049 281.769352 664.507636 283.279233 664.507636 284.853374 
C 664.507636 286.427516 665.133049 287.937396 666.246135 289.050482 
C 667.359221 290.163568 668.869102 290.788981 670.443243 290.788981 
z
" clip-path="url(#p236a7f897f)" style="fill: #d3d3d3; fill-opacity: 0.8; stroke: #d3d3d3; stroke-opacity: 0.8"/>
    <path d="M 401.288533 366.605988 
C 403.150597 366.605988 404.936646 365.866182 406.253324 364.549504 
C 407.570002 363.232826 408.309808 361.446777 408.309808 359.584714 
C 408.309808 357.72265 407.570002 355.936601 406.253324 354.619923 
C 404.936646 353.303245 403.150597 352.563439 401.288533 352.563439 
C 399.42647 352.563439 397.64042 353.303245 396.323743 354.619923 
C 395.007065 355.936601 394.267259 357.72265 394.267259 359.584714 
C 394.267259 361.446777 395.007065 363.232826 396.323743 364.549504 
C 397.64042 365.866182 399.42647 366.605988 401.288533 366.605988 
z
" clip-path="url(#p236a7f897f)" style="fill: #fe8f05; fill-opacity: 0.8; stroke: #fe8f05; stroke-opacity: 0.8"/>
    <path d="M 357.700462 342.655741 
C 360.137173 342.655741 362.47441 341.687625 364.197425 339.96461 
C 365.920439 338.241596 366.888555 335.904358 366.888555 333.467647 
C 366.888555 331.030937 365.920439 328.693699 364.197425 326.970684 
C 362.47441 325.24767 360.137173 324.279554 357.700462 324.279554 
C 355.263751 324.279554 352.926514 325.24767 351.203499 326.970684 
C 349.480484 328.693699 348.512369 331.030937 348.512369 333.467647 
C 348.512369 335.904358 349.480484 338.241596 351.203499 339.96461 
C 352.926514 341.687625 355.263751 342.655741 357.700462 342.655741 
z
" clip-path="url(#p236a7f897f)" style="fill: #fe8f05; fill-opacity: 0.8; stroke: #fe8f05; stroke-opacity: 0.8"/>
    <path d="M 430.109311 398.044402 
C 431.648473 398.044402 433.124803 397.432886 434.213155 396.344534 
C 435.301507 395.256182 435.913023 393.779852 435.913023 392.24069 
C 435.913023 390.701528 435.301507 389.225198 434.213155 388.136846 
C 433.124803 387.048494 431.648473 386.436978 430.109311 386.436978 
C 428.570149 386.436978 427.093819 387.048494 426.005467 388.136846 
C 424.917115 389.225198 424.305599 390.701528 424.305599 392.24069 
C 424.305599 393.779852 424.917115 395.256182 426.005467 396.344534 
C 427.093819 397.432886 428.570149 398.044402 430.109311 398.044402 
z
" clip-path="url(#p236a7f897f)" style="fill: #fe8f05; fill-opacity: 0.8; stroke: #fe8f05; stroke-opacity: 0.8"/>
    <path d="M 382.81419 308.637639 
C 384.084769 308.637639 385.303479 308.132833 386.201914 307.234398 
C 387.100349 306.335963 387.605156 305.117252 387.605156 303.846673 
C 387.605156 302.576094 387.100349 301.357384 386.201914 300.458949 
C 385.303479 299.560514 384.084769 299.055708 382.81419 299.055708 
C 381.543611 299.055708 380.324901 299.560514 379.426466 300.458949 
C 378.528031 301.357384 378.023225 302.576094 378.023225 303.846673 
C 378.023225 305.117252 378.528031 306.335963 379.426466 307.234398 
C 380.324901 308.132833 381.543611 308.637639 382.81419 308.637639 
z
" clip-path="url(#p236a7f897f)" style="fill: #fe8f05; fill-opacity: 0.8; stroke: #fe8f05; stroke-opacity: 0.8"/>
    <path d="M 593.24233 234.467844 
C 594.705671 234.467844 596.109274 233.886453 597.144012 232.851715 
C 598.17875 231.816976 598.760142 230.413373 598.760142 228.950033 
C 598.760142 227.486692 598.17875 226.083089 597.144012 225.048351 
C 596.109274 224.013613 594.705671 223.432221 593.24233 223.432221 
C 591.778989 223.432221 590.375386 224.013613 589.340648 225.048351 
C 588.30591 226.083089 587.724519 227.486692 587.724519 228.950033 
C 587.724519 230.413373 588.30591 231.816976 589.340648 232.851715 
C 590.375386 233.886453 591.778989 234.467844 593.24233 234.467844 
z
" clip-path="url(#p236a7f897f)" style="fill: #d3d3d3; fill-opacity: 0.8; stroke: #d3d3d3; stroke-opacity: 0.8"/>
    <path d="M 646.106155 313.921033 
C 647.569717 313.921033 648.973531 313.339554 650.008426 312.30466 
C 651.04332 311.269766 651.624799 309.865951 651.624799 308.40239 
C 651.624799 306.938828 651.04332 305.535014 650.008426 304.500119 
C 648.973531 303.465225 647.569717 302.883746 646.106155 302.883746 
C 644.642594 302.883746 643.238779 303.465225 642.203885 304.500119 
C 641.168991 305.535014 640.587511 306.938828 640.587511 308.40239 
C 640.587511 309.865951 641.168991 311.269766 642.203885 312.30466 
C 643.238779 313.339554 644.642594 313.921033 646.106155 313.921033 
z
" clip-path="url(#p236a7f897f)" style="fill: #f59c2e; fill-opacity: 0.8; stroke: #f59c2e; stroke-opacity: 0.8"/>
    <path d="M 645.649594 205.252736 
C 646.587121 205.252736 647.486376 204.880252 648.149309 204.21732 
C 648.812241 203.554388 649.184724 202.655133 649.184724 201.717605 
C 649.184724 200.780078 648.812241 199.880823 648.149309 199.217891 
C 647.486376 198.554959 646.587121 198.182475 645.649594 198.182475 
C 644.712066 198.182475 643.812811 198.554959 643.149879 199.217891 
C 642.486947 199.880823 642.114464 200.780078 642.114464 201.717605 
C 642.114464 202.655133 642.486947 203.554388 643.149879 204.21732 
C 643.812811 204.880252 644.712066 205.252736 645.649594 205.252736 
z
" clip-path="url(#p236a7f897f)" style="fill: #d3d3d3; fill-opacity: 0.8; stroke: #d3d3d3; stroke-opacity: 0.8"/>
    <path d="M 660.228251 269.18003 
C 661.429466 269.18003 662.581644 268.702782 663.431031 267.853395 
C 664.280418 267.004008 664.757666 265.85183 664.757666 264.650615 
C 664.757666 263.449401 664.280418 262.297223 663.431031 261.447835 
C 662.581644 260.598448 661.429466 260.121201 660.228251 260.121201 
C 659.027036 260.121201 657.874859 260.598448 657.025471 261.447835 
C 656.176084 262.297223 655.698836 263.449401 655.698836 264.650615 
C 655.698836 265.85183 656.176084 267.004008 657.025471 267.853395 
C 657.874859 268.702782 659.027036 269.18003 660.228251 269.18003 
z
" clip-path="url(#p236a7f897f)" style="fill: #d3d3d3; fill-opacity: 0.8; stroke: #d3d3d3; stroke-opacity: 0.8"/>
    <path d="M 721.8 306.047193 
C 723.001542 306.047193 724.154034 305.569815 725.003653 304.720196 
C 725.853272 303.870577 726.33065 302.718085 726.33065 301.516543 
C 726.33065 300.315001 725.853272 299.162509 725.003653 298.31289 
C 724.154034 297.463271 723.001542 296.985893 721.8 296.985893 
C 720.598458 296.985893 719.445966 297.463271 718.596347 298.31289 
C 717.746728 299.162509 717.26935 300.315001 717.26935 301.516543 
C 717.26935 302.718085 717.746728 303.870577 718.596347 304.720196 
C 719.445966 305.569815 720.598458 306.047193 721.8 306.047193 
z
" clip-path="url(#p236a7f897f)" style="fill: #f59c2e; fill-opacity: 0.8; stroke: #f59c2e; stroke-opacity: 0.8"/>
   </g>
   <g id="PathCollection_2">
    <path d="M 379.994231 348.537454 
C 381.849279 348.537454 383.6286 347.800435 384.940317 346.488718 
C 386.252034 345.177001 386.989053 343.39768 386.989053 341.542632 
C 386.989053 339.687583 386.252034 337.908263 384.940317 336.596546 
C 383.6286 335.284829 381.849279 334.54781 379.994231 334.54781 
C 378.139183 334.54781 376.359862 335.284829 375.048145 336.596546 
C 373.736428 337.908263 372.999409 339.687583 372.999409 341.542632 
C 372.999409 343.39768 373.736428 345.177001 375.048145 346.488718 
C 376.359862 347.800435 378.139183 348.537454 379.994231 348.537454 
z
" clip-path="url(#p236a7f897f)" style="fill: #585092; fill-opacity: 0.8; stroke: #585092; stroke-opacity: 0.8"/>
    <path d="M 521.658634 383.813881 
C 526.034554 383.813881 530.231836 382.07531 533.326078 378.981067 
C 536.42032 375.886825 538.158891 371.689543 538.158891 367.313624 
C 538.158891 362.937705 536.42032 358.740423 533.326078 355.646181 
C 530.231836 352.551938 526.034554 350.813367 521.658634 350.813367 
C 517.282715 350.813367 513.085433 352.551938 509.991191 355.646181 
C 506.896949 358.740423 505.158378 362.937705 505.158378 367.313624 
C 505.158378 371.689543 506.896949 375.886825 509.991191 378.981067 
C 513.085433 382.07531 517.282715 383.813881 521.658634 383.813881 
z
" clip-path="url(#p236a7f897f)" style="fill: #585092; fill-opacity: 0.8; stroke: #585092; stroke-opacity: 0.8"/>
    <path d="M 384.896986 350.563792 
C 387.717632 350.563792 390.423131 349.443138 392.417629 347.44864 
C 394.412127 345.454142 395.532781 342.748643 395.532781 339.927997 
C 395.532781 337.107351 394.412127 334.401852 392.417629 332.407354 
C 390.423131 330.412856 387.717632 329.292202 384.896986 329.292202 
C 382.07634 329.292202 379.370841 330.412856 377.376343 332.407354 
C 375.381845 334.401852 374.261191 337.107351 374.261191 339.927997 
C 374.261191 342.748643 375.381845 345.454142 377.376343 347.44864 
C 379.370841 349.443138 382.07634 350.563792 384.896986 350.563792 
z
" clip-path="url(#p236a7f897f)" style="fill: #585092; fill-opacity: 0.8; stroke: #585092; stroke-opacity: 0.8"/>
    <path d="M 400.376873 308.911097 
C 401.552839 308.911097 402.680798 308.443881 403.512331 307.612348 
C 404.343865 306.780815 404.811081 305.652855 404.811081 304.476889 
C 404.811081 303.300924 404.343865 302.172964 403.512331 301.341431 
C 402.680798 300.509898 401.552839 300.042682 400.376873 300.042682 
C 399.200907 300.042682 398.072948 300.509898 397.241415 301.341431 
C 396.409881 302.172964 395.942665 303.300924 395.942665 304.476889 
C 395.942665 305.652855 396.409881 306.780815 397.241415 307.612348 
C 398.072948 308.443881 399.200907 308.911097 400.376873 308.911097 
z
" clip-path="url(#p236a7f897f)" style="fill: #585092; fill-opacity: 0.8; stroke: #585092; stroke-opacity: 0.8"/>
    <path d="M 623.760937 473.420706 
C 630.220562 473.420706 636.416487 470.85427 640.984131 466.286626 
C 645.551775 461.718981 648.118212 455.523057 648.118212 449.063432 
C 648.118212 442.603807 645.551775 436.407882 640.984131 431.840238 
C 636.416487 427.272593 630.220562 424.706157 623.760937 424.706157 
C 617.301312 424.706157 611.105387 427.272593 606.537743 431.840238 
C 601.970098 436.407882 599.403662 442.603807 599.403662 449.063432 
C 599.403662 455.523057 601.970098 461.718981 606.537743 466.286626 
C 611.105387 470.85427 617.301312 473.420706 623.760937 473.420706 
z
" clip-path="url(#p236a7f897f)" style="fill: #170b6f; fill-opacity: 0.8; stroke: #170b6f; stroke-opacity: 0.8"/>
    <path d="M 583.941384 466.839947 
C 585.789838 466.839947 587.562833 466.105548 588.869888 464.798494 
C 590.176942 463.49144 590.911341 461.718445 590.911341 459.86999 
C 590.911341 458.021536 590.176942 456.248541 588.869888 454.941487 
C 587.562833 453.634433 585.789838 452.900034 583.941384 452.900034 
C 582.09293 452.900034 580.319935 453.634433 579.012881 454.941487 
C 577.705826 456.248541 576.971428 458.021536 576.971428 459.86999 
C 576.971428 461.718445 577.705826 463.49144 579.012881 464.798494 
C 580.319935 466.105548 582.09293 466.839947 583.941384 466.839947 
z
" clip-path="url(#p236a7f897f)" style="fill: #170b6f; fill-opacity: 0.8; stroke: #170b6f; stroke-opacity: 0.8"/>
    <path d="M 522.839649 476.628938 
C 526.797054 476.628938 530.592906 475.056645 533.391214 472.258337 
C 536.189522 469.460029 537.761815 465.664177 537.761815 461.706772 
C 537.761815 457.749368 536.189522 453.953515 533.391214 451.155208 
C 530.592906 448.3569 526.797054 446.784606 522.839649 446.784606 
C 518.882245 446.784606 515.086392 448.3569 512.288085 451.155208 
C 509.489777 453.953515 507.917483 457.749368 507.917483 461.706772 
C 507.917483 465.664177 509.489777 469.460029 512.288085 472.258337 
C 515.086392 475.056645 518.882245 476.628938 522.839649 476.628938 
z
" clip-path="url(#p236a7f897f)" style="fill: #170b6f; fill-opacity: 0.8; stroke: #170b6f; stroke-opacity: 0.8"/>
    <path d="M 481.272877 486.301343 
C 484.08969 486.301343 486.791513 485.182212 488.783301 483.190424 
C 490.775089 481.198636 491.89422 478.496813 491.89422 475.68 
C 491.89422 472.863187 490.775089 470.161364 488.783301 468.169576 
C 486.791513 466.177788 484.08969 465.058657 481.272877 465.058657 
C 478.456064 465.058657 475.754241 466.177788 473.762453 468.169576 
C 471.770665 470.161364 470.651533 472.863187 470.651533 475.68 
C 470.651533 478.496813 471.770665 481.198636 473.762453 483.190424 
C 475.754241 485.182212 478.456064 486.301343 481.272877 486.301343 
z
" clip-path="url(#p236a7f897f)" style="fill: #170b6f; fill-opacity: 0.8; stroke: #170b6f; stroke-opacity: 0.8"/>
    <path d="M 442.940566 393.114399 
C 444.108298 393.114399 445.22836 392.650454 446.054072 391.824743 
C 446.879784 390.999031 447.343729 389.878969 447.343729 388.711236 
C 447.343729 387.543504 446.879784 386.423441 446.054072 385.59773 
C 445.22836 384.772018 444.108298 384.308073 442.940566 384.308073 
C 441.772833 384.308073 440.652771 384.772018 439.827059 385.59773 
C 439.001348 386.423441 438.537403 387.543504 438.537403 388.711236 
C 438.537403 389.878969 439.001348 390.999031 439.827059 391.824743 
C 440.652771 392.650454 441.772833 393.114399 442.940566 393.114399 
z
" clip-path="url(#p236a7f897f)" style="fill: #170b6f; fill-opacity: 0.8; stroke: #170b6f; stroke-opacity: 0.8"/>
    <path d="M 163.8 142.659576 
C 165.653682 142.659576 167.431691 141.923101 168.742442 140.61235 
C 170.053193 139.301599 170.789668 137.52359 170.789668 135.669908 
C 170.789668 133.816226 170.053193 132.038217 168.742442 130.727466 
C 167.431691 129.416715 165.653682 128.68024 163.8 128.68024 
C 161.946318 128.68024 160.168309 129.416715 158.857558 130.727466 
C 157.546807 132.038217 156.810332 133.816226 156.810332 135.669908 
C 156.810332 137.52359 157.546807 139.301599 158.857558 140.61235 
C 160.168309 141.923101 161.946318 142.659576 163.8 142.659576 
z
" clip-path="url(#p236a7f897f)" style="fill: #9490b2; fill-opacity: 0.8; stroke: #9490b2; stroke-opacity: 0.8"/>
    <path d="M 356.713702 132.969581 
C 358.563139 132.969581 360.337077 132.234792 361.644826 130.927042 
C 362.952575 129.619293 363.687364 127.845355 363.687364 125.995918 
C 363.687364 124.146482 362.952575 122.372544 361.644826 121.064795 
C 360.337077 119.757045 358.563139 119.022256 356.713702 119.022256 
C 354.864265 119.022256 353.090328 119.757045 351.782578 121.064795 
C 350.474829 122.372544 349.74004 124.146482 349.74004 125.995918 
C 349.74004 127.845355 350.474829 129.619293 351.782578 130.927042 
C 353.090328 132.234792 354.864265 132.969581 356.713702 132.969581 
z
" clip-path="url(#p236a7f897f)" style="fill: #d3d3d3; fill-opacity: 0.8; stroke: #d3d3d3; stroke-opacity: 0.8"/>
    <path d="M 422.89735 382.511525 
C 424.746793 382.511525 426.520736 381.776734 427.828489 380.468981 
C 429.136242 379.161228 429.871034 377.387285 429.871034 375.537842 
C 429.871034 373.6884 429.136242 371.914457 427.828489 370.606704 
C 426.520736 369.29895 424.746793 368.564159 422.89735 368.564159 
C 421.047908 368.564159 419.273965 369.29895 417.966212 370.606704 
C 416.658459 371.914457 415.923667 373.6884 415.923667 375.537842 
C 415.923667 377.387285 416.658459 379.161228 417.966212 380.468981 
C 419.273965 381.776734 421.047908 382.511525 422.89735 382.511525 
z
" clip-path="url(#p236a7f897f)" style="fill: #13066d; fill-opacity: 0.8; stroke: #13066d; stroke-opacity: 0.8"/>
    <path d="M 431.596515 256.795494 
C 433.445957 256.795494 435.2199 256.060703 436.527654 254.752949 
C 437.835407 253.445196 438.570198 251.671253 438.570198 249.821811 
C 438.570198 247.972368 437.835407 246.198425 436.527654 244.890672 
C 435.2199 243.582919 433.445957 242.848128 431.596515 242.848128 
C 429.747073 242.848128 427.97313 243.582919 426.665377 244.890672 
C 425.357623 246.198425 424.622832 247.972368 424.622832 249.821811 
C 424.622832 251.671253 425.357623 253.445196 426.665377 254.752949 
C 427.97313 256.060703 429.747073 256.795494 431.596515 256.795494 
z
" clip-path="url(#p236a7f897f)" style="fill: #3d3383; fill-opacity: 0.8; stroke: #3d3383; stroke-opacity: 0.8"/>
    <path d="M 354.831994 342.872296 
C 359.040821 342.872296 363.077832 341.200111 366.053922 338.224021 
C 369.030013 335.24793 370.702197 331.210919 370.702197 327.002092 
C 370.702197 322.793265 369.030013 318.756253 366.053922 315.780163 
C 363.077832 312.804073 359.040821 311.131888 354.831994 311.131888 
C 350.623166 311.131888 346.586155 312.804073 343.610065 315.780163 
C 340.633975 318.756253 338.96179 322.793265 338.96179 327.002092 
C 338.96179 331.210919 340.633975 335.24793 343.610065 338.224021 
C 346.586155 341.200111 350.623166 342.872296 354.831994 342.872296 
z
" clip-path="url(#p236a7f897f)" style="fill: #13066d; fill-opacity: 0.8; stroke: #13066d; stroke-opacity: 0.8"/>
    <path d="M 582.652396 180.600256 
C 586.251659 180.600256 589.70399 179.170253 592.249054 176.62519 
C 594.794117 174.080127 596.224119 170.627796 596.224119 167.028533 
C 596.224119 163.42927 594.794117 159.976939 592.249054 157.431876 
C 589.70399 154.886812 586.251659 153.45681 582.652396 153.45681 
C 579.053133 153.45681 575.600802 154.886812 573.055739 157.431876 
C 570.510676 159.976939 569.080673 163.42927 569.080673 167.028533 
C 569.080673 170.627796 570.510676 174.080127 573.055739 176.62519 
C 575.600802 179.170253 579.053133 180.600256 582.652396 180.600256 
z
" clip-path="url(#p236a7f897f)" style="fill: #9490b2; fill-opacity: 0.8; stroke: #9490b2; stroke-opacity: 0.8"/>
    <path d="M 421.100633 399.313093 
C 424.69678 399.313093 428.146123 397.884328 430.688983 395.341468 
C 433.231843 392.798608 434.660607 389.349266 434.660607 385.753119 
C 434.660607 382.156971 433.231843 378.707629 430.688983 376.164769 
C 428.146123 373.621909 424.69678 372.193144 421.100633 372.193144 
C 417.504486 372.193144 414.055144 373.621909 411.512283 376.164769 
C 408.969423 378.707629 407.540659 382.156971 407.540659 385.753119 
C 407.540659 389.349266 408.969423 392.798608 411.512283 395.341468 
C 414.055144 397.884328 417.504486 399.313093 421.100633 399.313093 
z
" clip-path="url(#p236a7f897f)" style="fill: #13066d; fill-opacity: 0.8; stroke: #13066d; stroke-opacity: 0.8"/>
    <path d="M 344.538692 272.18289 
C 347.359284 272.18289 350.064732 271.062257 352.059192 269.067797 
C 354.053651 267.073337 355.174285 264.36789 355.174285 261.547298 
C 355.174285 258.726705 354.053651 256.021258 352.059192 254.026798 
C 350.064732 252.032338 347.359284 250.911705 344.538692 250.911705 
C 341.7181 250.911705 339.012652 252.032338 337.018192 254.026798 
C 335.023733 256.021258 333.903099 258.726705 333.903099 261.547298 
C 333.903099 264.36789 335.023733 267.073337 337.018192 269.067797 
C 339.012652 271.062257 341.7181 272.18289 344.538692 272.18289 
z
" clip-path="url(#p236a7f897f)" style="fill: #9490b2; fill-opacity: 0.8; stroke: #9490b2; stroke-opacity: 0.8"/>
    <path d="M 230.015716 244.688778 
C 232.832679 244.688778 235.534645 243.569587 237.526538 241.577694 
C 239.518431 239.585801 240.637622 236.883835 240.637622 234.066872 
C 240.637622 231.24991 239.518431 228.547944 237.526538 226.556051 
C 235.534645 224.564158 232.832679 223.444967 230.015716 223.444967 
C 227.198754 223.444967 224.496788 224.564158 222.504895 226.556051 
C 220.513002 228.547944 219.393811 231.24991 219.393811 234.066872 
C 219.393811 236.883835 220.513002 239.585801 222.504895 241.577694 
C 224.496788 243.569587 227.198754 244.688778 230.015716 244.688778 
z
" clip-path="url(#p236a7f897f)" style="fill: #13066d; fill-opacity: 0.8; stroke: #13066d; stroke-opacity: 0.8"/>
    <path d="M 429.020295 339.994409 
C 431.837257 339.994409 434.539223 338.875218 436.531117 336.883325 
C 438.52301 334.891432 439.642201 332.189466 439.642201 329.372504 
C 439.642201 326.555542 438.52301 323.853576 436.531117 321.861682 
C 434.539223 319.869789 431.837257 318.750598 429.020295 318.750598 
C 426.203333 318.750598 423.501367 319.869789 421.509474 321.861682 
C 419.517581 323.853576 418.39839 326.555542 418.39839 329.372504 
C 418.39839 332.189466 419.517581 334.891432 421.509474 336.883325 
C 423.501367 338.875218 426.203333 339.994409 429.020295 339.994409 
z
" clip-path="url(#p236a7f897f)" style="fill: #3d3383; fill-opacity: 0.8; stroke: #3d3383; stroke-opacity: 0.8"/>
    <path d="M 300.294458 234.059126 
C 301.466088 234.059126 302.589889 233.593633 303.418356 232.765165 
C 304.246823 231.936698 304.712317 230.812897 304.712317 229.641268 
C 304.712317 228.469638 304.246823 227.345837 303.418356 226.51737 
C 302.589889 225.688902 301.466088 225.223409 300.294458 225.223409 
C 299.122828 225.223409 297.999028 225.688902 297.17056 226.51737 
C 296.342093 227.345837 295.8766 228.469638 295.8766 229.641268 
C 295.8766 230.812897 296.342093 231.936698 297.17056 232.765165 
C 297.999028 233.593633 299.122828 234.059126 300.294458 234.059126 
z
" clip-path="url(#p236a7f897f)" style="fill: #9490b2; fill-opacity: 0.8; stroke: #9490b2; stroke-opacity: 0.8"/>
    <path d="M 454.166086 188.588594 
C 455.335049 188.588594 456.456292 188.12416 457.282874 187.297579 
C 458.109456 186.470997 458.57389 185.349754 458.57389 184.180791 
C 458.57389 183.011828 458.109456 181.890585 457.282874 181.064004 
C 456.456292 180.237422 455.335049 179.772988 454.166086 179.772988 
C 452.997123 179.772988 451.87588 180.237422 451.049299 181.064004 
C 450.222717 181.890585 449.758283 183.011828 449.758283 184.180791 
C 449.758283 185.349754 450.222717 186.470997 451.049299 187.297579 
C 451.87588 188.12416 452.997123 188.588594 454.166086 188.588594 
z
" clip-path="url(#p236a7f897f)" style="fill: #d3d3d3; fill-opacity: 0.8; stroke: #d3d3d3; stroke-opacity: 0.8"/>
    <path d="M 457.3302 225.360655 
C 458.073126 225.360655 458.785723 225.065488 459.31105 224.54016 
C 459.836378 224.014833 460.131545 223.302236 460.131545 222.55931 
C 460.131545 221.816385 459.836378 221.103788 459.31105 220.57846 
C 458.785723 220.053133 458.073126 219.757965 457.3302 219.757965 
C 456.587275 219.757965 455.874678 220.053133 455.34935 220.57846 
C 454.824023 221.103788 454.528856 221.816385 454.528856 222.55931 
C 454.528856 223.302236 454.824023 224.014833 455.34935 224.54016 
C 455.874678 225.065488 456.587275 225.360655 457.3302 225.360655 
z
" clip-path="url(#p236a7f897f)" style="fill: #9490b2; fill-opacity: 0.8; stroke: #9490b2; stroke-opacity: 0.8"/>
   </g>
   <g id="matplotlib.axis_1">
    <g id="xtick_1">
     <g id="line2d_1">
      <defs>
       <path id="m2ce64acfa2" d="M 0 0 
L 0 3.5 
" style="stroke: #000000; stroke-width: 0.8"/>
      </defs>
      <g>
       <use xlink:href="#m2ce64acfa2" x="114.272784" y="512.64" style="stroke: #000000; stroke-width: 0.8"/>
      </g>
     </g>
     <g id="text_1">
      <text style="font: 10px 'DejaVu Sans', 'Bitstream Vera Sans', 'Computer Modern Sans Serif', 'Lucida Grande', 'Verdana', 'Geneva', 'Lucid', 'Arial', 'Helvetica', 'Avant Garde', sans-serif; text-anchor: middle" x="114.272784" y="527.238438" transform="rotate(-0 114.272784 527.238438)">−0.6</text>
     </g>
    </g>
    <g id="xtick_2">
     <g id="line2d_2">
      <g>
       <use xlink:href="#m2ce64acfa2" x="225.7531" y="512.64" style="stroke: #000000; stroke-width: 0.8"/>
      </g>
     </g>
     <g id="text_2">
      <text style="font: 10px 'DejaVu Sans', 'Bitstream Vera Sans', 'Computer Modern Sans Serif', 'Lucida Grande', 'Verdana', 'Geneva', 'Lucid', 'Arial', 'Helvetica', 'Avant Garde', sans-serif; text-anchor: middle" x="225.7531" y="527.238438" transform="rotate(-0 225.7531 527.238438)">−0.4</text>
     </g>
    </g>
    <g id="xtick_3">
     <g id="line2d_3">
      <g>
       <use xlink:href="#m2ce64acfa2" x="337.233415" y="512.64" style="stroke: #000000; stroke-width: 0.8"/>
      </g>
     </g>
     <g id="text_3">
      <text style="font: 10px 'DejaVu Sans', 'Bitstream Vera Sans', 'Computer Modern Sans Serif', 'Lucida Grande', 'Verdana', 'Geneva', 'Lucid', 'Arial', 'Helvetica', 'Avant Garde', sans-serif; text-anchor: middle" x="337.233415" y="527.238438" transform="rotate(-0 337.233415 527.238438)">−0.2</text>
     </g>
    </g>
    <g id="xtick_4">
     <g id="line2d_4">
      <g>
       <use xlink:href="#m2ce64acfa2" x="448.713731" y="512.64" style="stroke: #000000; stroke-width: 0.8"/>
      </g>
     </g>
     <g id="text_4">
      <text style="font: 10px 'DejaVu Sans', 'Bitstream Vera Sans', 'Computer Modern Sans Serif', 'Lucida Grande', 'Verdana', 'Geneva', 'Lucid', 'Arial', 'Helvetica', 'Avant Garde', sans-serif; text-anchor: middle" x="448.713731" y="527.238438" transform="rotate(-0 448.713731 527.238438)">0.0</text>
     </g>
    </g>
    <g id="xtick_5">
     <g id="line2d_5">
      <g>
       <use xlink:href="#m2ce64acfa2" x="560.194046" y="512.64" style="stroke: #000000; stroke-width: 0.8"/>
      </g>
     </g>
     <g id="text_5">
      <text style="font: 10px 'DejaVu Sans', 'Bitstream Vera Sans', 'Computer Modern Sans Serif', 'Lucida Grande', 'Verdana', 'Geneva', 'Lucid', 'Arial', 'Helvetica', 'Avant Garde', sans-serif; text-anchor: middle" x="560.194046" y="527.238438" transform="rotate(-0 560.194046 527.238438)">0.2</text>
     </g>
    </g>
    <g id="xtick_6">
     <g id="line2d_6">
      <g>
       <use xlink:href="#m2ce64acfa2" x="671.674362" y="512.64" style="stroke: #000000; stroke-width: 0.8"/>
      </g>
     </g>
     <g id="text_6">
      <text style="font: 10px 'DejaVu Sans', 'Bitstream Vera Sans', 'Computer Modern Sans Serif', 'Lucida Grande', 'Verdana', 'Geneva', 'Lucid', 'Arial', 'Helvetica', 'Avant Garde', sans-serif; text-anchor: middle" x="671.674362" y="527.238438" transform="rotate(-0 671.674362 527.238438)">0.4</text>
     </g>
    </g>
    <g id="text_7">
     <text style="font: 10px 'DejaVu Sans', 'Bitstream Vera Sans', 'Computer Modern Sans Serif', 'Lucida Grande', 'Verdana', 'Geneva', 'Lucid', 'Arial', 'Helvetica', 'Avant Garde', sans-serif; text-anchor: middle" x="442.8" y="540.916563" transform="rotate(-0 442.8 540.916563)">MDS1</text>
    </g>
   </g>
   <g id="matplotlib.axis_2">
    <g id="ytick_1">
     <g id="line2d_7">
      <defs>
       <path id="m1b57ba2a21" d="M 0 0 
L -3.5 0 
" style="stroke: #000000; stroke-width: 0.8"/>
      </defs>
      <g>
       <use xlink:href="#m1b57ba2a21" x="108" y="476.892081" style="stroke: #000000; stroke-width: 0.8"/>
      </g>
     </g>
     <g id="text_8">
      <text style="font: 10px 'DejaVu Sans', 'Bitstream Vera Sans', 'Computer Modern Sans Serif', 'Lucida Grande', 'Verdana', 'Geneva', 'Lucid', 'Arial', 'Helvetica', 'Avant Garde', sans-serif; text-anchor: end" x="101" y="480.691299" transform="rotate(-0 101 480.691299)">−2</text>
     </g>
    </g>
    <g id="ytick_2">
     <g id="line2d_8">
      <g>
       <use xlink:href="#m1b57ba2a21" x="108" y="378.749393" style="stroke: #000000; stroke-width: 0.8"/>
      </g>
     </g>
     <g id="text_9">
      <text style="font: 10px 'DejaVu Sans', 'Bitstream Vera Sans', 'Computer Modern Sans Serif', 'Lucida Grande', 'Verdana', 'Geneva', 'Lucid', 'Arial', 'Helvetica', 'Avant Garde', sans-serif; text-anchor: end" x="101" y="382.548611" transform="rotate(-0 101 382.548611)">−1</text>
     </g>
    </g>
    <g id="ytick_3">
     <g id="line2d_9">
      <g>
       <use xlink:href="#m1b57ba2a21" x="108" y="280.606705" style="stroke: #000000; stroke-width: 0.8"/>
      </g>
     </g>
     <g id="text_10">
      <text style="font: 10px 'DejaVu Sans', 'Bitstream Vera Sans', 'Computer Modern Sans Serif', 'Lucida Grande', 'Verdana', 'Geneva', 'Lucid', 'Arial', 'Helvetica', 'Avant Garde', sans-serif; text-anchor: end" x="101" y="284.405923" transform="rotate(-0 101 284.405923)">0</text>
     </g>
    </g>
    <g id="ytick_4">
     <g id="line2d_10">
      <g>
       <use xlink:href="#m1b57ba2a21" x="108" y="182.464016" style="stroke: #000000; stroke-width: 0.8"/>
      </g>
     </g>
     <g id="text_11">
      <text style="font: 10px 'DejaVu Sans', 'Bitstream Vera Sans', 'Computer Modern Sans Serif', 'Lucida Grande', 'Verdana', 'Geneva', 'Lucid', 'Arial', 'Helvetica', 'Avant Garde', sans-serif; text-anchor: end" x="101" y="186.263235" transform="rotate(-0 101 186.263235)">1</text>
     </g>
    </g>
    <g id="ytick_5">
     <g id="line2d_11">
      <g>
       <use xlink:href="#m1b57ba2a21" x="108" y="84.321328" style="stroke: #000000; stroke-width: 0.8"/>
      </g>
     </g>
     <g id="text_12">
      <text style="font: 10px 'DejaVu Sans', 'Bitstream Vera Sans', 'Computer Modern Sans Serif', 'Lucida Grande', 'Verdana', 'Geneva', 'Lucid', 'Arial', 'Helvetica', 'Avant Garde', sans-serif; text-anchor: end" x="101" y="88.120547" transform="rotate(-0 101 88.120547)">2</text>
     </g>
    </g>
    <g id="text_13">
     <text style="font: 10px 'DejaVu Sans', 'Bitstream Vera Sans', 'Computer Modern Sans Serif', 'Lucida Grande', 'Verdana', 'Geneva', 'Lucid', 'Arial', 'Helvetica', 'Avant Garde', sans-serif; text-anchor: middle" x="80.178125" y="290.88" transform="rotate(-90 80.178125 290.88)">MDS2</text>
    </g>
   </g>
   <g id="patch_3">
    <path d="M 108 476.892081 
L 108 84.321328 
" style="fill: none; stroke: #000000; stroke-width: 0.8; stroke-linejoin: miter; stroke-linecap: square"/>
   </g>
   <g id="patch_4">
    <path d="M 114.272784 512.64 
L 671.674362 512.64 
" style="fill: none; stroke: #000000; stroke-width: 0.8; stroke-linejoin: miter; stroke-linecap: square"/>
   </g>
  </g>
 </g>
 <defs>
  <clipPath id="p236a7f897f">
   <rect x="108" y="69.12" width="669.6" height="443.52"/>
  </clipPath>
 </defs>
</svg>
