<?xml version="1.0" encoding="utf-8" standalone="no"?>
<!DOCTYPE svg PUBLIC "-//W3C//DTD SVG 1.1//EN"
  "http://www.w3.org/Graphics/SVG/1.1/DTD/svg11.dtd">
<svg xmlns:xlink="http://www.w3.org/1999/xlink" width="1008pt" height="720pt" viewBox="0 0 1008 720" xmlns="http://www.w3.org/2000/svg" version="1.1">
 <metadata>
  <rdf:RDF xmlns:dc="http://purl.org/dc/elements/1.1/" xmlns:cc="http://creativecommons.org/ns#" xmlns:rdf="http://www.w3.org/1999/02/22-rdf-syntax-ns#">
   <cc:Work>
    <dc:type rdf:resource="http://purl.org/dc/dcmitype/StillImage"/>
    <dc:date>2025-10-24T16:27:12.188306</dc:date>
    <dc:format>image/svg+xml</dc:format>
    <dc:creator>
     <cc:Agent>
      <dc:title>Matplotlib v3.9.4, https://matplotlib.org/</dc:title>
     </cc:Agent>
    </dc:creator>
   </cc:Work>
  </rdf:RDF>
 </metadata>
 <defs>
  <style type="text/css">*{stroke-linejoin: round; stroke-linecap: butt}</style>
 </defs>
 <g id="figure_1">
  <g id="patch_1">
   <path d="M 0 720 
L 1008 720 
L 1008 0 
L 0 0 
z
" style="fill: #ffffff"/>
  </g>
  <g id="axes_1">
   <g id="patch_2">
    <path d="M 126 640.8 
L 907.2 640.8 
L 907.2 86.4 
L 126 86.4 
z
" style="fill: #ffffff"/>
   </g>
   <g id="matplotlib.axis_1">
    <g id="xtick_1">
     <g id="line2d_1">
      <defs>
       <path id="ma10b356f15" d="M 0 0 
L 0 6 
" style="stroke: #262626; stroke-width: 1.25"/>
      </defs>
      <g>
       <use xlink:href="#ma10b356f15" x="136.037731" y="650.8" style="fill: #262626; stroke: #262626; stroke-width: 1.25"/>
      </g>
     </g>
    </g>
    <g id="xtick_2">
     <g id="line2d_2">
      <g>
       <use xlink:href="#ma10b356f15" x="328.828298" y="650.8" style="fill: #262626; stroke: #262626; stroke-width: 1.25"/>
      </g>
     </g>
    </g>
    <g id="xtick_3">
     <g id="line2d_3">
      <g>
       <use xlink:href="#ma10b356f15" x="521.618866" y="650.8" style="fill: #262626; stroke: #262626; stroke-width: 1.25"/>
      </g>
     </g>
    </g>
    <g id="xtick_4">
     <g id="line2d_4">
      <g>
       <use xlink:href="#ma10b356f15" x="714.409433" y="650.8" style="fill: #262626; stroke: #262626; stroke-width: 1.25"/>
      </g>
     </g>
    </g>
    <g id="xtick_5">
     <g id="line2d_5">
      <g>
       <use xlink:href="#ma10b356f15" x="907.2" y="650.8" style="fill: #262626; stroke: #262626; stroke-width: 1.25"/>
      </g>
     </g>
    </g>
    <g id="xtick_6"/>
    <g id="xtick_7"/>
    <g id="xtick_8"/>
    <g id="xtick_9"/>
    <g id="xtick_10"/>
    <g id="xtick_11"/>
    <g id="xtick_12"/>
    <g id="xtick_13"/>
    <g id="xtick_14"/>
    <g id="xtick_15"/>
    <g id="xtick_16"/>
    <g id="xtick_17"/>
    <g id="xtick_18"/>
    <g id="xtick_19"/>
    <g id="xtick_20"/>
    <g id="xtick_21"/>
    <g id="xtick_22"/>
    <g id="xtick_23"/>
    <g id="xtick_24"/>
    <g id="xtick_25"/>
    <g id="xtick_26"/>
    <g id="xtick_27"/>
    <g id="xtick_28"/>
    <g id="xtick_29"/>
    <g id="xtick_30"/>
    <g id="xtick_31"/>
    <g id="xtick_32"/>
    <g id="xtick_33"/>
    <g id="xtick_34"/>
    <g id="xtick_35"/>
    <g id="xtick_36"/>
    <g id="xtick_37"/>
    <g id="xtick_38"/>
   </g>
   <g id="matplotlib.axis_2">
    <g id="ytick_1">
     <g id="line2d_6">
      <defs>
       <path id="m8ad7a89228" d="M 0 0 
L -6 0 
" style="stroke: #262626; stroke-width: 1.25"/>
      </defs>
      <g>
       <use xlink:href="#m8ad7a89228" x="126" y="108.368943" style="fill: #262626; stroke: #262626; stroke-width: 1.25"/>
      </g>
     </g>
     <g id="text_1">
      <text style="fill: #262626; font: 25px 'Arial', 'DejaVu Sans', 'Liberation Sans', 'Bitstream Vera Sans', sans-serif; text-anchor: end" x="116.5" y="117.316209" transform="rotate(-0 116.5 117.316209)">1</text>
     </g>
    </g>
    <g id="ytick_2">
     <g id="line2d_7">
      <g>
       <use xlink:href="#m8ad7a89228" x="126" y="197.107453" style="fill: #262626; stroke: #262626; stroke-width: 1.25"/>
      </g>
     </g>
     <g id="text_2">
      <text style="fill: #262626; font: 25px 'Arial', 'DejaVu Sans', 'Liberation Sans', 'Bitstream Vera Sans', sans-serif; text-anchor: end" x="116.5" y="206.054719" transform="rotate(-0 116.5 206.054719)">2</text>
     </g>
    </g>
    <g id="ytick_3">
     <g id="line2d_8">
      <g>
       <use xlink:href="#m8ad7a89228" x="126" y="285.845962" style="fill: #262626; stroke: #262626; stroke-width: 1.25"/>
      </g>
     </g>
     <g id="text_3">
      <text style="fill: #262626; font: 25px 'Arial', 'DejaVu Sans', 'Liberation Sans', 'Bitstream Vera Sans', sans-serif; text-anchor: end" x="116.5" y="294.793228" transform="rotate(-0 116.5 294.793228)">3</text>
     </g>
    </g>
    <g id="ytick_4">
     <g id="line2d_9">
      <g>
       <use xlink:href="#m8ad7a89228" x="126" y="374.584472" style="fill: #262626; stroke: #262626; stroke-width: 1.25"/>
      </g>
     </g>
     <g id="text_4">
      <text style="fill: #262626; font: 25px 'Arial', 'DejaVu Sans', 'Liberation Sans', 'Bitstream Vera Sans', sans-serif; text-anchor: end" x="116.5" y="383.531737" transform="rotate(-0 116.5 383.531737)">4</text>
     </g>
    </g>
    <g id="ytick_5">
     <g id="line2d_10">
      <g>
       <use xlink:href="#m8ad7a89228" x="126" y="463.322981" style="fill: #262626; stroke: #262626; stroke-width: 1.25"/>
      </g>
     </g>
     <g id="text_5">
      <text style="fill: #262626; font: 25px 'Arial', 'DejaVu Sans', 'Liberation Sans', 'Bitstream Vera Sans', sans-serif; text-anchor: end" x="116.5" y="472.270247" transform="rotate(-0 116.5 472.270247)">5</text>
     </g>
    </g>
    <g id="ytick_6">
     <g id="line2d_11">
      <g>
       <use xlink:href="#m8ad7a89228" x="126" y="552.061491" style="fill: #262626; stroke: #262626; stroke-width: 1.25"/>
      </g>
     </g>
     <g id="text_6">
      <text style="fill: #262626; font: 25px 'Arial', 'DejaVu Sans', 'Liberation Sans', 'Bitstream Vera Sans', sans-serif; text-anchor: end" x="116.5" y="561.008756" transform="rotate(-0 116.5 561.008756)">6</text>
     </g>
    </g>
    <g id="ytick_7">
     <g id="line2d_12">
      <g>
       <use xlink:href="#m8ad7a89228" x="126" y="640.8" style="fill: #262626; stroke: #262626; stroke-width: 1.25"/>
      </g>
     </g>
     <g id="text_7">
      <text style="fill: #262626; font: 25px 'Arial', 'DejaVu Sans', 'Liberation Sans', 'Bitstream Vera Sans', sans-serif; text-anchor: end" x="116.5" y="649.747266" transform="rotate(-0 116.5 649.747266)">7</text>
     </g>
    </g>
   </g>
   <g id="PathCollection_1">
    <path d="M 772.445176 358.943088 
C 774.670751 358.943088 776.805471 358.058858 778.37919 356.485139 
C 779.952909 354.91142 780.837139 352.7767 780.837139 350.551125 
C 780.837139 348.325551 779.952909 346.190831 778.37919 344.617112 
C 776.805471 343.043393 774.670751 342.159163 772.445176 342.159163 
C 770.219602 342.159163 768.084882 343.043393 766.511163 344.617112 
C 764.937444 346.190831 764.053214 348.325551 764.053214 350.551125 
C 764.053214 352.7767 764.937444 354.91142 766.511163 356.485139 
C 768.084882 358.058858 770.219602 358.943088 772.445176 358.943088 
z
" clip-path="url(#pc403104666)" style="fill: #ff8d00; fill-opacity: 0.7; stroke: #995500; stroke-opacity: 0.7; stroke-width: 0.866426"/>
    <path d="M 156.783104 519.165397 
C 159.008678 519.165397 161.143398 518.281167 162.717117 516.707448 
C 164.290836 515.133729 165.175066 512.999009 165.175066 510.773434 
C 165.175066 508.54786 164.290836 506.413139 162.717117 504.83942 
C 161.143398 503.265702 159.008678 502.381472 156.783104 502.381472 
C 154.557529 502.381472 152.422809 503.265702 150.84909 504.83942 
C 149.275371 506.413139 148.391141 508.54786 148.391141 510.773434 
C 148.391141 512.999009 149.275371 515.133729 150.84909 516.707448 
C 152.422809 518.281167 154.557529 519.165397 156.783104 519.165397 
z
" clip-path="url(#pc403104666)" style="fill: #ff8d00; fill-opacity: 0.7; stroke: #995500; stroke-opacity: 0.7; stroke-width: 0.866426"/>
    <path d="M 358.171083 506.224364 
C 360.396658 506.224364 362.531378 505.340134 364.105097 503.766415 
C 365.678816 502.192696 366.563046 500.057976 366.563046 497.832401 
C 366.563046 495.606827 365.678816 493.472107 364.105097 491.898388 
C 362.531378 490.324669 360.396658 489.440439 358.171083 489.440439 
C 355.945509 489.440439 353.810789 490.324669 352.23707 491.898388 
C 350.663351 493.472107 349.779121 495.606827 349.779121 497.832401 
C 349.779121 500.057976 350.663351 502.192696 352.23707 503.766415 
C 353.810789 505.340134 355.945509 506.224364 358.171083 506.224364 
z
" clip-path="url(#pc403104666)" style="fill: #ff8d00; fill-opacity: 0.7; stroke: #995500; stroke-opacity: 0.7; stroke-width: 0.866426"/>
    <path d="M 156.783104 540.858678 
C 159.695515 540.858678 162.489033 539.701564 164.548419 537.642179 
C 166.607805 535.582793 167.764918 532.789274 167.764918 529.876863 
C 167.764918 526.964452 166.607805 524.170934 164.548419 522.111548 
C 162.489033 520.052162 159.695515 518.895049 156.783104 518.895049 
C 153.870692 518.895049 151.077174 520.052162 149.017788 522.111548 
C 146.958402 524.170934 145.801289 526.964452 145.801289 529.876863 
C 145.801289 532.789274 146.958402 535.582793 149.017788 537.642179 
C 151.077174 539.701564 153.870692 540.858678 156.783104 540.858678 
z
" clip-path="url(#pc403104666)" style="fill: #ff8d00; fill-opacity: 0.7; stroke: #995500; stroke-opacity: 0.7; stroke-width: 0.866426"/>
    <path d="M 358.171083 513.744133 
C 361.083495 513.744133 363.877013 512.58702 365.936399 510.527634 
C 367.995785 508.468248 369.152898 505.67473 369.152898 502.762319 
C 369.152898 499.849907 367.995785 497.056389 365.936399 494.997003 
C 363.877013 492.937618 361.083495 491.780504 358.171083 491.780504 
C 355.258672 491.780504 352.465154 492.937618 350.405768 494.997003 
C 348.346382 497.056389 347.189269 499.849907 347.189269 502.762319 
C 347.189269 505.67473 348.346382 508.468248 350.405768 510.527634 
C 352.465154 512.58702 355.258672 513.744133 358.171083 513.744133 
z
" clip-path="url(#pc403104666)" style="fill: #ff8d00; fill-opacity: 0.7; stroke: #995500; stroke-opacity: 0.7; stroke-width: 0.866426"/>
    <path d="M 772.445176 280.805546 
C 775.357588 280.805546 778.151106 279.648433 780.210492 277.589047 
C 782.269878 275.529661 783.426991 272.736143 783.426991 269.823731 
C 783.426991 266.91132 782.269878 264.117802 780.210492 262.058416 
C 778.151106 259.99903 775.357588 258.841917 772.445176 258.841917 
C 769.532765 258.841917 766.739247 259.99903 764.679861 262.058416 
C 762.620475 264.117802 761.463362 266.91132 761.463362 269.823731 
C 761.463362 272.736143 762.620475 275.529661 764.679861 277.589047 
C 766.739247 279.648433 769.532765 280.805546 772.445176 280.805546 
z
" clip-path="url(#pc403104666)" style="fill: #ff8d00; fill-opacity: 0.7; stroke: #995500; stroke-opacity: 0.7; stroke-width: 0.866426"/>
    <path d="M 156.783104 554.684503 
C 158.622735 554.684503 160.387268 553.95361 161.688084 552.652794 
C 162.988901 551.351978 163.719794 549.587445 163.719794 547.747813 
C 163.719794 545.908181 162.988901 544.143648 161.688084 542.842832 
C 160.387268 541.542016 158.622735 540.811123 156.783104 540.811123 
C 154.943472 540.811123 153.178939 541.542016 151.878123 542.842832 
C 150.577307 544.143648 149.846413 545.908181 149.846413 547.747813 
C 149.846413 549.587445 150.577307 551.351978 151.878123 552.652794 
C 153.178939 553.95361 154.943472 554.684503 156.783104 554.684503 
z
" clip-path="url(#pc403104666)" style="fill: #ff8d00; fill-opacity: 0.7; stroke: #995500; stroke-opacity: 0.7; stroke-width: 0.866426"/>
    <path d="M 358.171083 520.791323 
C 360.010715 520.791323 361.775248 520.060429 363.076064 518.759613 
C 364.37688 517.458797 365.107774 515.694264 365.107774 513.854632 
C 365.107774 512.015001 364.37688 510.250468 363.076064 508.949652 
C 361.775248 507.648835 360.010715 506.917942 358.171083 506.917942 
C 356.331452 506.917942 354.566919 507.648835 353.266103 508.949652 
C 351.965286 510.250468 351.234393 512.015001 351.234393 513.854632 
C 351.234393 515.694264 351.965286 517.458797 353.266103 518.759613 
C 354.566919 520.060429 356.331452 520.791323 358.171083 520.791323 
z
" clip-path="url(#pc403104666)" style="fill: #ff8d00; fill-opacity: 0.7; stroke: #995500; stroke-opacity: 0.7; stroke-width: 0.866426"/>
    <path d="M 156.783104 500.477397 
C 158.301708 500.477397 159.758319 499.874049 160.832134 498.800234 
C 161.905949 497.726418 162.509297 496.269808 162.509297 494.751203 
C 162.509297 493.232599 161.905949 491.775988 160.832134 490.702173 
C 159.758319 489.628357 158.301708 489.02501 156.783104 489.02501 
C 155.264499 489.02501 153.807889 489.628357 152.734073 490.702173 
C 151.660258 491.775988 151.05691 493.232599 151.05691 494.751203 
C 151.05691 496.269808 151.660258 497.726418 152.734073 498.800234 
C 153.807889 499.874049 155.264499 500.477397 156.783104 500.477397 
z
" clip-path="url(#pc403104666)" style="fill: #ff8d00; fill-opacity: 0.7; stroke: #995500; stroke-opacity: 0.7; stroke-width: 0.866426"/>
    <path d="M 358.171083 467.816696 
C 359.689688 467.816696 361.146298 467.213348 362.220114 466.139532 
C 363.293929 465.065717 363.897277 463.609106 363.897277 462.090502 
C 363.897277 460.571898 363.293929 459.115287 362.220114 458.041471 
C 361.146298 456.967656 359.689688 456.364308 358.171083 456.364308 
C 356.652479 456.364308 355.195868 456.967656 354.122053 458.041471 
C 353.048238 459.115287 352.44489 460.571898 352.44489 462.090502 
C 352.44489 463.609106 353.048238 465.065717 354.122053 466.139532 
C 355.195868 467.213348 356.652479 467.816696 358.171083 467.816696 
z
" clip-path="url(#pc403104666)" style="fill: #ff8d00; fill-opacity: 0.7; stroke: #995500; stroke-opacity: 0.7; stroke-width: 0.866426"/>
    <path d="M 772.445176 383.196052 
C 777.180424 383.196052 781.722366 381.314719 785.070692 377.966393 
C 788.419018 374.618067 790.300352 370.076125 790.300352 365.340877 
C 790.300352 360.605629 788.419018 356.063687 785.070692 352.715361 
C 781.722366 349.367036 777.180424 347.485702 772.445176 347.485702 
C 767.709929 347.485702 763.167987 349.367036 759.819661 352.715361 
C 756.471335 356.063687 754.590001 360.605629 754.590001 365.340877 
C 754.590001 370.076125 756.471335 374.618067 759.819661 377.966393 
C 763.167987 381.314719 767.709929 383.196052 772.445176 383.196052 
z
" clip-path="url(#pc403104666)" style="fill: #ff8d00; fill-opacity: 0.7; stroke: #995500; stroke-opacity: 0.7; stroke-width: 0.866426"/>
    <path d="M 156.783104 388.457515 
C 158.664562 388.457515 160.469215 387.710003 161.799607 386.379611 
C 163.129999 385.049219 163.877511 383.244567 163.877511 381.363108 
C 163.877511 379.481649 163.129999 377.676997 161.799607 376.346605 
C 160.469215 375.016212 158.664562 374.268701 156.783104 374.268701 
C 154.901645 374.268701 153.096993 375.016212 151.7666 376.346605 
C 150.436208 377.676997 149.688697 379.481649 149.688697 381.363108 
C 149.688697 383.244567 150.436208 385.049219 151.7666 386.379611 
C 153.096993 387.710003 154.901645 388.457515 156.783104 388.457515 
z
" clip-path="url(#pc403104666)" style="fill: #ff8d00; fill-opacity: 0.7; stroke: #995500; stroke-opacity: 0.7; stroke-width: 0.866426"/>
    <path d="M 758.837811 331.212369 
C 761.063403 331.212369 763.19814 330.328132 764.771871 328.754401 
C 766.345602 327.18067 767.229839 325.045933 767.229839 322.820341 
C 767.229839 320.594749 766.345602 318.460012 764.771871 316.886281 
C 763.19814 315.31255 761.063403 314.428313 758.837811 314.428313 
C 756.612219 314.428313 754.477482 315.31255 752.903751 316.886281 
C 751.33002 318.460012 750.445783 320.594749 750.445783 322.820341 
C 750.445783 325.045933 751.33002 327.18067 752.903751 328.754401 
C 754.477482 330.328132 756.612219 331.212369 758.837811 331.212369 
z
" clip-path="url(#pc403104666)" style="fill: #ff8d00; fill-opacity: 0.7; stroke: #995500; stroke-opacity: 0.7; stroke-width: 0.866426"/>
    <path d="M 758.837811 357.835559 
C 761.750238 357.835559 764.543771 356.67844 766.603167 354.619044 
C 768.662564 352.559647 769.819683 349.766114 769.819683 346.853688 
C 769.819683 343.941261 768.662564 341.147728 766.603167 339.088332 
C 764.543771 337.028935 761.750238 335.871816 758.837811 335.871816 
C 755.925385 335.871816 753.131852 337.028935 751.072455 339.088332 
C 749.013059 341.147728 747.855939 343.941261 747.855939 346.853688 
C 747.855939 349.766114 749.013059 352.559647 751.072455 354.619044 
C 753.131852 356.67844 755.925385 357.835559 758.837811 357.835559 
z
" clip-path="url(#pc403104666)" style="fill: #ff8d00; fill-opacity: 0.7; stroke: #995500; stroke-opacity: 0.7; stroke-width: 0.866426"/>
    <path d="M 758.837811 299.561361 
C 760.677462 299.561361 762.442013 298.83046 763.742843 297.52963 
C 765.043672 296.2288 765.774573 294.464249 765.774573 292.624598 
C 765.774573 290.784948 765.043672 289.020396 763.742843 287.719567 
C 762.442013 286.418737 760.677462 285.687836 758.837811 285.687836 
C 756.99816 285.687836 755.233609 286.418737 753.932779 287.719567 
C 752.63195 289.020396 751.901049 290.784948 751.901049 292.624598 
C 751.901049 294.464249 752.63195 296.2288 753.932779 297.52963 
C 755.233609 298.83046 756.99816 299.561361 758.837811 299.561361 
z
" clip-path="url(#pc403104666)" style="fill: #ff8d00; fill-opacity: 0.7; stroke: #995500; stroke-opacity: 0.7; stroke-width: 0.866426"/>
    <path d="M 758.837811 377.845812 
C 760.356443 377.845812 761.813081 377.242453 762.886916 376.168618 
C 763.960751 375.094783 764.56411 373.638145 764.56411 372.119513 
C 764.56411 370.600881 763.960751 369.144243 762.886916 368.070408 
C 761.813081 366.996573 760.356443 366.393214 758.837811 366.393214 
C 757.319179 366.393214 755.862541 366.996573 754.788706 368.070408 
C 753.714871 369.144243 753.111512 370.600881 753.111512 372.119513 
C 753.111512 373.638145 753.714871 375.094783 754.788706 376.168618 
C 755.862541 377.242453 757.319179 377.845812 758.837811 377.845812 
z
" clip-path="url(#pc403104666)" style="fill: #ff8d00; fill-opacity: 0.7; stroke: #995500; stroke-opacity: 0.7; stroke-width: 0.866426"/>
    <path d="M 156.783104 440.338524 
C 158.53213 440.338524 160.209757 439.643629 161.446505 438.40688 
C 162.683254 437.170131 163.37815 435.492505 163.37815 433.743478 
C 163.37815 431.994451 162.683254 430.316825 161.446505 429.080076 
C 160.209757 427.843328 158.53213 427.148432 156.783104 427.148432 
C 155.034077 427.148432 153.35645 427.843328 152.119702 429.080076 
C 150.882953 430.316825 150.188057 431.994451 150.188057 433.743478 
C 150.188057 435.492505 150.882953 437.170131 152.119702 438.40688 
C 153.35645 439.643629 155.034077 440.338524 156.783104 440.338524 
z
" clip-path="url(#pc403104666)" style="fill: #ff8d00; fill-opacity: 0.7; stroke: #995500; stroke-opacity: 0.7; stroke-width: 0.866426"/>
    <path d="M 637.690353 367.62324 
C 639.439643 367.62324 641.117523 366.92824 642.354458 365.691305 
C 643.591393 364.454369 644.286394 362.77649 644.286394 361.027199 
C 644.286394 359.277909 643.591393 357.600029 642.354458 356.363094 
C 641.117523 355.126159 639.439643 354.431159 637.690353 354.431159 
C 635.941062 354.431159 634.263183 355.126159 633.026248 356.363094 
C 631.789313 357.600029 631.094312 359.277909 631.094312 361.027199 
C 631.094312 362.77649 631.789313 364.454369 633.026248 365.691305 
C 634.263183 366.92824 635.941062 367.62324 637.690353 367.62324 
z
" clip-path="url(#pc403104666)" style="fill: #ff8d00; fill-opacity: 0.7; stroke: #995500; stroke-opacity: 0.7; stroke-width: 0.866426"/>
    <path d="M 156.783104 461.385874 
C 157.903663 461.385874 158.978479 460.940671 159.770834 460.148315 
C 160.563189 459.35596 161.008393 458.281144 161.008393 457.160585 
C 161.008393 456.040025 160.563189 454.96521 159.770834 454.172854 
C 158.978479 453.380499 157.903663 452.935296 156.783104 452.935296 
C 155.662544 452.935296 154.587729 453.380499 153.795373 454.172854 
C 153.003018 454.96521 152.557815 456.040025 152.557815 457.160585 
C 152.557815 458.281144 153.003018 459.35596 153.795373 460.148315 
C 154.587729 460.940671 155.662544 461.385874 156.783104 461.385874 
z
" clip-path="url(#pc403104666)" style="fill: #ff8d00; fill-opacity: 0.7; stroke: #995500; stroke-opacity: 0.7; stroke-width: 0.866426"/>
    <path d="M 156.783104 405.263983 
C 158.21883 405.263983 159.595946 404.693563 160.611158 403.678352 
C 161.62637 402.66314 162.19679 401.286024 162.19679 399.850297 
C 162.19679 398.414571 161.62637 397.037455 160.611158 396.022243 
C 159.595946 395.007031 158.21883 394.436611 156.783104 394.436611 
C 155.347377 394.436611 153.970261 395.007031 152.955049 396.022243 
C 151.939838 397.037455 151.369417 398.414571 151.369417 399.850297 
C 151.369417 401.286024 151.939838 402.66314 152.955049 403.678352 
C 153.970261 404.693563 155.347377 405.263983 156.783104 405.263983 
z
" clip-path="url(#pc403104666)" style="fill: #ff8d00; fill-opacity: 0.7; stroke: #995500; stroke-opacity: 0.7; stroke-width: 0.866426"/>
    <path d="M 637.690353 370.756039 
C 639.126471 370.756039 640.503962 370.185463 641.519451 369.169975 
C 642.534939 368.154486 643.105515 366.776995 643.105515 365.340877 
C 643.105515 363.904759 642.534939 362.527268 641.519451 361.511779 
C 640.503962 360.496291 639.126471 359.925715 637.690353 359.925715 
C 636.254235 359.925715 634.876744 360.496291 633.861255 361.511779 
C 632.845766 362.527268 632.275191 363.904759 632.275191 365.340877 
C 632.275191 366.776995 632.845766 368.154486 633.861255 369.169975 
C 634.876744 370.185463 636.254235 370.756039 637.690353 370.756039 
z
" clip-path="url(#pc403104666)" style="fill: #ff8d00; fill-opacity: 0.7; stroke: #995500; stroke-opacity: 0.7; stroke-width: 0.866426"/>
   </g>
   <g id="PathCollection_2">
    <path d="M 550.978622 347.819223 
C 553.195829 347.819223 555.322523 346.938317 556.890326 345.370515 
C 558.458128 343.802713 559.339033 341.676019 559.339033 339.458812 
C 559.339033 337.241605 558.458128 335.11491 556.890326 333.547108 
C 555.322523 331.979306 553.195829 331.0984 550.978622 331.0984 
C 548.761415 331.0984 546.63472 331.979306 545.066918 333.547108 
C 543.499116 335.11491 542.618211 337.241605 542.618211 339.458812 
C 542.618211 341.676019 543.499116 343.802713 545.066918 345.370515 
C 546.63472 346.938317 548.761415 347.819223 550.978622 347.819223 
z
" clip-path="url(#pc403104666)" style="fill: #13066d; fill-opacity: 0.7; stroke: #0b0441; stroke-opacity: 0.7; stroke-width: 0.843126"/>
    <path d="M 550.978622 332.065846 
C 556.208846 332.065846 561.225557 329.987856 564.923884 326.289529 
C 568.622211 322.591203 570.700201 317.574491 570.700201 312.344267 
C 570.700201 307.114043 568.622211 302.097332 564.923884 298.399005 
C 561.225557 294.700678 556.208846 292.622688 550.978622 292.622688 
C 545.748398 292.622688 540.731687 294.700678 537.03336 298.399005 
C 533.335033 302.097332 531.257043 307.114043 531.257043 312.344267 
C 531.257043 317.574491 533.335033 322.591203 537.03336 326.289529 
C 540.731687 329.987856 545.748398 332.065846 550.978622 332.065846 
z
" clip-path="url(#pc403104666)" style="fill: #13066d; fill-opacity: 0.7; stroke: #0b0441; stroke-opacity: 0.7; stroke-width: 0.843126"/>
    <path d="M 550.978622 353.403498 
C 554.349939 353.403498 557.583629 352.06406 559.96751 349.680179 
C 562.351391 347.296298 563.690829 344.062608 563.690829 340.691291 
C 563.690829 337.319974 562.351391 334.086284 559.96751 331.702403 
C 557.583629 329.318522 554.349939 327.979084 550.978622 327.979084 
C 547.607305 327.979084 544.373615 329.318522 541.989734 331.702403 
C 539.605853 334.086284 538.266415 337.319974 538.266415 340.691291 
C 538.266415 344.062608 539.605853 347.296298 541.989734 349.680179 
C 544.373615 352.06406 547.607305 353.403498 550.978622 353.403498 
z
" clip-path="url(#pc403104666)" style="fill: #13066d; fill-opacity: 0.7; stroke: #0b0441; stroke-opacity: 0.7; stroke-width: 0.843126"/>
    <path d="M 550.978622 376.803165 
C 552.38417 376.803165 553.732339 376.244735 554.726211 375.250863 
C 555.720084 374.256991 556.278514 372.908821 556.278514 371.503273 
C 556.278514 370.097726 555.720084 368.749556 554.726211 367.755684 
C 553.732339 366.761812 552.38417 366.203382 550.978622 366.203382 
C 549.573074 366.203382 548.224905 366.761812 547.231032 367.755684 
C 546.23716 368.749556 545.67873 370.097726 545.67873 371.503273 
C 545.67873 372.908821 546.23716 374.256991 547.231032 375.250863 
C 548.224905 376.244735 549.573074 376.803165 550.978622 376.803165 
z
" clip-path="url(#pc403104666)" style="fill: #13066d; fill-opacity: 0.7; stroke: #0b0441; stroke-opacity: 0.7; stroke-width: 0.843126"/>
    <path d="M 758.837811 265.659302 
C 766.558539 265.659302 773.964086 262.591824 779.423465 257.132445 
C 784.882845 251.673065 787.950323 244.267519 787.950323 236.54679 
C 787.950323 228.826062 784.882845 221.420515 779.423465 215.961136 
C 773.964086 210.501757 766.558539 207.434279 758.837811 207.434279 
C 751.117083 207.434279 743.711536 210.501757 738.252157 215.961136 
C 732.792777 221.420515 729.7253 228.826062 729.7253 236.54679 
C 729.7253 244.267519 732.792777 251.673065 738.252157 257.132445 
C 743.711536 262.591824 751.117083 265.659302 758.837811 265.659302 
z
" clip-path="url(#pc403104666)" style="fill: #13066d; fill-opacity: 0.7; stroke: #0b0441; stroke-opacity: 0.7; stroke-width: 0.843126"/>
    <path d="M 758.837811 238.098846 
C 761.047136 238.098846 763.166271 237.221071 764.728499 235.658843 
C 766.290728 234.096614 767.168502 231.977479 767.168502 229.768154 
C 767.168502 227.558829 766.290728 225.439695 764.728499 223.877466 
C 763.166271 222.315237 761.047136 221.437463 758.837811 221.437463 
C 756.628486 221.437463 754.509352 222.315237 752.947123 223.877466 
C 751.384894 225.439695 750.50712 227.558829 750.50712 229.768154 
C 750.50712 231.977479 751.384894 234.096614 752.947123 235.658843 
C 754.509352 237.221071 756.628486 238.098846 758.837811 238.098846 
z
" clip-path="url(#pc403104666)" style="fill: #13066d; fill-opacity: 0.7; stroke: #0b0441; stroke-opacity: 0.7; stroke-width: 0.843126"/>
    <path d="M 758.837811 246.987314 
C 763.567814 246.987314 768.104726 245.108064 771.449343 241.763447 
C 774.793961 238.418829 776.673211 233.881918 776.673211 229.151915 
C 776.673211 224.421911 774.793961 219.885 771.449343 216.540383 
C 768.104726 213.195765 763.567814 211.316515 758.837811 211.316515 
C 754.107808 211.316515 749.570896 213.195765 746.226279 216.540383 
C 742.881662 219.885 741.002411 224.421911 741.002411 229.151915 
C 741.002411 233.881918 742.881662 238.418829 746.226279 241.763447 
C 749.570896 245.108064 754.107808 246.987314 758.837811 246.987314 
z
" clip-path="url(#pc403104666)" style="fill: #13066d; fill-opacity: 0.7; stroke: #0b0441; stroke-opacity: 0.7; stroke-width: 0.843126"/>
    <path d="M 758.837811 228.905816 
C 762.204547 228.905816 765.433843 227.568197 767.814485 225.187556 
C 770.195126 222.806914 771.532745 219.577618 771.532745 216.210882 
C 771.532745 212.844146 770.195126 209.61485 767.814485 207.234208 
C 765.433843 204.853567 762.204547 203.515948 758.837811 203.515948 
C 755.471075 203.515948 752.241779 204.853567 749.861137 207.234208 
C 747.480496 209.61485 746.142877 212.844146 746.142877 216.210882 
C 746.142877 219.577618 747.480496 222.806914 749.861137 225.187556 
C 752.241779 227.568197 755.471075 228.905816 758.837811 228.905816 
z
" clip-path="url(#pc403104666)" style="fill: #13066d; fill-opacity: 0.7; stroke: #0b0441; stroke-opacity: 0.7; stroke-width: 0.843126"/>
    <path d="M 758.837811 301.584823 
C 760.233518 301.584823 761.572249 301.030302 762.559163 300.043388 
C 763.546077 299.056474 764.100597 297.717744 764.100597 296.322036 
C 764.100597 294.926329 763.546077 293.587599 762.559163 292.600684 
C 761.572249 291.61377 760.233518 291.05925 758.837811 291.05925 
C 757.442104 291.05925 756.103373 291.61377 755.116459 292.600684 
C 754.129545 293.587599 753.575025 294.926329 753.575025 296.322036 
C 753.575025 297.717744 754.129545 299.056474 755.116459 300.043388 
C 756.103373 301.030302 757.442104 301.584823 758.837811 301.584823 
z
" clip-path="url(#pc403104666)" style="fill: #13066d; fill-opacity: 0.7; stroke: #0b0441; stroke-opacity: 0.7; stroke-width: 0.843126"/>
    <path d="M 358.171083 535.766156 
C 360.386657 535.766156 362.511784 534.8859 364.078431 533.319253 
C 365.645078 531.752606 366.525335 529.627478 366.525335 527.411905 
C 366.525335 525.196331 365.645078 523.071204 364.078431 521.504557 
C 362.511784 519.93791 360.386657 519.057653 358.171083 519.057653 
C 355.95551 519.057653 353.830382 519.93791 352.263735 521.504557 
C 350.697088 523.071204 349.816832 525.196331 349.816832 527.411905 
C 349.816832 529.627478 350.697088 531.752606 352.263735 533.319253 
C 353.830382 534.8859 355.95551 535.766156 358.171083 535.766156 
z
" clip-path="url(#pc403104666)" style="fill: #13066d; fill-opacity: 0.7; stroke: #0b0441; stroke-opacity: 0.7; stroke-width: 0.843126"/>
    <path d="M 156.783104 540.060703 
C 158.993603 540.060703 161.113865 539.182462 162.676924 537.619402 
C 164.239983 536.056343 165.118224 533.936082 165.118224 531.725582 
C 165.118224 529.515082 164.239983 527.394821 162.676924 525.831762 
C 161.113865 524.268702 158.993603 523.390462 156.783104 523.390462 
C 154.572604 523.390462 152.452343 524.268702 150.889283 525.831762 
C 149.326224 527.394821 148.447983 529.515082 148.447983 531.725582 
C 148.447983 533.936082 149.326224 536.056343 150.889283 537.619402 
C 152.452343 539.182462 154.572604 540.060703 156.783104 540.060703 
z
" clip-path="url(#pc403104666)" style="fill: #13066d; fill-opacity: 0.7; stroke: #0b0441; stroke-opacity: 0.7; stroke-width: 0.843126"/>
    <path d="M 772.445176 315.749495 
C 774.655683 315.749495 776.77595 314.871252 778.339014 313.308188 
C 779.902078 311.745124 780.780322 309.624856 780.780322 307.41435 
C 780.780322 305.203844 779.902078 303.083576 778.339014 301.520512 
C 776.77595 299.957448 774.655683 299.079205 772.445176 299.079205 
C 770.23467 299.079205 768.114403 299.957448 766.551339 301.520512 
C 764.988274 303.083576 764.110031 305.203844 764.110031 307.41435 
C 764.110031 309.624856 764.988274 311.745124 766.551339 313.308188 
C 768.114403 314.871252 770.23467 315.749495 772.445176 315.749495 
z
" clip-path="url(#pc403104666)" style="fill: #13066d; fill-opacity: 0.7; stroke: #0b0441; stroke-opacity: 0.7; stroke-width: 0.843126"/>
    <path d="M 637.690353 427.288872 
C 639.900859 427.288872 642.021127 426.410628 643.584191 424.847564 
C 645.147255 423.2845 646.025498 421.164233 646.025498 418.953726 
C 646.025498 416.74322 645.147255 414.622953 643.584191 413.059889 
C 642.021127 411.496824 639.900859 410.618581 637.690353 410.618581 
C 635.479846 410.618581 633.359579 411.496824 631.796515 413.059889 
C 630.233451 414.622953 629.355207 416.74322 629.355207 418.953726 
C 629.355207 421.164233 630.233451 423.2845 631.796515 424.847564 
C 633.359579 426.410628 635.479846 427.288872 637.690353 427.288872 
z
" clip-path="url(#pc403104666)" style="fill: #13066d; fill-opacity: 0.7; stroke: #0b0441; stroke-opacity: 0.7; stroke-width: 0.843126"/>
    <path d="M 772.445176 371.368366 
C 777.475687 371.368366 782.300838 369.369723 785.857947 365.812615 
C 789.415055 362.255506 791.413698 357.430355 791.413698 352.399844 
C 791.413698 347.369334 789.415055 342.544182 785.857947 338.987074 
C 782.300838 335.429966 777.475687 333.431323 772.445176 333.431323 
C 767.414666 333.431323 762.589514 335.429966 759.032406 338.987074 
C 755.475298 342.544182 753.476655 347.369334 753.476655 352.399844 
C 753.476655 357.430355 755.475298 362.255506 759.032406 365.812615 
C 762.589514 369.369723 767.414666 371.368366 772.445176 371.368366 
z
" clip-path="url(#pc403104666)" style="fill: #13066d; fill-opacity: 0.7; stroke: #0b0441; stroke-opacity: 0.7; stroke-width: 0.843126"/>
    <path d="M 358.171083 506.042598 
C 362.473025 506.042598 366.59935 504.333418 369.641283 501.291485 
C 372.683215 498.249553 374.392395 494.123228 374.392395 489.821286 
C 374.392395 485.519344 372.683215 481.393019 369.641283 478.351087 
C 366.59935 475.309154 362.473025 473.599975 358.171083 473.599975 
C 353.869141 473.599975 349.742816 475.309154 346.700884 478.351087 
C 343.658952 481.393019 341.949772 485.519344 341.949772 489.821286 
C 341.949772 494.123228 343.658952 498.249553 346.700884 501.291485 
C 349.742816 504.333418 353.869141 506.042598 358.171083 506.042598 
z
" clip-path="url(#pc403104666)" style="fill: #13066d; fill-opacity: 0.7; stroke: #0b0441; stroke-opacity: 0.7; stroke-width: 0.843126"/>
    <path d="M 772.445176 314.994264 
C 776.743394 314.994264 780.866147 313.286564 783.905446 310.247265 
C 786.944745 307.207966 788.652445 303.085213 788.652445 298.786995 
C 788.652445 294.488777 786.944745 290.366024 783.905446 287.326725 
C 780.866147 284.287426 776.743394 282.579726 772.445176 282.579726 
C 768.146958 282.579726 764.024206 284.287426 760.984907 287.326725 
C 757.945608 290.366024 756.237907 294.488777 756.237907 298.786995 
C 756.237907 303.085213 757.945608 307.207966 760.984907 310.247265 
C 764.024206 313.286564 768.146958 314.994264 772.445176 314.994264 
z
" clip-path="url(#pc403104666)" style="fill: #13066d; fill-opacity: 0.7; stroke: #0b0441; stroke-opacity: 0.7; stroke-width: 0.843126"/>
    <path d="M 358.171083 423.654576 
C 361.542336 423.654576 364.775964 422.315163 367.1598 419.931327 
C 369.543635 417.547492 370.883048 414.313863 370.883048 410.942611 
C 370.883048 407.571359 369.543635 404.33773 367.1598 401.953895 
C 364.775964 399.570059 361.542336 398.230646 358.171083 398.230646 
C 354.799831 398.230646 351.566203 399.570059 349.182367 401.953895 
C 346.798532 404.33773 345.459119 407.571359 345.459119 410.942611 
C 345.459119 414.313863 346.798532 417.547492 349.182367 419.931327 
C 351.566203 422.315163 354.799831 423.654576 358.171083 423.654576 
z
" clip-path="url(#pc403104666)" style="fill: #13066d; fill-opacity: 0.7; stroke: #0b0441; stroke-opacity: 0.7; stroke-width: 0.843126"/>
    <path d="M 772.445176 451.369001 
C 775.81209 451.369001 779.041557 450.031312 781.422325 447.650544 
C 783.803093 445.269776 785.140782 442.040309 785.140782 438.673395 
C 785.140782 435.306481 783.803093 432.077014 781.422325 429.696247 
C 779.041557 427.315479 775.81209 425.97779 772.445176 425.97779 
C 769.078263 425.97779 765.848795 427.315479 763.468028 429.696247 
C 761.08726 432.077014 759.749571 435.306481 759.749571 438.673395 
C 759.749571 442.040309 761.08726 445.269776 763.468028 447.650544 
C 765.848795 450.031312 769.078263 451.369001 772.445176 451.369001 
z
" clip-path="url(#pc403104666)" style="fill: #13066d; fill-opacity: 0.7; stroke: #0b0441; stroke-opacity: 0.7; stroke-width: 0.843126"/>
    <path d="M 637.690353 361.398012 
C 641.057267 361.398012 644.286734 360.060323 646.667502 357.679555 
C 649.048269 355.298788 650.385958 352.06932 650.385958 348.702406 
C 650.385958 345.335493 649.048269 342.106025 646.667502 339.725258 
C 644.286734 337.34449 641.057267 336.006801 637.690353 336.006801 
C 634.323439 336.006801 631.093972 337.34449 628.713204 339.725258 
C 626.332437 342.106025 624.994747 345.335493 624.994747 348.702406 
C 624.994747 352.06932 626.332437 355.298788 628.713204 357.679555 
C 631.093972 360.060323 634.323439 361.398012 637.690353 361.398012 
z
" clip-path="url(#pc403104666)" style="fill: #13066d; fill-opacity: 0.7; stroke: #0b0441; stroke-opacity: 0.7; stroke-width: 0.843126"/>
    <path d="M 358.171083 445.802465 
C 359.571449 445.802465 360.914648 445.246094 361.904855 444.255886 
C 362.895063 443.265678 363.451434 441.92248 363.451434 440.522114 
C 363.451434 439.121749 362.895063 437.77855 361.904855 436.788342 
C 360.914648 435.798134 359.571449 435.241763 358.171083 435.241763 
C 356.770718 435.241763 355.427519 435.798134 354.437311 436.788342 
C 353.447103 437.77855 352.890732 439.121749 352.890732 440.522114 
C 352.890732 441.92248 353.447103 443.265678 354.437311 444.255886 
C 355.427519 445.246094 356.770718 445.802465 358.171083 445.802465 
z
" clip-path="url(#pc403104666)" style="fill: #13066d; fill-opacity: 0.7; stroke: #0b0441; stroke-opacity: 0.7; stroke-width: 0.843126"/>
    <path d="M 156.783104 482.764826 
C 158.180282 482.764826 159.520423 482.209721 160.508377 481.221767 
C 161.496332 480.233813 162.051436 478.893671 162.051436 477.496493 
C 162.051436 476.099315 161.496332 474.759173 160.508377 473.771219 
C 159.520423 472.783265 158.180282 472.22816 156.783104 472.22816 
C 155.385925 472.22816 154.045784 472.783265 153.05783 473.771219 
C 152.069876 474.759173 151.514771 476.099315 151.514771 477.496493 
C 151.514771 478.893671 152.069876 480.233813 153.05783 481.221767 
C 154.045784 482.209721 155.385925 482.764826 156.783104 482.764826 
z
" clip-path="url(#pc403104666)" style="fill: #13066d; fill-opacity: 0.7; stroke: #0b0441; stroke-opacity: 0.7; stroke-width: 0.843126"/>
    <path d="M 358.171083 446.33532 
C 359.059049 446.33532 359.910765 445.982528 360.538652 445.354641 
C 361.166539 444.726755 361.519331 443.875038 361.519331 442.987073 
C 361.519331 442.099107 361.166539 441.247391 360.538652 440.619504 
C 359.910765 439.991618 359.059049 439.638825 358.171083 439.638825 
C 357.283118 439.638825 356.431401 439.991618 355.803515 440.619504 
C 355.175628 441.247391 354.822836 442.099107 354.822836 442.987073 
C 354.822836 443.875038 355.175628 444.726755 355.803515 445.354641 
C 356.431401 445.982528 357.283118 446.33532 358.171083 446.33532 
z
" clip-path="url(#pc403104666)" style="fill: #13066d; fill-opacity: 0.7; stroke: #0b0441; stroke-opacity: 0.7; stroke-width: 0.843126"/>
   </g>
   <g id="line2d_13">
    <path d="M 126 108.368943 
L 907.2 108.368943 
" clip-path="url(#pc403104666)" style="fill: none; stroke-dasharray: 5.55,2.4; stroke-dashoffset: 0; stroke: #c44e52; stroke-width: 1.5"/>
   </g>
   <g id="line2d_14">
    <path d="M 156.783104 487.539671 
L 772.445176 338.287525 
L 772.445176 338.287525 
" clip-path="url(#pc403104666)" style="fill: none; stroke: #ff8d00; stroke-opacity: 0.9; stroke-width: 2; stroke-linecap: round"/>
   </g>
   <g id="line2d_15">
    <path d="M 156.783104 519.45105 
L 772.445176 289.385641 
L 772.445176 289.385641 
" clip-path="url(#pc403104666)" style="fill: none; stroke: #13066d; stroke-opacity: 0.9; stroke-width: 2; stroke-linecap: round"/>
   </g>
   <g id="line2d_16">
    <path d="M 126 108.368943 
L 907.2 108.368943 
" clip-path="url(#pc403104666)" style="fill: none; stroke-dasharray: 5.55,2.4; stroke-dashoffset: 0; stroke: #c44e52; stroke-width: 1.5"/>
   </g>
   <g id="patch_3">
    <path d="M 126 108.368943 
L 126 640.8 
" style="fill: none; stroke: #262626; stroke-width: 1.25; stroke-linejoin: miter; stroke-linecap: square"/>
   </g>
   <g id="patch_4">
    <path d="M 136.037731 650.8 
L 907.2 650.8 
" style="fill: none; stroke: #262626; stroke-width: 1.25; stroke-linejoin: miter; stroke-linecap: square"/>
   </g>
  </g>
 </g>
 <defs>
  <clipPath id="pc403104666">
   <rect x="126" y="86.4" width="781.2" height="554.4"/>
  </clipPath>
 </defs>
</svg>
