<?xml version="1.0" encoding="utf-8" standalone="no"?>
<!DOCTYPE svg PUBLIC "-//W3C//DTD SVG 1.1//EN"
  "http://www.w3.org/Graphics/SVG/1.1/DTD/svg11.dtd">
<svg xmlns:xlink="http://www.w3.org/1999/xlink" width="864pt" height="720pt" viewBox="0 0 864 720" xmlns="http://www.w3.org/2000/svg" version="1.1">
 <metadata>
  <rdf:RDF xmlns:dc="http://purl.org/dc/elements/1.1/" xmlns:cc="http://creativecommons.org/ns#" xmlns:rdf="http://www.w3.org/1999/02/22-rdf-syntax-ns#">
   <cc:Work>
    <dc:type rdf:resource="http://purl.org/dc/dcmitype/StillImage"/>
    <dc:date>2025-10-24T15:42:31.028927</dc:date>
    <dc:format>image/svg+xml</dc:format>
    <dc:creator>
     <cc:Agent>
      <dc:title>Matplotlib v3.9.4, https://matplotlib.org/</dc:title>
     </cc:Agent>
    </dc:creator>
   </cc:Work>
  </rdf:RDF>
 </metadata>
 <defs>
  <style type="text/css">*{stroke-linejoin: round; stroke-linecap: butt}</style>
 </defs>
 <g id="figure_1">
  <g id="patch_1">
   <path d="M 0 720 
L 864 720 
L 864 0 
L 0 0 
z
" style="fill: #ffffff"/>
  </g>
  <g id="axes_1">
   <g id="patch_2">
    <path d="M 108 640.8 
L 777.6 640.8 
L 777.6 86.4 
L 108 86.4 
z
" style="fill: #ffffff"/>
   </g>
   <g id="matplotlib.axis_1">
    <g id="xtick_1">
     <g id="line2d_1">
      <defs>
       <path id="m5168645ac8" d="M 0 0 
L 0 6 
" style="stroke: #262626; stroke-width: 1.25"/>
      </defs>
      <g>
       <use xlink:href="#m5168645ac8" x="116.60377" y="640.8" style="fill: #262626; stroke: #262626; stroke-width: 1.25"/>
      </g>
     </g>
    </g>
    <g id="xtick_2">
     <g id="line2d_2">
      <g>
       <use xlink:href="#m5168645ac8" x="281.852827" y="640.8" style="fill: #262626; stroke: #262626; stroke-width: 1.25"/>
      </g>
     </g>
    </g>
    <g id="xtick_3">
     <g id="line2d_3">
      <g>
       <use xlink:href="#m5168645ac8" x="447.101885" y="640.8" style="fill: #262626; stroke: #262626; stroke-width: 1.25"/>
      </g>
     </g>
    </g>
    <g id="xtick_4">
     <g id="line2d_4">
      <g>
       <use xlink:href="#m5168645ac8" x="612.350942" y="640.8" style="fill: #262626; stroke: #262626; stroke-width: 1.25"/>
      </g>
     </g>
    </g>
    <g id="xtick_5">
     <g id="line2d_5">
      <g>
       <use xlink:href="#m5168645ac8" x="777.6" y="640.8" style="fill: #262626; stroke: #262626; stroke-width: 1.25"/>
      </g>
     </g>
    </g>
    <g id="xtick_6"/>
    <g id="xtick_7"/>
    <g id="xtick_8"/>
    <g id="xtick_9"/>
    <g id="xtick_10"/>
    <g id="xtick_11"/>
    <g id="xtick_12"/>
    <g id="xtick_13"/>
    <g id="xtick_14"/>
    <g id="xtick_15"/>
    <g id="xtick_16"/>
    <g id="xtick_17"/>
    <g id="xtick_18"/>
    <g id="xtick_19"/>
    <g id="xtick_20"/>
    <g id="xtick_21"/>
    <g id="xtick_22"/>
    <g id="xtick_23"/>
    <g id="xtick_24"/>
    <g id="xtick_25"/>
    <g id="xtick_26"/>
    <g id="xtick_27"/>
    <g id="xtick_28"/>
    <g id="xtick_29"/>
    <g id="xtick_30"/>
    <g id="xtick_31"/>
    <g id="xtick_32"/>
    <g id="xtick_33"/>
    <g id="xtick_34"/>
    <g id="xtick_35"/>
    <g id="xtick_36"/>
    <g id="xtick_37"/>
    <g id="xtick_38"/>
   </g>
   <g id="matplotlib.axis_2">
    <g id="ytick_1">
     <g id="line2d_6">
      <defs>
       <path id="m079ae22384" d="M 0 0 
L -6 0 
" style="stroke: #262626; stroke-width: 1.25"/>
      </defs>
      <g>
       <use xlink:href="#m079ae22384" x="108" y="640.8" style="fill: #262626; stroke: #262626; stroke-width: 1.25"/>
      </g>
     </g>
     <g id="text_1">
      <text style="fill: #262626; font: 25px 'Arial', 'DejaVu Sans', 'Liberation Sans', 'Bitstream Vera Sans', sans-serif; text-anchor: end" x="98.5" y="649.747266" transform="rotate(-0 98.5 649.747266)">0.00</text>
     </g>
    </g>
    <g id="ytick_2">
     <g id="line2d_7">
      <g>
       <use xlink:href="#m079ae22384" x="108" y="502.2" style="fill: #262626; stroke: #262626; stroke-width: 1.25"/>
      </g>
     </g>
     <g id="text_2">
      <text style="fill: #262626; font: 25px 'Arial', 'DejaVu Sans', 'Liberation Sans', 'Bitstream Vera Sans', sans-serif; text-anchor: end" x="98.5" y="511.147266" transform="rotate(-0 98.5 511.147266)">0.25</text>
     </g>
    </g>
    <g id="ytick_3">
     <g id="line2d_8">
      <g>
       <use xlink:href="#m079ae22384" x="108" y="363.6" style="fill: #262626; stroke: #262626; stroke-width: 1.25"/>
      </g>
     </g>
     <g id="text_3">
      <text style="fill: #262626; font: 25px 'Arial', 'DejaVu Sans', 'Liberation Sans', 'Bitstream Vera Sans', sans-serif; text-anchor: end" x="98.5" y="372.547266" transform="rotate(-0 98.5 372.547266)">0.50</text>
     </g>
    </g>
    <g id="ytick_4">
     <g id="line2d_9">
      <g>
       <use xlink:href="#m079ae22384" x="108" y="225" style="fill: #262626; stroke: #262626; stroke-width: 1.25"/>
      </g>
     </g>
     <g id="text_4">
      <text style="fill: #262626; font: 25px 'Arial', 'DejaVu Sans', 'Liberation Sans', 'Bitstream Vera Sans', sans-serif; text-anchor: end" x="98.5" y="233.947266" transform="rotate(-0 98.5 233.947266)">0.75</text>
     </g>
    </g>
    <g id="ytick_5">
     <g id="line2d_10">
      <g>
       <use xlink:href="#m079ae22384" x="108" y="86.4" style="fill: #262626; stroke: #262626; stroke-width: 1.25"/>
      </g>
     </g>
     <g id="text_5">
      <text style="fill: #262626; font: 25px 'Arial', 'DejaVu Sans', 'Liberation Sans', 'Bitstream Vera Sans', sans-serif; text-anchor: end" x="98.5" y="95.347266" transform="rotate(-0 98.5 95.347266)">1.00</text>
     </g>
    </g>
   </g>
   <g id="PathCollection_1">
    <path d="M 662.095866 218.787819 
C 664.32144 218.787819 666.45616 217.903589 668.029879 216.32987 
C 669.603598 214.756151 670.487828 212.621431 670.487828 210.395856 
C 670.487828 208.170282 669.603598 206.035561 668.029879 204.461843 
C 666.45616 202.888124 664.32144 202.003894 662.095866 202.003894 
C 659.870291 202.003894 657.735571 202.888124 656.161852 204.461843 
C 654.588133 206.035561 653.703903 208.170282 653.703903 210.395856 
C 653.703903 212.621431 654.588133 214.756151 656.161852 216.32987 
C 657.735571 217.903589 659.870291 218.787819 662.095866 218.787819 
z
" clip-path="url(#pf9577ccda6)" style="fill: #ff8d00; fill-opacity: 0.7; stroke: #995500; stroke-opacity: 0.7; stroke-width: 0.866426"/>
    <path d="M 134.385517 462.653954 
C 136.611092 462.653954 138.745812 461.769724 140.319531 460.196005 
C 141.89325 458.622287 142.77748 456.487566 142.77748 454.261992 
C 142.77748 452.036417 141.89325 449.901697 140.319531 448.327978 
C 138.745812 446.754259 136.611092 445.870029 134.385517 445.870029 
C 132.159943 445.870029 130.025223 446.754259 128.451504 448.327978 
C 126.877785 449.901697 125.993555 452.036417 125.993555 454.261992 
C 125.993555 456.487566 126.877785 458.622287 128.451504 460.196005 
C 130.025223 461.769724 132.159943 462.653954 134.385517 462.653954 
z
" clip-path="url(#pf9577ccda6)" style="fill: #ff8d00; fill-opacity: 0.7; stroke: #995500; stroke-opacity: 0.7; stroke-width: 0.866426"/>
    <path d="M 307.003786 202.758419 
C 309.22936 202.758419 311.364081 201.874189 312.937799 200.30047 
C 314.511518 198.726751 315.395748 196.592031 315.395748 194.366456 
C 315.395748 192.140882 314.511518 190.006161 312.937799 188.432443 
C 311.364081 186.858724 309.22936 185.974494 307.003786 185.974494 
C 304.778211 185.974494 302.643491 186.858724 301.069772 188.432443 
C 299.496053 190.006161 298.611823 192.140882 298.611823 194.366456 
C 298.611823 196.592031 299.496053 198.726751 301.069772 200.30047 
C 302.643491 201.874189 304.778211 202.758419 307.003786 202.758419 
z
" clip-path="url(#pf9577ccda6)" style="fill: #ff8d00; fill-opacity: 0.7; stroke: #995500; stroke-opacity: 0.7; stroke-width: 0.866426"/>
    <path d="M 134.385517 540.45699 
C 137.297929 540.45699 140.091447 539.299877 142.150833 537.240492 
C 144.210219 535.181106 145.367332 532.387587 145.367332 529.475176 
C 145.367332 526.562765 144.210219 523.769246 142.150833 521.709861 
C 140.091447 519.650475 137.297929 518.493362 134.385517 518.493362 
C 131.473106 518.493362 128.679588 519.650475 126.620202 521.709861 
C 124.560816 523.769246 123.403703 526.562765 123.403703 529.475176 
C 123.403703 532.387587 124.560816 535.181106 126.620202 537.240492 
C 128.679588 539.299877 131.473106 540.45699 134.385517 540.45699 
z
" clip-path="url(#pf9577ccda6)" style="fill: #ff8d00; fill-opacity: 0.7; stroke: #995500; stroke-opacity: 0.7; stroke-width: 0.866426"/>
    <path d="M 307.003786 244.083921 
C 309.916197 244.083921 312.709715 242.926808 314.769101 240.867422 
C 316.828487 238.808036 317.9856 236.014518 317.9856 233.102107 
C 317.9856 230.189695 316.828487 227.396177 314.769101 225.336791 
C 312.709715 223.277405 309.916197 222.120292 307.003786 222.120292 
C 304.091375 222.120292 301.297856 223.277405 299.23847 225.336791 
C 297.179085 227.396177 296.021971 230.189695 296.021971 233.102107 
C 296.021971 236.014518 297.179085 238.808036 299.23847 240.867422 
C 301.297856 242.926808 304.091375 244.083921 307.003786 244.083921 
z
" clip-path="url(#pf9577ccda6)" style="fill: #ff8d00; fill-opacity: 0.7; stroke: #995500; stroke-opacity: 0.7; stroke-width: 0.866426"/>
    <path d="M 662.095866 210.568921 
C 665.008277 210.568921 667.801795 209.411808 669.861181 207.352422 
C 671.920567 205.293037 673.07768 202.499518 673.07768 199.587107 
C 673.07768 196.674696 671.920567 193.881177 669.861181 191.821791 
C 667.801795 189.762406 665.008277 188.605292 662.095866 188.605292 
C 659.183454 188.605292 656.389936 189.762406 654.33055 191.821791 
C 652.271164 193.881177 651.114051 196.674696 651.114051 199.587107 
C 651.114051 202.499518 652.271164 205.293037 654.33055 207.352422 
C 656.389936 209.411808 659.183454 210.568921 662.095866 210.568921 
z
" clip-path="url(#pf9577ccda6)" style="fill: #ff8d00; fill-opacity: 0.7; stroke: #995500; stroke-opacity: 0.7; stroke-width: 0.866426"/>
    <path d="M 134.385517 472.27882 
C 136.225149 472.27882 137.989682 471.547926 139.290498 470.24711 
C 140.591314 468.946294 141.322208 467.181761 141.322208 465.342129 
C 141.322208 463.502497 140.591314 461.737965 139.290498 460.437148 
C 137.989682 459.136332 136.225149 458.405439 134.385517 458.405439 
C 132.545886 458.405439 130.781353 459.136332 129.480537 460.437148 
C 128.17972 461.737965 127.448827 463.502497 127.448827 465.342129 
C 127.448827 467.181761 128.17972 468.946294 129.480537 470.24711 
C 130.781353 471.547926 132.545886 472.27882 134.385517 472.27882 
z
" clip-path="url(#pf9577ccda6)" style="fill: #ff8d00; fill-opacity: 0.7; stroke: #995500; stroke-opacity: 0.7; stroke-width: 0.866426"/>
    <path d="M 307.003786 220.421981 
C 308.843418 220.421981 310.60795 219.691088 311.908767 218.390272 
C 313.209583 217.089456 313.940476 215.324923 313.940476 213.485291 
C 313.940476 211.645659 313.209583 209.881126 311.908767 208.58031 
C 310.60795 207.279494 308.843418 206.548601 307.003786 206.548601 
C 305.164154 206.548601 303.399621 207.279494 302.098805 208.58031 
C 300.797989 209.881126 300.067095 211.645659 300.067095 213.485291 
C 300.067095 215.324923 300.797989 217.089456 302.098805 218.390272 
C 303.399621 219.691088 305.164154 220.421981 307.003786 220.421981 
z
" clip-path="url(#pf9577ccda6)" style="fill: #ff8d00; fill-opacity: 0.7; stroke: #995500; stroke-opacity: 0.7; stroke-width: 0.866426"/>
    <path d="M 134.385517 451.763199 
C 135.904122 451.763199 137.360732 451.159851 138.434548 450.086036 
C 139.508363 449.01222 140.111711 447.55561 140.111711 446.037005 
C 140.111711 444.518401 139.508363 443.06179 138.434548 441.987975 
C 137.360732 440.91416 135.904122 440.310812 134.385517 440.310812 
C 132.866913 440.310812 131.410302 440.91416 130.336487 441.987975 
C 129.262672 443.06179 128.659324 444.518401 128.659324 446.037005 
C 128.659324 447.55561 129.262672 449.01222 130.336487 450.086036 
C 131.410302 451.159851 132.866913 451.763199 134.385517 451.763199 
z
" clip-path="url(#pf9577ccda6)" style="fill: #ff8d00; fill-opacity: 0.7; stroke: #995500; stroke-opacity: 0.7; stroke-width: 0.866426"/>
    <path d="M 307.003786 403.179079 
C 308.52239 403.179079 309.979001 402.575731 311.052816 401.501915 
C 312.126632 400.4281 312.729979 398.971489 312.729979 397.452885 
C 312.729979 395.934281 312.126632 394.47767 311.052816 393.403855 
C 309.979001 392.330039 308.52239 391.726691 307.003786 391.726691 
C 305.485181 391.726691 304.028571 392.330039 302.954755 393.403855 
C 301.88094 394.47767 301.277592 395.934281 301.277592 397.452885 
C 301.277592 398.971489 301.88094 400.4281 302.954755 401.501915 
C 304.028571 402.575731 305.485181 403.179079 307.003786 403.179079 
z
" clip-path="url(#pf9577ccda6)" style="fill: #ff8d00; fill-opacity: 0.7; stroke: #995500; stroke-opacity: 0.7; stroke-width: 0.866426"/>
    <path d="M 662.095866 151.041136 
C 666.831113 151.041136 671.373055 149.159802 674.721381 145.811476 
C 678.069707 142.46315 679.951041 137.921208 679.951041 133.185961 
C 679.951041 128.450713 678.069707 123.908771 674.721381 120.560445 
C 671.373055 117.212119 666.831113 115.330785 662.095866 115.330785 
C 657.360618 115.330785 652.818676 117.212119 649.47035 120.560445 
C 646.122024 123.908771 644.24069 128.450713 644.24069 133.185961 
C 644.24069 137.921208 646.122024 142.46315 649.47035 145.811476 
C 652.818676 149.159802 657.360618 151.041136 662.095866 151.041136 
z
" clip-path="url(#pf9577ccda6)" style="fill: #ff8d00; fill-opacity: 0.7; stroke: #995500; stroke-opacity: 0.7; stroke-width: 0.866426"/>
    <path d="M 134.385517 502.07205 
C 136.266976 502.07205 138.071629 501.324538 139.402021 499.994146 
C 140.732413 498.663754 141.479924 496.859101 141.479924 494.977643 
C 141.479924 493.096184 140.732413 491.291531 139.402021 489.961139 
C 138.071629 488.630747 136.266976 487.883235 134.385517 487.883235 
C 132.504059 487.883235 130.699406 488.630747 129.369014 489.961139 
C 128.038622 491.291531 127.29111 493.096184 127.29111 494.977643 
C 127.29111 496.859101 128.038622 498.663754 129.369014 499.994146 
C 130.699406 501.324538 132.504059 502.07205 134.385517 502.07205 
z
" clip-path="url(#pf9577ccda6)" style="fill: #ff8d00; fill-opacity: 0.7; stroke: #995500; stroke-opacity: 0.7; stroke-width: 0.866426"/>
    <path d="M 650.432409 179.73048 
C 652.658001 179.73048 654.792738 178.846243 656.366469 177.272512 
C 657.9402 175.698781 658.824437 173.564044 658.824437 171.338452 
C 658.824437 169.11286 657.9402 166.978123 656.366469 165.404392 
C 654.792738 163.830661 652.658001 162.946424 650.432409 162.946424 
C 648.206818 162.946424 646.072081 163.830661 644.49835 165.404392 
C 642.924619 166.978123 642.040382 169.11286 642.040382 171.338452 
C 642.040382 173.564044 642.924619 175.698781 644.49835 177.272512 
C 646.072081 178.846243 648.206818 179.73048 650.432409 179.73048 
z
" clip-path="url(#pf9577ccda6)" style="fill: #ff8d00; fill-opacity: 0.7; stroke: #995500; stroke-opacity: 0.7; stroke-width: 0.866426"/>
    <path d="M 650.432409 195.605969 
C 653.344836 195.605969 656.138369 194.448849 658.197765 192.389453 
C 660.257162 190.330056 661.414281 187.536523 661.414281 184.624097 
C 661.414281 181.711671 660.257162 178.918137 658.197765 176.858741 
C 656.138369 174.799344 653.344836 173.642225 650.432409 173.642225 
C 647.519983 173.642225 644.72645 174.799344 642.667054 176.858741 
C 640.607657 178.918137 639.450538 181.711671 639.450538 184.624097 
C 639.450538 187.536523 640.607657 190.330056 642.667054 192.389453 
C 644.72645 194.448849 647.519983 195.605969 650.432409 195.605969 
z
" clip-path="url(#pf9577ccda6)" style="fill: #ff8d00; fill-opacity: 0.7; stroke: #995500; stroke-opacity: 0.7; stroke-width: 0.866426"/>
    <path d="M 650.432409 192.393666 
C 652.27206 192.393666 654.036612 191.662765 655.337441 190.361935 
C 656.638271 189.061106 657.369172 187.296555 657.369172 185.456904 
C 657.369172 183.617253 656.638271 181.852702 655.337441 180.551872 
C 654.036612 179.251043 652.27206 178.520141 650.432409 178.520141 
C 648.592759 178.520141 646.828207 179.251043 645.527378 180.551872 
C 644.226548 181.852702 643.495647 183.617253 643.495647 185.456904 
C 643.495647 187.296555 644.226548 189.061106 645.527378 190.361935 
C 646.828207 191.662765 648.592759 192.393666 650.432409 192.393666 
z
" clip-path="url(#pf9577ccda6)" style="fill: #ff8d00; fill-opacity: 0.7; stroke: #995500; stroke-opacity: 0.7; stroke-width: 0.866426"/>
    <path d="M 650.432409 239.839222 
C 651.951042 239.839222 653.407679 239.235863 654.481514 238.162028 
C 655.55535 237.088192 656.158709 235.631555 656.158709 234.112923 
C 656.158709 232.59429 655.55535 231.137653 654.481514 230.063818 
C 653.407679 228.989983 651.951042 228.386624 650.432409 228.386624 
C 648.913777 228.386624 647.45714 228.989983 646.383305 230.063818 
C 645.309469 231.137653 644.70611 232.59429 644.70611 234.112923 
C 644.70611 235.631555 645.309469 237.088192 646.383305 238.162028 
C 647.45714 239.235863 648.913777 239.839222 650.432409 239.839222 
z
" clip-path="url(#pf9577ccda6)" style="fill: #ff8d00; fill-opacity: 0.7; stroke: #995500; stroke-opacity: 0.7; stroke-width: 0.866426"/>
    <path d="M 134.385517 483.404733 
C 136.134544 483.404733 137.812171 482.709837 139.048919 481.473088 
C 140.285668 480.23634 140.980564 478.558713 140.980564 476.809686 
C 140.980564 475.06066 140.285668 473.383033 139.048919 472.146285 
C 137.812171 470.909536 136.134544 470.21464 134.385517 470.21464 
C 132.636491 470.21464 130.958864 470.909536 129.722116 472.146285 
C 128.485367 473.383033 127.790471 475.06066 127.790471 476.809686 
C 127.790471 478.558713 128.485367 480.23634 129.722116 481.473088 
C 130.958864 482.709837 132.636491 483.404733 134.385517 483.404733 
z
" clip-path="url(#pf9577ccda6)" style="fill: #ff8d00; fill-opacity: 0.7; stroke: #995500; stroke-opacity: 0.7; stroke-width: 0.866426"/>
    <path d="M 546.591731 497.133148 
C 548.341021 497.133148 550.018901 496.438148 551.255836 495.201213 
C 552.492771 493.964278 553.187772 492.286398 553.187772 490.537108 
C 553.187772 488.787817 552.492771 487.109938 551.255836 485.873003 
C 550.018901 484.636067 548.341021 483.941067 546.591731 483.941067 
C 544.842441 483.941067 543.164561 484.636067 541.927626 485.873003 
C 540.690691 487.109938 539.99569 488.787817 539.99569 490.537108 
C 539.99569 492.286398 540.690691 493.964278 541.927626 495.201213 
C 543.164561 496.438148 544.842441 497.133148 546.591731 497.133148 
z
" clip-path="url(#pf9577ccda6)" style="fill: #ff8d00; fill-opacity: 0.7; stroke: #995500; stroke-opacity: 0.7; stroke-width: 0.866426"/>
    <path d="M 134.385517 591.45083 
C 135.506077 591.45083 136.580892 591.005627 137.373248 590.213272 
C 138.165603 589.420917 138.610806 588.346101 138.610806 587.225541 
C 138.610806 586.104982 138.165603 585.030166 137.373248 584.237811 
C 136.580892 583.445456 135.506077 583.000252 134.385517 583.000252 
C 133.264958 583.000252 132.190142 583.445456 131.397787 584.237811 
C 130.605432 585.030166 130.160228 586.104982 130.160228 587.225541 
C 130.160228 588.346101 130.605432 589.420917 131.397787 590.213272 
C 132.190142 591.005627 133.264958 591.45083 134.385517 591.45083 
z
" clip-path="url(#pf9577ccda6)" style="fill: #ff8d00; fill-opacity: 0.7; stroke: #995500; stroke-opacity: 0.7; stroke-width: 0.866426"/>
    <path d="M 134.385517 516.226458 
C 135.821244 516.226458 137.19836 515.656038 138.213572 514.640826 
C 139.228783 513.625614 139.799204 512.248498 139.799204 510.812772 
C 139.799204 509.377046 139.228783 507.99993 138.213572 506.984718 
C 137.19836 505.969506 135.821244 505.399086 134.385517 505.399086 
C 132.949791 505.399086 131.572675 505.969506 130.557463 506.984718 
C 129.542251 507.99993 128.971831 509.377046 128.971831 510.812772 
C 128.971831 512.248498 129.542251 513.625614 130.557463 514.640826 
C 131.572675 515.656038 132.949791 516.226458 134.385517 516.226458 
z
" clip-path="url(#pf9577ccda6)" style="fill: #ff8d00; fill-opacity: 0.7; stroke: #995500; stroke-opacity: 0.7; stroke-width: 0.866426"/>
    <path d="M 546.591731 576.972726 
C 548.027849 576.972726 549.40534 576.402151 550.420829 575.386662 
C 551.436317 574.371173 552.006893 572.993682 552.006893 571.557564 
C 552.006893 570.121447 551.436317 568.743955 550.420829 567.728466 
C 549.40534 566.712978 548.027849 566.142402 546.591731 566.142402 
C 545.155613 566.142402 543.778122 566.712978 542.762633 567.728466 
C 541.747145 568.743955 541.176569 570.121447 541.176569 571.557564 
C 541.176569 572.993682 541.747145 574.371173 542.762633 575.386662 
C 543.778122 576.402151 545.155613 576.972726 546.591731 576.972726 
z
" clip-path="url(#pf9577ccda6)" style="fill: #ff8d00; fill-opacity: 0.7; stroke: #995500; stroke-opacity: 0.7; stroke-width: 0.866426"/>
   </g>
   <g id="PathCollection_2">
    <path d="M 472.26739 185.21112 
C 474.484597 185.21112 476.611292 184.330215 478.179094 182.762412 
C 479.746896 181.19461 480.627802 179.067916 480.627802 176.850709 
C 480.627802 174.633502 479.746896 172.506807 478.179094 170.939005 
C 476.611292 169.371203 474.484597 168.490297 472.26739 168.490297 
C 470.050183 168.490297 467.923489 169.371203 466.355687 170.939005 
C 464.787885 172.506807 463.906979 174.633502 463.906979 176.850709 
C 463.906979 179.067916 464.787885 181.19461 466.355687 182.762412 
C 467.923489 184.330215 470.050183 185.21112 472.26739 185.21112 
z
" clip-path="url(#pf9577ccda6)" style="fill: #13066d; fill-opacity: 0.7; stroke: #0b0441; stroke-opacity: 0.7; stroke-width: 0.843126"/>
    <path d="M 472.26739 294.715557 
C 477.497614 294.715557 482.514326 292.637567 486.212652 288.93924 
C 489.910979 285.240914 491.988969 280.224202 491.988969 274.993978 
C 491.988969 269.763754 489.910979 264.747043 486.212652 261.048716 
C 482.514326 257.350389 477.497614 255.272399 472.26739 255.272399 
C 467.037166 255.272399 462.020455 257.350389 458.322128 261.048716 
C 454.623801 264.747043 452.545811 269.763754 452.545811 274.993978 
C 452.545811 280.224202 454.623801 285.240914 458.322128 288.93924 
C 462.020455 292.637567 467.037166 294.715557 472.26739 294.715557 
z
" clip-path="url(#pf9577ccda6)" style="fill: #13066d; fill-opacity: 0.7; stroke: #0b0441; stroke-opacity: 0.7; stroke-width: 0.843126"/>
    <path d="M 472.26739 198.50653 
C 475.638707 198.50653 478.872397 197.167092 481.256278 194.783211 
C 483.640159 192.39933 484.979597 189.16564 484.979597 185.794323 
C 484.979597 182.423007 483.640159 179.189317 481.256278 176.805436 
C 478.872397 174.421555 475.638707 173.082117 472.26739 173.082117 
C 468.896074 173.082117 465.662383 174.421555 463.278503 176.805436 
C 460.894622 179.189317 459.555183 182.423007 459.555183 185.794323 
C 459.555183 189.16564 460.894622 192.39933 463.278503 194.783211 
C 465.662383 197.167092 468.896074 198.50653 472.26739 198.50653 
z
" clip-path="url(#pf9577ccda6)" style="fill: #13066d; fill-opacity: 0.7; stroke: #0b0441; stroke-opacity: 0.7; stroke-width: 0.843126"/>
    <path d="M 472.26739 242.35393 
C 473.672938 242.35393 475.021107 241.7955 476.01498 240.801628 
C 477.008852 239.807755 477.567282 238.459586 477.567282 237.054038 
C 477.567282 235.64849 477.008852 234.300321 476.01498 233.306448 
C 475.021107 232.312576 473.672938 231.754146 472.26739 231.754146 
C 470.861842 231.754146 469.513673 232.312576 468.519801 233.306448 
C 467.525928 234.300321 466.967498 235.64849 466.967498 237.054038 
C 466.967498 238.459586 467.525928 239.807755 468.519801 240.801628 
C 469.513673 241.7955 470.861842 242.35393 472.26739 242.35393 
z
" clip-path="url(#pf9577ccda6)" style="fill: #13066d; fill-opacity: 0.7; stroke: #0b0441; stroke-opacity: 0.7; stroke-width: 0.843126"/>
    <path d="M 650.432409 307.61473 
C 658.153138 307.61473 665.558684 304.547252 671.018064 299.087872 
C 676.477443 293.628493 679.544921 286.222946 679.544921 278.502218 
C 679.544921 270.78149 676.477443 263.375943 671.018064 257.916564 
C 665.558684 252.457185 658.153138 249.389707 650.432409 249.389707 
C 642.711681 249.389707 635.306135 252.457185 629.846755 257.916564 
C 624.387376 263.375943 621.319898 270.78149 621.319898 278.502218 
C 621.319898 286.222946 624.387376 293.628493 629.846755 299.087872 
C 635.306135 304.547252 642.711681 307.61473 650.432409 307.61473 
z
" clip-path="url(#pf9577ccda6)" style="fill: #13066d; fill-opacity: 0.7; stroke: #0b0441; stroke-opacity: 0.7; stroke-width: 0.843126"/>
    <path d="M 650.432409 286.83291 
C 652.641735 286.83291 654.760869 285.955135 656.323098 284.392907 
C 657.885327 282.830678 658.763101 280.711543 658.763101 278.502218 
C 658.763101 276.292893 657.885327 274.173759 656.323098 272.61153 
C 654.760869 271.049301 652.641735 270.171527 650.432409 270.171527 
C 648.223084 270.171527 646.10395 271.049301 644.541721 272.61153 
C 642.979492 274.173759 642.101718 276.292893 642.101718 278.502218 
C 642.101718 280.711543 642.979492 282.830678 644.541721 284.392907 
C 646.10395 285.955135 648.223084 286.83291 650.432409 286.83291 
z
" clip-path="url(#pf9577ccda6)" style="fill: #13066d; fill-opacity: 0.7; stroke: #0b0441; stroke-opacity: 0.7; stroke-width: 0.843126"/>
    <path d="M 650.432409 181.049508 
C 655.162413 181.049508 659.699324 179.170258 663.043942 175.82564 
C 666.388559 172.481023 668.267809 167.944112 668.267809 163.214108 
C 668.267809 158.484105 666.388559 153.947194 663.043942 150.602576 
C 659.699324 147.257959 655.162413 145.378709 650.432409 145.378709 
C 645.702406 145.378709 641.165495 147.257959 637.820877 150.602576 
C 634.47626 153.947194 632.59701 158.484105 632.59701 163.214108 
C 632.59701 167.944112 634.47626 172.481023 637.820877 175.82564 
C 641.165495 179.170258 645.702406 181.049508 650.432409 181.049508 
z
" clip-path="url(#pf9577ccda6)" style="fill: #13066d; fill-opacity: 0.7; stroke: #0b0441; stroke-opacity: 0.7; stroke-width: 0.843126"/>
    <path d="M 650.432409 183.240826 
C 653.799145 183.240826 657.028441 181.903207 659.409083 179.522566 
C 661.789725 177.141924 663.127343 173.912628 663.127343 170.545892 
C 663.127343 167.179156 661.789725 163.94986 659.409083 161.569218 
C 657.028441 159.188577 653.799145 157.850958 650.432409 157.850958 
C 647.065674 157.850958 643.836378 159.188577 641.455736 161.569218 
C 639.075094 163.94986 637.737476 167.179156 637.737476 170.545892 
C 637.737476 173.912628 639.075094 177.141924 641.455736 179.522566 
C 643.836378 181.903207 647.065674 183.240826 650.432409 183.240826 
z
" clip-path="url(#pf9577ccda6)" style="fill: #13066d; fill-opacity: 0.7; stroke: #0b0441; stroke-opacity: 0.7; stroke-width: 0.843126"/>
    <path d="M 650.432409 212.087662 
C 651.828117 212.087662 653.166847 211.533142 654.153761 210.546228 
C 655.140675 209.559314 655.695196 208.220583 655.695196 206.824876 
C 655.695196 205.429169 655.140675 204.090438 654.153761 203.103524 
C 653.166847 202.11661 651.828117 201.56209 650.432409 201.56209 
C 649.036702 201.56209 647.697972 202.11661 646.711058 203.103524 
C 645.724144 204.090438 645.169623 205.429169 645.169623 206.824876 
C 645.169623 208.220583 645.724144 209.559314 646.711058 210.546228 
C 647.697972 211.533142 649.036702 212.087662 650.432409 212.087662 
z
" clip-path="url(#pf9577ccda6)" style="fill: #13066d; fill-opacity: 0.7; stroke: #0b0441; stroke-opacity: 0.7; stroke-width: 0.843126"/>
    <path d="M 307.003786 155.157326 
C 309.219359 155.157326 311.344487 154.277069 312.911134 152.710422 
C 314.477781 151.143775 315.358037 149.018648 315.358037 146.803074 
C 315.358037 144.587501 314.477781 142.462373 312.911134 140.895726 
C 311.344487 139.329079 309.219359 138.448823 307.003786 138.448823 
C 304.788212 138.448823 302.663085 139.329079 301.096438 140.895726 
C 299.529791 142.462373 298.649534 144.587501 298.649534 146.803074 
C 298.649534 149.018648 299.529791 151.143775 301.096438 152.710422 
C 302.663085 154.277069 304.788212 155.157326 307.003786 155.157326 
z
" clip-path="url(#pf9577ccda6)" style="fill: #13066d; fill-opacity: 0.7; stroke: #0b0441; stroke-opacity: 0.7; stroke-width: 0.843126"/>
    <path d="M 134.385517 335.97891 
C 136.596017 335.97891 138.716278 335.100669 140.279338 333.537609 
C 141.842397 331.97455 142.720638 329.854289 142.720638 327.643789 
C 142.720638 325.433289 141.842397 323.313028 140.279338 321.749969 
C 138.716278 320.186909 136.596017 319.308668 134.385517 319.308668 
C 132.175018 319.308668 130.054757 320.186909 128.491697 321.749969 
C 126.928638 323.313028 126.050397 325.433289 126.050397 327.643789 
C 126.050397 329.854289 126.928638 331.97455 128.491697 333.537609 
C 130.054757 335.100669 132.175018 335.97891 134.385517 335.97891 
z
" clip-path="url(#pf9577ccda6)" style="fill: #13066d; fill-opacity: 0.7; stroke: #0b0441; stroke-opacity: 0.7; stroke-width: 0.843126"/>
    <path d="M 662.095866 213.775259 
C 664.306372 213.775259 666.426639 212.897016 667.989703 211.333952 
C 669.552767 209.770888 670.431011 207.65062 670.431011 205.440114 
C 670.431011 203.229608 669.552767 201.10934 667.989703 199.546276 
C 666.426639 197.983212 664.306372 197.104969 662.095866 197.104969 
C 659.885359 197.104969 657.765092 197.983212 656.202028 199.546276 
C 654.638964 201.10934 653.76072 203.229608 653.76072 205.440114 
C 653.76072 207.65062 654.638964 209.770888 656.202028 211.333952 
C 657.765092 212.897016 659.885359 213.775259 662.095866 213.775259 
z
" clip-path="url(#pf9577ccda6)" style="fill: #13066d; fill-opacity: 0.7; stroke: #0b0441; stroke-opacity: 0.7; stroke-width: 0.843126"/>
    <path d="M 546.591731 352.204734 
C 548.802237 352.204734 550.922505 351.32649 552.485569 349.763426 
C 554.048633 348.200362 554.926876 346.080095 554.926876 343.869588 
C 554.926876 341.659082 554.048633 339.538814 552.485569 337.97575 
C 550.922505 336.412686 548.802237 335.534443 546.591731 335.534443 
C 544.381225 335.534443 542.260957 336.412686 540.697893 337.97575 
C 539.134829 339.538814 538.256586 341.659082 538.256586 343.869588 
C 538.256586 346.080095 539.134829 348.200362 540.697893 349.763426 
C 542.260957 351.32649 544.381225 352.204734 546.591731 352.204734 
z
" clip-path="url(#pf9577ccda6)" style="fill: #13066d; fill-opacity: 0.7; stroke: #0b0441; stroke-opacity: 0.7; stroke-width: 0.843126"/>
    <path d="M 662.095866 218.535244 
C 667.126376 218.535244 671.951528 216.536601 675.508636 212.979492 
C 679.065744 209.422384 681.064387 204.597233 681.064387 199.566722 
C 681.064387 194.536211 679.065744 189.71106 675.508636 186.153952 
C 671.951528 182.596844 667.126376 180.5982 662.095866 180.5982 
C 657.065355 180.5982 652.240203 182.596844 648.683095 186.153952 
C 645.125987 189.71106 643.127344 194.536211 643.127344 199.566722 
C 643.127344 204.597233 645.125987 209.422384 648.683095 212.979492 
C 652.240203 216.536601 657.065355 218.535244 662.095866 218.535244 
z
" clip-path="url(#pf9577ccda6)" style="fill: #13066d; fill-opacity: 0.7; stroke: #0b0441; stroke-opacity: 0.7; stroke-width: 0.843126"/>
    <path d="M 307.003786 562.644993 
C 311.305728 562.644993 315.432053 560.935813 318.473985 557.893881 
C 321.515918 554.851949 323.225097 550.725624 323.225097 546.423682 
C 323.225097 542.12174 321.515918 537.995415 318.473985 534.953482 
C 315.432053 531.91155 311.305728 530.20237 307.003786 530.20237 
C 302.701844 530.20237 298.575519 531.91155 295.533586 534.953482 
C 292.491654 537.995415 290.782474 542.12174 290.782474 546.423682 
C 290.782474 550.725624 292.491654 554.851949 295.533586 557.893881 
C 298.575519 560.935813 302.701844 562.644993 307.003786 562.644993 
z
" clip-path="url(#pf9577ccda6)" style="fill: #13066d; fill-opacity: 0.7; stroke: #0b0441; stroke-opacity: 0.7; stroke-width: 0.843126"/>
    <path d="M 662.095866 205.500855 
C 666.394083 205.500855 670.516836 203.793155 673.556135 200.753856 
C 676.595434 197.714557 678.303135 193.591804 678.303135 189.293586 
C 678.303135 184.995368 676.595434 180.872615 673.556135 177.833316 
C 670.516836 174.794017 666.394083 173.086317 662.095866 173.086317 
C 657.797648 173.086317 653.674895 174.794017 650.635596 177.833316 
C 647.596297 180.872615 645.888597 184.995368 645.888597 189.293586 
C 645.888597 193.591804 647.596297 197.714557 650.635596 200.753856 
C 653.674895 203.793155 657.797648 205.500855 662.095866 205.500855 
z
" clip-path="url(#pf9577ccda6)" style="fill: #13066d; fill-opacity: 0.7; stroke: #0b0441; stroke-opacity: 0.7; stroke-width: 0.843126"/>
    <path d="M 307.003786 246.531956 
C 310.375038 246.531956 313.608667 245.192543 315.992502 242.808707 
C 318.376338 240.424872 319.71575 237.191244 319.71575 233.819991 
C 319.71575 230.448739 318.376338 227.21511 315.992502 224.831275 
C 313.608667 222.447439 310.375038 221.108027 307.003786 221.108027 
C 303.632533 221.108027 300.398905 222.447439 298.015069 224.831275 
C 295.631234 227.21511 294.291821 230.448739 294.291821 233.819991 
C 294.291821 237.191244 295.631234 240.424872 298.015069 242.808707 
C 300.398905 245.192543 303.632533 246.531956 307.003786 246.531956 
z
" clip-path="url(#pf9577ccda6)" style="fill: #13066d; fill-opacity: 0.7; stroke: #0b0441; stroke-opacity: 0.7; stroke-width: 0.843126"/>
    <path d="M 662.095866 171.217861 
C 665.462779 171.217861 668.692247 169.880171 671.073014 167.499404 
C 673.453782 165.118636 674.791471 161.889169 674.791471 158.522255 
C 674.791471 155.155341 673.453782 151.925874 671.073014 149.545106 
C 668.692247 147.164339 665.462779 145.82665 662.095866 145.82665 
C 658.728952 145.82665 655.499484 147.164339 653.118717 149.545106 
C 650.737949 151.925874 649.40026 155.155341 649.40026 158.522255 
C 649.40026 161.889169 650.737949 165.118636 653.118717 167.499404 
C 655.499484 169.880171 658.728952 171.217861 662.095866 171.217861 
z
" clip-path="url(#pf9577ccda6)" style="fill: #13066d; fill-opacity: 0.7; stroke: #0b0441; stroke-opacity: 0.7; stroke-width: 0.843126"/>
    <path d="M 546.591731 273.78892 
C 549.958645 273.78892 553.188112 272.45123 555.56888 270.070463 
C 557.949647 267.689695 559.287336 264.460228 559.287336 261.093314 
C 559.287336 257.7264 557.949647 254.496933 555.56888 252.116165 
C 553.188112 249.735398 549.958645 248.397709 546.591731 248.397709 
C 543.224817 248.397709 539.99535 249.735398 537.614582 252.116165 
C 535.233815 254.496933 533.896126 257.7264 533.896126 261.093314 
C 533.896126 264.460228 535.233815 267.689695 537.614582 270.070463 
C 539.99535 272.45123 543.224817 273.78892 546.591731 273.78892 
z
" clip-path="url(#pf9577ccda6)" style="fill: #13066d; fill-opacity: 0.7; stroke: #0b0441; stroke-opacity: 0.7; stroke-width: 0.843126"/>
    <path d="M 307.003786 230.722619 
C 308.404151 230.722619 309.74735 230.166248 310.737558 229.17604 
C 311.727766 228.185832 312.284137 226.842634 312.284137 225.442268 
C 312.284137 224.041903 311.727766 222.698704 310.737558 221.708496 
C 309.74735 220.718288 308.404151 220.161917 307.003786 220.161917 
C 305.60342 220.161917 304.260222 220.718288 303.270014 221.708496 
C 302.279806 222.698704 301.723435 224.041903 301.723435 225.442268 
C 301.723435 226.842634 302.279806 228.185832 303.270014 229.17604 
C 304.260222 230.166248 305.60342 230.722619 307.003786 230.722619 
z
" clip-path="url(#pf9577ccda6)" style="fill: #13066d; fill-opacity: 0.7; stroke: #0b0441; stroke-opacity: 0.7; stroke-width: 0.843126"/>
    <path d="M 134.385517 413.170874 
C 135.782696 413.170874 137.122837 412.61577 138.110791 411.627815 
C 139.098745 410.639861 139.65385 409.29972 139.65385 407.902542 
C 139.65385 406.505364 139.098745 405.165222 138.110791 404.177268 
C 137.122837 403.189314 135.782696 402.634209 134.385517 402.634209 
C 132.988339 402.634209 131.648198 403.189314 130.660244 404.177268 
C 129.67229 405.165222 129.117185 406.505364 129.117185 407.902542 
C 129.117185 409.29972 129.67229 410.639861 130.660244 411.627815 
C 131.648198 412.61577 132.988339 413.170874 134.385517 413.170874 
z
" clip-path="url(#pf9577ccda6)" style="fill: #13066d; fill-opacity: 0.7; stroke: #0b0441; stroke-opacity: 0.7; stroke-width: 0.843126"/>
    <path d="M 307.003786 402.377206 
C 307.891751 402.377206 308.743468 402.024413 309.371354 401.396527 
C 309.999241 400.76864 310.352033 399.916924 310.352033 399.028958 
C 310.352033 398.140992 309.999241 397.289276 309.371354 396.661389 
C 308.743468 396.033503 307.891751 395.68071 307.003786 395.68071 
C 306.11582 395.68071 305.264104 396.033503 304.636217 396.661389 
C 304.008331 397.289276 303.655538 398.140992 303.655538 399.028958 
C 303.655538 399.916924 304.008331 400.76864 304.636217 401.396527 
C 305.264104 402.024413 306.11582 402.377206 307.003786 402.377206 
z
" clip-path="url(#pf9577ccda6)" style="fill: #13066d; fill-opacity: 0.7; stroke: #0b0441; stroke-opacity: 0.7; stroke-width: 0.843126"/>
   </g>
   <g id="line2d_11">
    <path d="M 134.385517 466.854299 
L 662.095866 219.488801 
L 662.095866 219.488801 
" clip-path="url(#pf9577ccda6)" style="fill: none; stroke: #ff8d00; stroke-opacity: 0.9; stroke-width: 2; stroke-linecap: round"/>
   </g>
   <g id="line2d_12">
    <path d="M 134.385517 358.04486 
L 662.095866 203.771616 
L 662.095866 203.771616 
" clip-path="url(#pf9577ccda6)" style="fill: none; stroke: #13066d; stroke-opacity: 0.9; stroke-width: 2; stroke-linecap: round"/>
   </g>
   <g id="line2d_13">
    <path d="M 108 271.0152 
L 777.6 271.0152 
" clip-path="url(#pf9577ccda6)" style="fill: none; stroke-dasharray: 5.55,2.4; stroke-dashoffset: 0; stroke: #c44e52; stroke-width: 1.5"/>
   </g>
   <g id="line2d_14">
    <path d="M 108 91.944 
L 777.6 91.944 
" clip-path="url(#pf9577ccda6)" style="fill: none; stroke-dasharray: 5.55,2.4; stroke-dashoffset: 0; stroke: #68c3d4; stroke-width: 1.5"/>
   </g>
   <g id="patch_3">
    <path d="M 108 640.8 
L 108 86.4 
" style="fill: none; stroke: #262626; stroke-width: 1.25; stroke-linejoin: miter; stroke-linecap: square"/>
   </g>
   <g id="patch_4">
    <path d="M 116.60377 640.8 
L 777.6 640.8 
" style="fill: none; stroke: #262626; stroke-width: 1.25; stroke-linejoin: miter; stroke-linecap: square"/>
   </g>
  </g>
 </g>
 <defs>
  <clipPath id="pf9577ccda6">
   <rect x="108" y="86.4" width="669.6" height="554.4"/>
  </clipPath>
 </defs>
</svg>
