<?xml version="1.0" encoding="utf-8" standalone="no"?>
<!DOCTYPE svg PUBLIC "-//W3C//DTD SVG 1.1//EN"
  "http://www.w3.org/Graphics/SVG/1.1/DTD/svg11.dtd">
<svg xmlns:xlink="http://www.w3.org/1999/xlink" width="864pt" height="720pt" viewBox="0 0 864 720" xmlns="http://www.w3.org/2000/svg" version="1.1">
 <metadata>
  <rdf:RDF xmlns:dc="http://purl.org/dc/elements/1.1/" xmlns:cc="http://creativecommons.org/ns#" xmlns:rdf="http://www.w3.org/1999/02/22-rdf-syntax-ns#">
   <cc:Work>
    <dc:type rdf:resource="http://purl.org/dc/dcmitype/StillImage"/>
    <dc:date>2025-10-24T15:41:49.427811</dc:date>
    <dc:format>image/svg+xml</dc:format>
    <dc:creator>
     <cc:Agent>
      <dc:title>Matplotlib v3.9.4, https://matplotlib.org/</dc:title>
     </cc:Agent>
    </dc:creator>
   </cc:Work>
  </rdf:RDF>
 </metadata>
 <defs>
  <style type="text/css">*{stroke-linejoin: round; stroke-linecap: butt}</style>
 </defs>
 <g id="figure_1">
  <g id="patch_1">
   <path d="M 0 720 
L 864 720 
L 864 0 
L 0 0 
z
" style="fill: #ffffff"/>
  </g>
  <g id="axes_1">
   <g id="patch_2">
    <path d="M 108 640.8 
L 777.6 640.8 
L 777.6 86.4 
L 108 86.4 
z
" style="fill: #ffffff"/>
   </g>
   <g id="matplotlib.axis_1">
    <g id="xtick_1">
     <g id="line2d_1">
      <defs>
       <path id="m22421daf38" d="M 0 0 
L 0 6 
" style="stroke: #262626; stroke-width: 1.25"/>
      </defs>
      <g>
       <use xlink:href="#m22421daf38" x="116.60377" y="640.8" style="fill: #262626; stroke: #262626; stroke-width: 1.25"/>
      </g>
     </g>
    </g>
    <g id="xtick_2">
     <g id="line2d_2">
      <g>
       <use xlink:href="#m22421daf38" x="281.852827" y="640.8" style="fill: #262626; stroke: #262626; stroke-width: 1.25"/>
      </g>
     </g>
    </g>
    <g id="xtick_3">
     <g id="line2d_3">
      <g>
       <use xlink:href="#m22421daf38" x="447.101885" y="640.8" style="fill: #262626; stroke: #262626; stroke-width: 1.25"/>
      </g>
     </g>
    </g>
    <g id="xtick_4">
     <g id="line2d_4">
      <g>
       <use xlink:href="#m22421daf38" x="612.350942" y="640.8" style="fill: #262626; stroke: #262626; stroke-width: 1.25"/>
      </g>
     </g>
    </g>
    <g id="xtick_5">
     <g id="line2d_5">
      <g>
       <use xlink:href="#m22421daf38" x="777.6" y="640.8" style="fill: #262626; stroke: #262626; stroke-width: 1.25"/>
      </g>
     </g>
    </g>
    <g id="xtick_6"/>
    <g id="xtick_7"/>
    <g id="xtick_8"/>
    <g id="xtick_9"/>
    <g id="xtick_10"/>
    <g id="xtick_11"/>
    <g id="xtick_12"/>
    <g id="xtick_13"/>
    <g id="xtick_14"/>
    <g id="xtick_15"/>
    <g id="xtick_16"/>
    <g id="xtick_17"/>
    <g id="xtick_18"/>
    <g id="xtick_19"/>
    <g id="xtick_20"/>
    <g id="xtick_21"/>
    <g id="xtick_22"/>
    <g id="xtick_23"/>
    <g id="xtick_24"/>
    <g id="xtick_25"/>
    <g id="xtick_26"/>
    <g id="xtick_27"/>
    <g id="xtick_28"/>
    <g id="xtick_29"/>
    <g id="xtick_30"/>
    <g id="xtick_31"/>
    <g id="xtick_32"/>
    <g id="xtick_33"/>
    <g id="xtick_34"/>
    <g id="xtick_35"/>
    <g id="xtick_36"/>
    <g id="xtick_37"/>
    <g id="xtick_38"/>
   </g>
   <g id="matplotlib.axis_2">
    <g id="ytick_1">
     <g id="line2d_6">
      <defs>
       <path id="m19a8773a35" d="M 0 0 
L -6 0 
" style="stroke: #262626; stroke-width: 1.25"/>
      </defs>
      <g>
       <use xlink:href="#m19a8773a35" x="108" y="640.8" style="fill: #262626; stroke: #262626; stroke-width: 1.25"/>
      </g>
     </g>
     <g id="text_1">
      <text style="fill: #262626; font: 25px 'Arial', 'DejaVu Sans', 'Liberation Sans', 'Bitstream Vera Sans', sans-serif; text-anchor: end" x="98.5" y="649.747266" transform="rotate(-0 98.5 649.747266)">0.00</text>
     </g>
    </g>
    <g id="ytick_2">
     <g id="line2d_7">
      <g>
       <use xlink:href="#m19a8773a35" x="108" y="502.2" style="fill: #262626; stroke: #262626; stroke-width: 1.25"/>
      </g>
     </g>
     <g id="text_2">
      <text style="fill: #262626; font: 25px 'Arial', 'DejaVu Sans', 'Liberation Sans', 'Bitstream Vera Sans', sans-serif; text-anchor: end" x="98.5" y="511.147266" transform="rotate(-0 98.5 511.147266)">0.25</text>
     </g>
    </g>
    <g id="ytick_3">
     <g id="line2d_8">
      <g>
       <use xlink:href="#m19a8773a35" x="108" y="363.6" style="fill: #262626; stroke: #262626; stroke-width: 1.25"/>
      </g>
     </g>
     <g id="text_3">
      <text style="fill: #262626; font: 25px 'Arial', 'DejaVu Sans', 'Liberation Sans', 'Bitstream Vera Sans', sans-serif; text-anchor: end" x="98.5" y="372.547266" transform="rotate(-0 98.5 372.547266)">0.50</text>
     </g>
    </g>
    <g id="ytick_4">
     <g id="line2d_9">
      <g>
       <use xlink:href="#m19a8773a35" x="108" y="225" style="fill: #262626; stroke: #262626; stroke-width: 1.25"/>
      </g>
     </g>
     <g id="text_4">
      <text style="fill: #262626; font: 25px 'Arial', 'DejaVu Sans', 'Liberation Sans', 'Bitstream Vera Sans', sans-serif; text-anchor: end" x="98.5" y="233.947266" transform="rotate(-0 98.5 233.947266)">0.75</text>
     </g>
    </g>
    <g id="ytick_5">
     <g id="line2d_10">
      <g>
       <use xlink:href="#m19a8773a35" x="108" y="86.4" style="fill: #262626; stroke: #262626; stroke-width: 1.25"/>
      </g>
     </g>
     <g id="text_5">
      <text style="fill: #262626; font: 25px 'Arial', 'DejaVu Sans', 'Liberation Sans', 'Bitstream Vera Sans', sans-serif; text-anchor: end" x="98.5" y="95.347266" transform="rotate(-0 98.5 95.347266)">1.00</text>
     </g>
    </g>
   </g>
   <g id="PathCollection_1">
    <path d="M 662.095866 218.781822 
C 664.32144 218.781822 666.45616 217.897592 668.029879 216.323873 
C 669.603598 214.750155 670.487828 212.615434 670.487828 210.38986 
C 670.487828 208.164285 669.603598 206.029565 668.029879 204.455846 
C 666.45616 202.882127 664.32144 201.997897 662.095866 201.997897 
C 659.870291 201.997897 657.735571 202.882127 656.161852 204.455846 
C 654.588133 206.029565 653.703903 208.164285 653.703903 210.38986 
C 653.703903 212.615434 654.588133 214.750155 656.161852 216.323873 
C 657.735571 217.897592 659.870291 218.781822 662.095866 218.781822 
z
" clip-path="url(#pe9952614e4)" style="fill: #ff8d00; fill-opacity: 0.7; stroke: #995500; stroke-opacity: 0.7; stroke-width: 0.866426"/>
    <path d="M 134.385517 462.178817 
C 136.611092 462.178817 138.745812 461.294587 140.319531 459.720868 
C 141.89325 458.147149 142.77748 456.012429 142.77748 453.786855 
C 142.77748 451.56128 141.89325 449.42656 140.319531 447.852841 
C 138.745812 446.279122 136.611092 445.394892 134.385517 445.394892 
C 132.159943 445.394892 130.025223 446.279122 128.451504 447.852841 
C 126.877785 449.42656 125.993555 451.56128 125.993555 453.786855 
C 125.993555 456.012429 126.877785 458.147149 128.451504 459.720868 
C 130.025223 461.294587 132.159943 462.178817 134.385517 462.178817 
z
" clip-path="url(#pe9952614e4)" style="fill: #ff8d00; fill-opacity: 0.7; stroke: #995500; stroke-opacity: 0.7; stroke-width: 0.866426"/>
    <path d="M 307.003786 202.729416 
C 309.22936 202.729416 311.364081 201.845185 312.937799 200.271467 
C 314.511518 198.697748 315.395748 196.563027 315.395748 194.337453 
C 315.395748 192.111879 314.511518 189.977158 312.937799 188.403439 
C 311.364081 186.829721 309.22936 185.94549 307.003786 185.94549 
C 304.778211 185.94549 302.643491 186.829721 301.069772 188.403439 
C 299.496053 189.977158 298.611823 192.111879 298.611823 194.337453 
C 298.611823 196.563027 299.496053 198.697748 301.069772 200.271467 
C 302.643491 201.845185 304.778211 202.729416 307.003786 202.729416 
z
" clip-path="url(#pe9952614e4)" style="fill: #ff8d00; fill-opacity: 0.7; stroke: #995500; stroke-opacity: 0.7; stroke-width: 0.866426"/>
    <path d="M 134.385517 540.450201 
C 137.297929 540.450201 140.091447 539.293088 142.150833 537.233702 
C 144.210219 535.174317 145.367332 532.380798 145.367332 529.468387 
C 145.367332 526.555976 144.210219 523.762457 142.150833 521.703071 
C 140.091447 519.643686 137.297929 518.486572 134.385517 518.486572 
C 131.473106 518.486572 128.679588 519.643686 126.620202 521.703071 
C 124.560816 523.762457 123.403703 526.555976 123.403703 529.468387 
C 123.403703 532.380798 124.560816 535.174317 126.620202 537.233702 
C 128.679588 539.293088 131.473106 540.450201 134.385517 540.450201 
z
" clip-path="url(#pe9952614e4)" style="fill: #ff8d00; fill-opacity: 0.7; stroke: #995500; stroke-opacity: 0.7; stroke-width: 0.866426"/>
    <path d="M 307.003786 244.101999 
C 309.916197 244.101999 312.709715 242.944885 314.769101 240.8855 
C 316.828487 238.826114 317.9856 236.032595 317.9856 233.120184 
C 317.9856 230.207773 316.828487 227.414254 314.769101 225.354869 
C 312.709715 223.295483 309.916197 222.13837 307.003786 222.13837 
C 304.091375 222.13837 301.297856 223.295483 299.23847 225.354869 
C 297.179085 227.414254 296.021971 230.207773 296.021971 233.120184 
C 296.021971 236.032595 297.179085 238.826114 299.23847 240.8855 
C 301.297856 242.944885 304.091375 244.101999 307.003786 244.101999 
z
" clip-path="url(#pe9952614e4)" style="fill: #ff8d00; fill-opacity: 0.7; stroke: #995500; stroke-opacity: 0.7; stroke-width: 0.866426"/>
    <path d="M 662.095866 210.571404 
C 665.008277 210.571404 667.801795 209.41429 669.861181 207.354905 
C 671.920567 205.295519 673.07768 202.502001 673.07768 199.589589 
C 673.07768 196.677178 671.920567 193.88366 669.861181 191.824274 
C 667.801795 189.764888 665.008277 188.607775 662.095866 188.607775 
C 659.183454 188.607775 656.389936 189.764888 654.33055 191.824274 
C 652.271164 193.88366 651.114051 196.677178 651.114051 199.589589 
C 651.114051 202.502001 652.271164 205.295519 654.33055 207.354905 
C 656.389936 209.41429 659.183454 210.571404 662.095866 210.571404 
z
" clip-path="url(#pe9952614e4)" style="fill: #ff8d00; fill-opacity: 0.7; stroke: #995500; stroke-opacity: 0.7; stroke-width: 0.866426"/>
    <path d="M 134.385517 472.158704 
C 136.225149 472.158704 137.989682 471.427811 139.290498 470.126995 
C 140.591314 468.826179 141.322208 467.061646 141.322208 465.222014 
C 141.322208 463.382382 140.591314 461.617849 139.290498 460.317033 
C 137.989682 459.016217 136.225149 458.285324 134.385517 458.285324 
C 132.545886 458.285324 130.781353 459.016217 129.480537 460.317033 
C 128.17972 461.617849 127.448827 463.382382 127.448827 465.222014 
C 127.448827 467.061646 128.17972 468.826179 129.480537 470.126995 
C 130.781353 471.427811 132.545886 472.158704 134.385517 472.158704 
z
" clip-path="url(#pe9952614e4)" style="fill: #ff8d00; fill-opacity: 0.7; stroke: #995500; stroke-opacity: 0.7; stroke-width: 0.866426"/>
    <path d="M 307.003786 220.455004 
C 308.843418 220.455004 310.60795 219.72411 311.908767 218.423294 
C 313.209583 217.122478 313.940476 215.357945 313.940476 213.518313 
C 313.940476 211.678682 313.209583 209.914149 311.908767 208.613333 
C 310.60795 207.312516 308.843418 206.581623 307.003786 206.581623 
C 305.164154 206.581623 303.399621 207.312516 302.098805 208.613333 
C 300.797989 209.914149 300.067095 211.678682 300.067095 213.518313 
C 300.067095 215.357945 300.797989 217.122478 302.098805 218.423294 
C 303.399621 219.72411 305.164154 220.455004 307.003786 220.455004 
z
" clip-path="url(#pe9952614e4)" style="fill: #ff8d00; fill-opacity: 0.7; stroke: #995500; stroke-opacity: 0.7; stroke-width: 0.866426"/>
    <path d="M 134.385517 451.749626 
C 135.904122 451.749626 137.360732 451.146278 138.434548 450.072462 
C 139.508363 448.998647 140.111711 447.542036 140.111711 446.023432 
C 140.111711 444.504828 139.508363 443.048217 138.434548 441.974402 
C 137.360732 440.900586 135.904122 440.297238 134.385517 440.297238 
C 132.866913 440.297238 131.410302 440.900586 130.336487 441.974402 
C 129.262672 443.048217 128.659324 444.504828 128.659324 446.023432 
C 128.659324 447.542036 129.262672 448.998647 130.336487 450.072462 
C 131.410302 451.146278 132.866913 451.749626 134.385517 451.749626 
z
" clip-path="url(#pe9952614e4)" style="fill: #ff8d00; fill-opacity: 0.7; stroke: #995500; stroke-opacity: 0.7; stroke-width: 0.866426"/>
    <path d="M 307.003786 403.127402 
C 308.52239 403.127402 309.979001 402.524054 311.052816 401.450239 
C 312.126632 400.376424 312.729979 398.919813 312.729979 397.401209 
C 312.729979 395.882604 312.126632 394.425994 311.052816 393.352178 
C 309.979001 392.278363 308.52239 391.675015 307.003786 391.675015 
C 305.485181 391.675015 304.028571 392.278363 302.954755 393.352178 
C 301.88094 394.425994 301.277592 395.882604 301.277592 397.401209 
C 301.277592 398.919813 301.88094 400.376424 302.954755 401.450239 
C 304.028571 402.524054 305.485181 403.127402 307.003786 403.127402 
z
" clip-path="url(#pe9952614e4)" style="fill: #ff8d00; fill-opacity: 0.7; stroke: #995500; stroke-opacity: 0.7; stroke-width: 0.866426"/>
    <path d="M 662.095866 151.045195 
C 666.831113 151.045195 671.373055 149.163861 674.721381 145.815535 
C 678.069707 142.46721 679.951041 137.925268 679.951041 133.19002 
C 679.951041 128.454772 678.069707 123.91283 674.721381 120.564504 
C 671.373055 117.216178 666.831113 115.334844 662.095866 115.334844 
C 657.360618 115.334844 652.818676 117.216178 649.47035 120.564504 
C 646.122024 123.91283 644.24069 128.454772 644.24069 133.19002 
C 644.24069 137.925268 646.122024 142.46721 649.47035 145.815535 
C 652.818676 149.163861 657.360618 151.045195 662.095866 151.045195 
z
" clip-path="url(#pe9952614e4)" style="fill: #ff8d00; fill-opacity: 0.7; stroke: #995500; stroke-opacity: 0.7; stroke-width: 0.866426"/>
    <path d="M 134.385517 500.798304 
C 136.266976 500.798304 138.071629 500.050792 139.402021 498.7204 
C 140.732413 497.390008 141.479924 495.585355 141.479924 493.703897 
C 141.479924 491.822438 140.732413 490.017786 139.402021 488.687393 
C 138.071629 487.357001 136.266976 486.60949 134.385517 486.60949 
C 132.504059 486.60949 130.699406 487.357001 129.369014 488.687393 
C 128.038622 490.017786 127.29111 491.822438 127.29111 493.703897 
C 127.29111 495.585355 128.038622 497.390008 129.369014 498.7204 
C 130.699406 500.050792 132.504059 500.798304 134.385517 500.798304 
z
" clip-path="url(#pe9952614e4)" style="fill: #ff8d00; fill-opacity: 0.7; stroke: #995500; stroke-opacity: 0.7; stroke-width: 0.866426"/>
    <path d="M 650.432409 179.751801 
C 652.658001 179.751801 654.792738 178.867564 656.366469 177.293833 
C 657.9402 175.720102 658.824437 173.585365 658.824437 171.359773 
C 658.824437 169.134181 657.9402 166.999444 656.366469 165.425713 
C 654.792738 163.851982 652.658001 162.967745 650.432409 162.967745 
C 648.206818 162.967745 646.072081 163.851982 644.49835 165.425713 
C 642.924619 166.999444 642.040382 169.134181 642.040382 171.359773 
C 642.040382 173.585365 642.924619 175.720102 644.49835 177.293833 
C 646.072081 178.867564 648.206818 179.751801 650.432409 179.751801 
z
" clip-path="url(#pe9952614e4)" style="fill: #ff8d00; fill-opacity: 0.7; stroke: #995500; stroke-opacity: 0.7; stroke-width: 0.866426"/>
    <path d="M 650.432409 195.600838 
C 653.344836 195.600838 656.138369 194.443719 658.197765 192.384323 
C 660.257162 190.324926 661.414281 187.531393 661.414281 184.618967 
C 661.414281 181.70654 660.257162 178.913007 658.197765 176.853611 
C 656.138369 174.794214 653.344836 173.637095 650.432409 173.637095 
C 647.519983 173.637095 644.72645 174.794214 642.667054 176.853611 
C 640.607657 178.913007 639.450538 181.70654 639.450538 184.618967 
C 639.450538 187.531393 640.607657 190.324926 642.667054 192.384323 
C 644.72645 194.443719 647.519983 195.600838 650.432409 195.600838 
z
" clip-path="url(#pe9952614e4)" style="fill: #ff8d00; fill-opacity: 0.7; stroke: #995500; stroke-opacity: 0.7; stroke-width: 0.866426"/>
    <path d="M 650.432409 192.391122 
C 652.27206 192.391122 654.036612 191.660221 655.337441 190.359392 
C 656.638271 189.058562 657.369172 187.294011 657.369172 185.45436 
C 657.369172 183.614709 656.638271 181.850158 655.337441 180.549329 
C 654.036612 179.248499 652.27206 178.517598 650.432409 178.517598 
C 648.592759 178.517598 646.828207 179.248499 645.527378 180.549329 
C 644.226548 181.850158 643.495647 183.614709 643.495647 185.45436 
C 643.495647 187.294011 644.226548 189.058562 645.527378 190.359392 
C 646.828207 191.660221 648.592759 192.391122 650.432409 192.391122 
z
" clip-path="url(#pe9952614e4)" style="fill: #ff8d00; fill-opacity: 0.7; stroke: #995500; stroke-opacity: 0.7; stroke-width: 0.866426"/>
    <path d="M 650.432409 239.831945 
C 651.951042 239.831945 653.407679 239.228586 654.481514 238.15475 
C 655.55535 237.080915 656.158709 235.624278 656.158709 234.105646 
C 656.158709 232.587013 655.55535 231.130376 654.481514 230.056541 
C 653.407679 228.982706 651.951042 228.379347 650.432409 228.379347 
C 648.913777 228.379347 647.45714 228.982706 646.383305 230.056541 
C 645.309469 231.130376 644.70611 232.587013 644.70611 234.105646 
C 644.70611 235.624278 645.309469 237.080915 646.383305 238.15475 
C 647.45714 239.228586 648.913777 239.831945 650.432409 239.831945 
z
" clip-path="url(#pe9952614e4)" style="fill: #ff8d00; fill-opacity: 0.7; stroke: #995500; stroke-opacity: 0.7; stroke-width: 0.866426"/>
    <path d="M 134.385517 483.080014 
C 136.134544 483.080014 137.812171 482.385118 139.048919 481.14837 
C 140.285668 479.911621 140.980564 478.233995 140.980564 476.484968 
C 140.980564 474.735941 140.285668 473.058315 139.048919 471.821566 
C 137.812171 470.584817 136.134544 469.889922 134.385517 469.889922 
C 132.636491 469.889922 130.958864 470.584817 129.722116 471.821566 
C 128.485367 473.058315 127.790471 474.735941 127.790471 476.484968 
C 127.790471 478.233995 128.485367 479.911621 129.722116 481.14837 
C 130.958864 482.385118 132.636491 483.080014 134.385517 483.080014 
z
" clip-path="url(#pe9952614e4)" style="fill: #ff8d00; fill-opacity: 0.7; stroke: #995500; stroke-opacity: 0.7; stroke-width: 0.866426"/>
    <path d="M 546.591731 496.859707 
C 548.341021 496.859707 550.018901 496.164706 551.255836 494.927771 
C 552.492771 493.690836 553.187772 492.012957 553.187772 490.263666 
C 553.187772 488.514376 552.492771 486.836496 551.255836 485.599561 
C 550.018901 484.362626 548.341021 483.667625 546.591731 483.667625 
C 544.842441 483.667625 543.164561 484.362626 541.927626 485.599561 
C 540.690691 486.836496 539.99569 488.514376 539.99569 490.263666 
C 539.99569 492.012957 540.690691 493.690836 541.927626 494.927771 
C 543.164561 496.164706 544.842441 496.859707 546.591731 496.859707 
z
" clip-path="url(#pe9952614e4)" style="fill: #ff8d00; fill-opacity: 0.7; stroke: #995500; stroke-opacity: 0.7; stroke-width: 0.866426"/>
    <path d="M 134.385517 591.249787 
C 135.506077 591.249787 136.580892 590.804584 137.373248 590.012229 
C 138.165603 589.219873 138.610806 588.145058 138.610806 587.024498 
C 138.610806 585.903939 138.165603 584.829123 137.373248 584.036768 
C 136.580892 583.244412 135.506077 582.799209 134.385517 582.799209 
C 133.264958 582.799209 132.190142 583.244412 131.397787 584.036768 
C 130.605432 584.829123 130.160228 585.903939 130.160228 587.024498 
C 130.160228 588.145058 130.605432 589.219873 131.397787 590.012229 
C 132.190142 590.804584 133.264958 591.249787 134.385517 591.249787 
z
" clip-path="url(#pe9952614e4)" style="fill: #ff8d00; fill-opacity: 0.7; stroke: #995500; stroke-opacity: 0.7; stroke-width: 0.866426"/>
    <path d="M 134.385517 515.796051 
C 135.821244 515.796051 137.19836 515.225631 138.213572 514.210419 
C 139.228783 513.195207 139.799204 511.818091 139.799204 510.382365 
C 139.799204 508.946639 139.228783 507.569523 138.213572 506.554311 
C 137.19836 505.539099 135.821244 504.968679 134.385517 504.968679 
C 132.949791 504.968679 131.572675 505.539099 130.557463 506.554311 
C 129.542251 507.569523 128.971831 508.946639 128.971831 510.382365 
C 128.971831 511.818091 129.542251 513.195207 130.557463 514.210419 
C 131.572675 515.225631 132.949791 515.796051 134.385517 515.796051 
z
" clip-path="url(#pe9952614e4)" style="fill: #ff8d00; fill-opacity: 0.7; stroke: #995500; stroke-opacity: 0.7; stroke-width: 0.866426"/>
    <path d="M 546.591731 576.035425 
C 548.027849 576.035425 549.40534 575.46485 550.420829 574.449361 
C 551.436317 573.433873 552.006893 572.056381 552.006893 570.620263 
C 552.006893 569.184146 551.436317 567.806654 550.420829 566.791166 
C 549.40534 565.775677 548.027849 565.205101 546.591731 565.205101 
C 545.155613 565.205101 543.778122 565.775677 542.762633 566.791166 
C 541.747145 567.806654 541.176569 569.184146 541.176569 570.620263 
C 541.176569 572.056381 541.747145 573.433873 542.762633 574.449361 
C 543.778122 575.46485 545.155613 576.035425 546.591731 576.035425 
z
" clip-path="url(#pe9952614e4)" style="fill: #ff8d00; fill-opacity: 0.7; stroke: #995500; stroke-opacity: 0.7; stroke-width: 0.866426"/>
   </g>
   <g id="PathCollection_2">
    <path d="M 472.26739 185.170284 
C 474.484597 185.170284 476.611292 184.289379 478.179094 182.721577 
C 479.746896 181.153775 480.627802 179.02708 480.627802 176.809873 
C 480.627802 174.592666 479.746896 172.465972 478.179094 170.89817 
C 476.611292 169.330367 474.484597 168.449462 472.26739 168.449462 
C 470.050183 168.449462 467.923489 169.330367 466.355687 170.89817 
C 464.787885 172.465972 463.906979 174.592666 463.906979 176.809873 
C 463.906979 179.02708 464.787885 181.153775 466.355687 182.721577 
C 467.923489 184.289379 470.050183 185.170284 472.26739 185.170284 
z
" clip-path="url(#pe9952614e4)" style="fill: #13066d; fill-opacity: 0.7; stroke: #0b0441; stroke-opacity: 0.7; stroke-width: 0.843126"/>
    <path d="M 472.26739 294.707563 
C 477.497614 294.707563 482.514326 292.629573 486.212652 288.931246 
C 489.910979 285.23292 491.988969 280.216208 491.988969 274.985984 
C 491.988969 269.75576 489.910979 264.739049 486.212652 261.040722 
C 482.514326 257.342395 477.497614 255.264405 472.26739 255.264405 
C 467.037166 255.264405 462.020455 257.342395 458.322128 261.040722 
C 454.623801 264.739049 452.545811 269.75576 452.545811 274.985984 
C 452.545811 280.216208 454.623801 285.23292 458.322128 288.931246 
C 462.020455 292.629573 467.037166 294.707563 472.26739 294.707563 
z
" clip-path="url(#pe9952614e4)" style="fill: #13066d; fill-opacity: 0.7; stroke: #0b0441; stroke-opacity: 0.7; stroke-width: 0.843126"/>
    <path d="M 472.26739 198.07023 
C 475.638707 198.07023 478.872397 196.730791 481.256278 194.346911 
C 483.640159 191.96303 484.979597 188.72934 484.979597 185.358023 
C 484.979597 181.986706 483.640159 178.753016 481.256278 176.369135 
C 478.872397 173.985254 475.638707 172.645816 472.26739 172.645816 
C 468.896074 172.645816 465.662383 173.985254 463.278503 176.369135 
C 460.894622 178.753016 459.555183 181.986706 459.555183 185.358023 
C 459.555183 188.72934 460.894622 191.96303 463.278503 194.346911 
C 465.662383 196.730791 468.896074 198.07023 472.26739 198.07023 
z
" clip-path="url(#pe9952614e4)" style="fill: #13066d; fill-opacity: 0.7; stroke: #0b0441; stroke-opacity: 0.7; stroke-width: 0.843126"/>
    <path d="M 472.26739 241.981811 
C 473.672938 241.981811 475.021107 241.423381 476.01498 240.429509 
C 477.008852 239.435637 477.567282 238.087467 477.567282 236.681919 
C 477.567282 235.276372 477.008852 233.928202 476.01498 232.93433 
C 475.021107 231.940457 473.672938 231.382027 472.26739 231.382027 
C 470.861842 231.382027 469.513673 231.940457 468.519801 232.93433 
C 467.525928 233.928202 466.967498 235.276372 466.967498 236.681919 
C 466.967498 238.087467 467.525928 239.435637 468.519801 240.429509 
C 469.513673 241.423381 470.861842 241.981811 472.26739 241.981811 
z
" clip-path="url(#pe9952614e4)" style="fill: #13066d; fill-opacity: 0.7; stroke: #0b0441; stroke-opacity: 0.7; stroke-width: 0.843126"/>
    <path d="M 650.432409 307.587602 
C 658.153138 307.587602 665.558684 304.520125 671.018064 299.060745 
C 676.477443 293.601366 679.544921 286.195819 679.544921 278.475091 
C 679.544921 270.754363 676.477443 263.348816 671.018064 257.889437 
C 665.558684 252.430057 658.153138 249.362579 650.432409 249.362579 
C 642.711681 249.362579 635.306135 252.430057 629.846755 257.889437 
C 624.387376 263.348816 621.319898 270.754363 621.319898 278.475091 
C 621.319898 286.195819 624.387376 293.601366 629.846755 299.060745 
C 635.306135 304.520125 642.711681 307.587602 650.432409 307.587602 
z
" clip-path="url(#pe9952614e4)" style="fill: #13066d; fill-opacity: 0.7; stroke: #0b0441; stroke-opacity: 0.7; stroke-width: 0.843126"/>
    <path d="M 650.432409 182.028682 
C 652.641735 182.028682 654.760869 181.150907 656.323098 179.588679 
C 657.885327 178.02645 658.763101 175.907315 658.763101 173.69799 
C 658.763101 171.488665 657.885327 169.369531 656.323098 167.807302 
C 654.760869 166.245073 652.641735 165.367299 650.432409 165.367299 
C 648.223084 165.367299 646.10395 166.245073 644.541721 167.807302 
C 642.979492 169.369531 642.101718 171.488665 642.101718 173.69799 
C 642.101718 175.907315 642.979492 178.02645 644.541721 179.588679 
C 646.10395 181.150907 648.223084 182.028682 650.432409 182.028682 
z
" clip-path="url(#pe9952614e4)" style="fill: #13066d; fill-opacity: 0.7; stroke: #0b0441; stroke-opacity: 0.7; stroke-width: 0.843126"/>
    <path d="M 650.432409 181.011851 
C 655.162413 181.011851 659.699324 179.132601 663.043942 175.787983 
C 666.388559 172.443366 668.267809 167.906454 668.267809 163.176451 
C 668.267809 158.446448 666.388559 153.909537 663.043942 150.564919 
C 659.699324 147.220302 655.162413 145.341051 650.432409 145.341051 
C 645.702406 145.341051 641.165495 147.220302 637.820877 150.564919 
C 634.47626 153.909537 632.59701 158.446448 632.59701 163.176451 
C 632.59701 167.906454 634.47626 172.443366 637.820877 175.787983 
C 641.165495 179.132601 645.702406 181.011851 650.432409 181.011851 
z
" clip-path="url(#pe9952614e4)" style="fill: #13066d; fill-opacity: 0.7; stroke: #0b0441; stroke-opacity: 0.7; stroke-width: 0.843126"/>
    <path d="M 650.432409 183.221563 
C 653.799145 183.221563 657.028441 181.883945 659.409083 179.503303 
C 661.789725 177.122661 663.127343 173.893365 663.127343 170.526629 
C 663.127343 167.159894 661.789725 163.930597 659.409083 161.549956 
C 657.028441 159.169314 653.799145 157.831696 650.432409 157.831696 
C 647.065674 157.831696 643.836378 159.169314 641.455736 161.549956 
C 639.075094 163.930597 637.737476 167.159894 637.737476 170.526629 
C 637.737476 173.893365 639.075094 177.122661 641.455736 179.503303 
C 643.836378 181.883945 647.065674 183.221563 650.432409 183.221563 
z
" clip-path="url(#pe9952614e4)" style="fill: #13066d; fill-opacity: 0.7; stroke: #0b0441; stroke-opacity: 0.7; stroke-width: 0.843126"/>
    <path d="M 650.432409 212.084413 
C 651.828117 212.084413 653.166847 211.529893 654.153761 210.542979 
C 655.140675 209.556065 655.695196 208.217334 655.695196 206.821627 
C 655.695196 205.42592 655.140675 204.087189 654.153761 203.100275 
C 653.166847 202.113361 651.828117 201.558841 650.432409 201.558841 
C 649.036702 201.558841 647.697972 202.113361 646.711058 203.100275 
C 645.724144 204.087189 645.169623 205.42592 645.169623 206.821627 
C 645.169623 208.217334 645.724144 209.556065 646.711058 210.542979 
C 647.697972 211.529893 649.036702 212.084413 650.432409 212.084413 
z
" clip-path="url(#pe9952614e4)" style="fill: #13066d; fill-opacity: 0.7; stroke: #0b0441; stroke-opacity: 0.7; stroke-width: 0.843126"/>
    <path d="M 307.003786 155.127257 
C 309.219359 155.127257 311.344487 154.247 312.911134 152.680353 
C 314.477781 151.113706 315.358037 148.988578 315.358037 146.773005 
C 315.358037 144.557432 314.477781 142.432304 312.911134 140.865657 
C 311.344487 139.29901 309.219359 138.418753 307.003786 138.418753 
C 304.788212 138.418753 302.663085 139.29901 301.096438 140.865657 
C 299.529791 142.432304 298.649534 144.557432 298.649534 146.773005 
C 298.649534 148.988578 299.529791 151.113706 301.096438 152.680353 
C 302.663085 154.247 304.788212 155.127257 307.003786 155.127257 
z
" clip-path="url(#pe9952614e4)" style="fill: #13066d; fill-opacity: 0.7; stroke: #0b0441; stroke-opacity: 0.7; stroke-width: 0.843126"/>
    <path d="M 134.385517 335.985066 
C 136.596017 335.985066 138.716278 335.106825 140.279338 333.543765 
C 141.842397 331.980706 142.720638 329.860445 142.720638 327.649945 
C 142.720638 325.439445 141.842397 323.319184 140.279338 321.756125 
C 138.716278 320.193065 136.596017 319.314824 134.385517 319.314824 
C 132.175018 319.314824 130.054757 320.193065 128.491697 321.756125 
C 126.928638 323.319184 126.050397 325.439445 126.050397 327.649945 
C 126.050397 329.860445 126.928638 331.980706 128.491697 333.543765 
C 130.054757 335.106825 132.175018 335.985066 134.385517 335.985066 
z
" clip-path="url(#pe9952614e4)" style="fill: #13066d; fill-opacity: 0.7; stroke: #0b0441; stroke-opacity: 0.7; stroke-width: 0.843126"/>
    <path d="M 662.095866 213.775431 
C 664.306372 213.775431 666.426639 212.897188 667.989703 211.334124 
C 669.552767 209.77106 670.431011 207.650792 670.431011 205.440286 
C 670.431011 203.229779 669.552767 201.109512 667.989703 199.546448 
C 666.426639 197.983384 664.306372 197.10514 662.095866 197.10514 
C 659.885359 197.10514 657.765092 197.983384 656.202028 199.546448 
C 654.638964 201.109512 653.76072 203.229779 653.76072 205.440286 
C 653.76072 207.650792 654.638964 209.77106 656.202028 211.334124 
C 657.765092 212.897188 659.885359 213.775431 662.095866 213.775431 
z
" clip-path="url(#pe9952614e4)" style="fill: #13066d; fill-opacity: 0.7; stroke: #0b0441; stroke-opacity: 0.7; stroke-width: 0.843126"/>
    <path d="M 546.591731 352.204725 
C 548.802237 352.204725 550.922505 351.326482 552.485569 349.763417 
C 554.048633 348.200353 554.926876 346.080086 554.926876 343.86958 
C 554.926876 341.659073 554.048633 339.538806 552.485569 337.975742 
C 550.922505 336.412678 548.802237 335.534434 546.591731 335.534434 
C 544.381225 335.534434 542.260957 336.412678 540.697893 337.975742 
C 539.134829 339.538806 538.256586 341.659073 538.256586 343.86958 
C 538.256586 346.080086 539.134829 348.200353 540.697893 349.763417 
C 542.260957 351.326482 544.381225 352.204725 546.591731 352.204725 
z
" clip-path="url(#pe9952614e4)" style="fill: #13066d; fill-opacity: 0.7; stroke: #0b0441; stroke-opacity: 0.7; stroke-width: 0.843126"/>
    <path d="M 662.095866 218.580411 
C 667.126376 218.580411 671.951528 216.581768 675.508636 213.02466 
C 679.065744 209.467551 681.064387 204.6424 681.064387 199.611889 
C 681.064387 194.581379 679.065744 189.756227 675.508636 186.199119 
C 671.951528 182.642011 667.126376 180.643368 662.095866 180.643368 
C 657.065355 180.643368 652.240203 182.642011 648.683095 186.199119 
C 645.125987 189.756227 643.127344 194.581379 643.127344 199.611889 
C 643.127344 204.6424 645.125987 209.467551 648.683095 213.02466 
C 652.240203 216.581768 657.065355 218.580411 662.095866 218.580411 
z
" clip-path="url(#pe9952614e4)" style="fill: #13066d; fill-opacity: 0.7; stroke: #0b0441; stroke-opacity: 0.7; stroke-width: 0.843126"/>
    <path d="M 307.003786 562.646561 
C 311.305728 562.646561 315.432053 560.937381 318.473985 557.895449 
C 321.515918 554.853516 323.225097 550.727191 323.225097 546.425249 
C 323.225097 542.123307 321.515918 537.996982 318.473985 534.95505 
C 315.432053 531.913118 311.305728 530.203938 307.003786 530.203938 
C 302.701844 530.203938 298.575519 531.913118 295.533586 534.95505 
C 292.491654 537.996982 290.782474 542.123307 290.782474 546.425249 
C 290.782474 550.727191 292.491654 554.853516 295.533586 557.895449 
C 298.575519 560.937381 302.701844 562.646561 307.003786 562.646561 
z
" clip-path="url(#pe9952614e4)" style="fill: #13066d; fill-opacity: 0.7; stroke: #0b0441; stroke-opacity: 0.7; stroke-width: 0.843126"/>
    <path d="M 662.095866 205.524616 
C 666.394083 205.524616 670.516836 203.816916 673.556135 200.777617 
C 676.595434 197.738318 678.303135 193.615565 678.303135 189.317347 
C 678.303135 185.019129 676.595434 180.896376 673.556135 177.857077 
C 670.516836 174.817778 666.394083 173.110078 662.095866 173.110078 
C 657.797648 173.110078 653.674895 174.817778 650.635596 177.857077 
C 647.596297 180.896376 645.888597 185.019129 645.888597 189.317347 
C 645.888597 193.615565 647.596297 197.738318 650.635596 200.777617 
C 653.674895 203.816916 657.797648 205.524616 662.095866 205.524616 
z
" clip-path="url(#pe9952614e4)" style="fill: #13066d; fill-opacity: 0.7; stroke: #0b0441; stroke-opacity: 0.7; stroke-width: 0.843126"/>
    <path d="M 307.003786 245.806688 
C 310.375038 245.806688 313.608667 244.467275 315.992502 242.08344 
C 318.376338 239.699604 319.71575 236.465976 319.71575 233.094724 
C 319.71575 229.723471 318.376338 226.489843 315.992502 224.106007 
C 313.608667 221.722172 310.375038 220.382759 307.003786 220.382759 
C 303.632533 220.382759 300.398905 221.722172 298.015069 224.106007 
C 295.631234 226.489843 294.291821 229.723471 294.291821 233.094724 
C 294.291821 236.465976 295.631234 239.699604 298.015069 242.08344 
C 300.398905 244.467275 303.632533 245.806688 307.003786 245.806688 
z
" clip-path="url(#pe9952614e4)" style="fill: #13066d; fill-opacity: 0.7; stroke: #0b0441; stroke-opacity: 0.7; stroke-width: 0.843126"/>
    <path d="M 662.095866 171.219658 
C 665.462779 171.219658 668.692247 169.881969 671.073014 167.501201 
C 673.453782 165.120433 674.791471 161.890966 674.791471 158.524052 
C 674.791471 155.157138 673.453782 151.927671 671.073014 149.546904 
C 668.692247 147.166136 665.462779 145.828447 662.095866 145.828447 
C 658.728952 145.828447 655.499484 147.166136 653.118717 149.546904 
C 650.737949 151.927671 649.40026 155.157138 649.40026 158.524052 
C 649.40026 161.890966 650.737949 165.120433 653.118717 167.501201 
C 655.499484 169.881969 658.728952 171.219658 662.095866 171.219658 
z
" clip-path="url(#pe9952614e4)" style="fill: #13066d; fill-opacity: 0.7; stroke: #0b0441; stroke-opacity: 0.7; stroke-width: 0.843126"/>
    <path d="M 546.591731 273.786547 
C 549.958645 273.786547 553.188112 272.448857 555.56888 270.06809 
C 557.949647 267.687322 559.287336 264.457855 559.287336 261.090941 
C 559.287336 257.724027 557.949647 254.49456 555.56888 252.113792 
C 553.188112 249.733025 549.958645 248.395336 546.591731 248.395336 
C 543.224817 248.395336 539.99535 249.733025 537.614582 252.113792 
C 535.233815 254.49456 533.896126 257.724027 533.896126 261.090941 
C 533.896126 264.457855 535.233815 267.687322 537.614582 270.06809 
C 539.99535 272.448857 543.224817 273.786547 546.591731 273.786547 
z
" clip-path="url(#pe9952614e4)" style="fill: #13066d; fill-opacity: 0.7; stroke: #0b0441; stroke-opacity: 0.7; stroke-width: 0.843126"/>
    <path d="M 307.003786 230.71019 
C 308.404151 230.71019 309.74735 230.153819 310.737558 229.163611 
C 311.727766 228.173403 312.284137 226.830205 312.284137 225.429839 
C 312.284137 224.029474 311.727766 222.686275 310.737558 221.696067 
C 309.74735 220.705859 308.404151 220.149488 307.003786 220.149488 
C 305.60342 220.149488 304.260222 220.705859 303.270014 221.696067 
C 302.279806 222.686275 301.723435 224.029474 301.723435 225.429839 
C 301.723435 226.830205 302.279806 228.173403 303.270014 229.163611 
C 304.260222 230.153819 305.60342 230.71019 307.003786 230.71019 
z
" clip-path="url(#pe9952614e4)" style="fill: #13066d; fill-opacity: 0.7; stroke: #0b0441; stroke-opacity: 0.7; stroke-width: 0.843126"/>
    <path d="M 134.385517 413.248182 
C 135.782696 413.248182 137.122837 412.693077 138.110791 411.705123 
C 139.098745 410.717169 139.65385 409.377028 139.65385 407.979849 
C 139.65385 406.582671 139.098745 405.24253 138.110791 404.254576 
C 137.122837 403.266622 135.782696 402.711517 134.385517 402.711517 
C 132.988339 402.711517 131.648198 403.266622 130.660244 404.254576 
C 129.67229 405.24253 129.117185 406.582671 129.117185 407.979849 
C 129.117185 409.377028 129.67229 410.717169 130.660244 411.705123 
C 131.648198 412.693077 132.988339 413.248182 134.385517 413.248182 
z
" clip-path="url(#pe9952614e4)" style="fill: #13066d; fill-opacity: 0.7; stroke: #0b0441; stroke-opacity: 0.7; stroke-width: 0.843126"/>
    <path d="M 307.003786 402.376797 
C 307.891751 402.376797 308.743468 402.024005 309.371354 401.396118 
C 309.999241 400.768232 310.352033 399.916515 310.352033 399.02855 
C 310.352033 398.140584 309.999241 397.288868 309.371354 396.660981 
C 308.743468 396.033095 307.891751 395.680302 307.003786 395.680302 
C 306.11582 395.680302 305.264104 396.033095 304.636217 396.660981 
C 304.008331 397.288868 303.655538 398.140584 303.655538 399.02855 
C 303.655538 399.916515 304.008331 400.768232 304.636217 401.396118 
C 305.264104 402.024005 306.11582 402.376797 307.003786 402.376797 
z
" clip-path="url(#pe9952614e4)" style="fill: #13066d; fill-opacity: 0.7; stroke: #0b0441; stroke-opacity: 0.7; stroke-width: 0.843126"/>
   </g>
   <g id="line2d_11">
    <path d="M 134.385517 466.546907 
L 662.095866 219.424327 
L 662.095866 219.424327 
" clip-path="url(#pe9952614e4)" style="fill: none; stroke: #ff8d00; stroke-opacity: 0.9; stroke-width: 2; stroke-linecap: round"/>
   </g>
   <g id="line2d_12">
    <path d="M 134.385517 362.136021 
L 662.095866 194.457281 
L 662.095866 194.457281 
" clip-path="url(#pe9952614e4)" style="fill: none; stroke: #13066d; stroke-opacity: 0.9; stroke-width: 2; stroke-linecap: round"/>
   </g>
   <g id="line2d_13">
    <path d="M 108 271.0152 
L 777.6 271.0152 
" clip-path="url(#pe9952614e4)" style="fill: none; stroke-dasharray: 5.55,2.4; stroke-dashoffset: 0; stroke: #c44e52; stroke-width: 1.5"/>
   </g>
   <g id="line2d_14">
    <path d="M 108 91.944 
L 777.6 91.944 
" clip-path="url(#pe9952614e4)" style="fill: none; stroke-dasharray: 5.55,2.4; stroke-dashoffset: 0; stroke: #68c3d4; stroke-width: 1.5"/>
   </g>
   <g id="patch_3">
    <path d="M 108 640.8 
L 108 86.4 
" style="fill: none; stroke: #262626; stroke-width: 1.25; stroke-linejoin: miter; stroke-linecap: square"/>
   </g>
   <g id="patch_4">
    <path d="M 116.60377 640.8 
L 777.6 640.8 
" style="fill: none; stroke: #262626; stroke-width: 1.25; stroke-linejoin: miter; stroke-linecap: square"/>
   </g>
  </g>
 </g>
 <defs>
  <clipPath id="pe9952614e4">
   <rect x="108" y="86.4" width="669.6" height="554.4"/>
  </clipPath>
 </defs>
</svg>
