<?xml version="1.0" encoding="utf-8" standalone="no"?>
<!DOCTYPE svg PUBLIC "-//W3C//DTD SVG 1.1//EN"
  "http://www.w3.org/Graphics/SVG/1.1/DTD/svg11.dtd">
<svg xmlns:xlink="http://www.w3.org/1999/xlink" width="864pt" height="720pt" viewBox="0 0 864 720" xmlns="http://www.w3.org/2000/svg" version="1.1">
 <metadata>
  <rdf:RDF xmlns:dc="http://purl.org/dc/elements/1.1/" xmlns:cc="http://creativecommons.org/ns#" xmlns:rdf="http://www.w3.org/1999/02/22-rdf-syntax-ns#">
   <cc:Work>
    <dc:type rdf:resource="http://purl.org/dc/dcmitype/StillImage"/>
    <dc:date>2025-10-24T15:17:55.437091</dc:date>
    <dc:format>image/svg+xml</dc:format>
    <dc:creator>
     <cc:Agent>
      <dc:title>Matplotlib v3.9.4, https://matplotlib.org/</dc:title>
     </cc:Agent>
    </dc:creator>
   </cc:Work>
  </rdf:RDF>
 </metadata>
 <defs>
  <style type="text/css">*{stroke-linejoin: round; stroke-linecap: butt}</style>
 </defs>
 <g id="figure_1">
  <g id="patch_1">
   <path d="M 0 720 
L 864 720 
L 864 0 
L 0 0 
z
" style="fill: #ffffff"/>
  </g>
  <g id="axes_1">
   <g id="patch_2">
    <path d="M 108 640.8 
L 777.6 640.8 
L 777.6 86.4 
L 108 86.4 
z
" style="fill: #ffffff"/>
   </g>
   <g id="matplotlib.axis_1">
    <g id="xtick_1">
     <g id="line2d_1">
      <defs>
       <path id="m43a076dc6f" d="M 0 0 
L 0 6 
" style="stroke: #262626; stroke-width: 1.25"/>
      </defs>
      <g>
       <use xlink:href="#m43a076dc6f" x="116.60377" y="640.8" style="fill: #262626; stroke: #262626; stroke-width: 1.25"/>
      </g>
     </g>
    </g>
    <g id="xtick_2">
     <g id="line2d_2">
      <g>
       <use xlink:href="#m43a076dc6f" x="281.852827" y="640.8" style="fill: #262626; stroke: #262626; stroke-width: 1.25"/>
      </g>
     </g>
    </g>
    <g id="xtick_3">
     <g id="line2d_3">
      <g>
       <use xlink:href="#m43a076dc6f" x="447.101885" y="640.8" style="fill: #262626; stroke: #262626; stroke-width: 1.25"/>
      </g>
     </g>
    </g>
    <g id="xtick_4">
     <g id="line2d_4">
      <g>
       <use xlink:href="#m43a076dc6f" x="612.350942" y="640.8" style="fill: #262626; stroke: #262626; stroke-width: 1.25"/>
      </g>
     </g>
    </g>
    <g id="xtick_5">
     <g id="line2d_5">
      <g>
       <use xlink:href="#m43a076dc6f" x="777.6" y="640.8" style="fill: #262626; stroke: #262626; stroke-width: 1.25"/>
      </g>
     </g>
    </g>
    <g id="xtick_6"/>
    <g id="xtick_7"/>
    <g id="xtick_8"/>
    <g id="xtick_9"/>
    <g id="xtick_10"/>
    <g id="xtick_11"/>
    <g id="xtick_12"/>
    <g id="xtick_13"/>
    <g id="xtick_14"/>
    <g id="xtick_15"/>
    <g id="xtick_16"/>
    <g id="xtick_17"/>
    <g id="xtick_18"/>
    <g id="xtick_19"/>
    <g id="xtick_20"/>
    <g id="xtick_21"/>
    <g id="xtick_22"/>
    <g id="xtick_23"/>
    <g id="xtick_24"/>
    <g id="xtick_25"/>
    <g id="xtick_26"/>
    <g id="xtick_27"/>
    <g id="xtick_28"/>
    <g id="xtick_29"/>
    <g id="xtick_30"/>
    <g id="xtick_31"/>
    <g id="xtick_32"/>
    <g id="xtick_33"/>
    <g id="xtick_34"/>
    <g id="xtick_35"/>
    <g id="xtick_36"/>
    <g id="xtick_37"/>
    <g id="xtick_38"/>
   </g>
   <g id="matplotlib.axis_2">
    <g id="ytick_1">
     <g id="line2d_6">
      <defs>
       <path id="mf3cbd5b0cd" d="M 0 0 
L -6 0 
" style="stroke: #262626; stroke-width: 1.25"/>
      </defs>
      <g>
       <use xlink:href="#mf3cbd5b0cd" x="108" y="640.8" style="fill: #262626; stroke: #262626; stroke-width: 1.25"/>
      </g>
     </g>
     <g id="text_1">
      <text style="fill: #262626; font: 25px 'Arial', 'DejaVu Sans', 'Liberation Sans', 'Bitstream Vera Sans', sans-serif; text-anchor: end" x="98.5" y="649.747266" transform="rotate(-0 98.5 649.747266)">0.00</text>
     </g>
    </g>
    <g id="ytick_2">
     <g id="line2d_7">
      <g>
       <use xlink:href="#mf3cbd5b0cd" x="108" y="502.2" style="fill: #262626; stroke: #262626; stroke-width: 1.25"/>
      </g>
     </g>
     <g id="text_2">
      <text style="fill: #262626; font: 25px 'Arial', 'DejaVu Sans', 'Liberation Sans', 'Bitstream Vera Sans', sans-serif; text-anchor: end" x="98.5" y="511.147266" transform="rotate(-0 98.5 511.147266)">0.25</text>
     </g>
    </g>
    <g id="ytick_3">
     <g id="line2d_8">
      <g>
       <use xlink:href="#mf3cbd5b0cd" x="108" y="363.6" style="fill: #262626; stroke: #262626; stroke-width: 1.25"/>
      </g>
     </g>
     <g id="text_3">
      <text style="fill: #262626; font: 25px 'Arial', 'DejaVu Sans', 'Liberation Sans', 'Bitstream Vera Sans', sans-serif; text-anchor: end" x="98.5" y="372.547266" transform="rotate(-0 98.5 372.547266)">0.50</text>
     </g>
    </g>
    <g id="ytick_4">
     <g id="line2d_9">
      <g>
       <use xlink:href="#mf3cbd5b0cd" x="108" y="225" style="fill: #262626; stroke: #262626; stroke-width: 1.25"/>
      </g>
     </g>
     <g id="text_4">
      <text style="fill: #262626; font: 25px 'Arial', 'DejaVu Sans', 'Liberation Sans', 'Bitstream Vera Sans', sans-serif; text-anchor: end" x="98.5" y="233.947266" transform="rotate(-0 98.5 233.947266)">0.75</text>
     </g>
    </g>
    <g id="ytick_5">
     <g id="line2d_10">
      <g>
       <use xlink:href="#mf3cbd5b0cd" x="108" y="86.4" style="fill: #262626; stroke: #262626; stroke-width: 1.25"/>
      </g>
     </g>
     <g id="text_5">
      <text style="fill: #262626; font: 25px 'Arial', 'DejaVu Sans', 'Liberation Sans', 'Bitstream Vera Sans', sans-serif; text-anchor: end" x="98.5" y="95.347266" transform="rotate(-0 98.5 95.347266)">1.00</text>
     </g>
    </g>
   </g>
   <g id="PathCollection_1">
    <path d="M 662.095866 222.542406 
C 664.32144 222.542406 666.45616 221.658176 668.029879 220.084457 
C 669.603598 218.510738 670.487828 216.376018 670.487828 214.150443 
C 670.487828 211.924869 669.603598 209.790149 668.029879 208.21643 
C 666.45616 206.642711 664.32144 205.758481 662.095866 205.758481 
C 659.870291 205.758481 657.735571 206.642711 656.161852 208.21643 
C 654.588133 209.790149 653.703903 211.924869 653.703903 214.150443 
C 653.703903 216.376018 654.588133 218.510738 656.161852 220.084457 
C 657.735571 221.658176 659.870291 222.542406 662.095866 222.542406 
z
" clip-path="url(#p8dec87e60d)" style="fill: #ff8d00; fill-opacity: 0.7; stroke: #995500; stroke-opacity: 0.7; stroke-width: 0.866426"/>
    <path d="M 134.385517 483.762801 
C 136.611092 483.762801 138.745812 482.878571 140.319531 481.304852 
C 141.89325 479.731133 142.77748 477.596413 142.77748 475.370838 
C 142.77748 473.145264 141.89325 471.010544 140.319531 469.436825 
C 138.745812 467.863106 136.611092 466.978876 134.385517 466.978876 
C 132.159943 466.978876 130.025223 467.863106 128.451504 469.436825 
C 126.877785 471.010544 125.993555 473.145264 125.993555 475.370838 
C 125.993555 477.596413 126.877785 479.731133 128.451504 481.304852 
C 130.025223 482.878571 132.159943 483.762801 134.385517 483.762801 
z
" clip-path="url(#p8dec87e60d)" style="fill: #ff8d00; fill-opacity: 0.7; stroke: #995500; stroke-opacity: 0.7; stroke-width: 0.866426"/>
    <path d="M 307.003786 209.302835 
C 309.22936 209.302835 311.364081 208.418605 312.937799 206.844886 
C 314.511518 205.271167 315.395748 203.136447 315.395748 200.910872 
C 315.395748 198.685298 314.511518 196.550577 312.937799 194.976858 
C 311.364081 193.40314 309.22936 192.51891 307.003786 192.51891 
C 304.778211 192.51891 302.643491 193.40314 301.069772 194.976858 
C 299.496053 196.550577 298.611823 198.685298 298.611823 200.910872 
C 298.611823 203.136447 299.496053 205.271167 301.069772 206.844886 
C 302.643491 208.418605 304.778211 209.302835 307.003786 209.302835 
z
" clip-path="url(#p8dec87e60d)" style="fill: #ff8d00; fill-opacity: 0.7; stroke: #995500; stroke-opacity: 0.7; stroke-width: 0.866426"/>
    <path d="M 134.385517 544.321466 
C 137.297929 544.321466 140.091447 543.164353 142.150833 541.104967 
C 144.210219 539.045582 145.367332 536.252063 145.367332 533.339652 
C 145.367332 530.427241 144.210219 527.633722 142.150833 525.574336 
C 140.091447 523.514951 137.297929 522.357838 134.385517 522.357838 
C 131.473106 522.357838 128.679588 523.514951 126.620202 525.574336 
C 124.560816 527.633722 123.403703 530.427241 123.403703 533.339652 
C 123.403703 536.252063 124.560816 539.045582 126.620202 541.104967 
C 128.679588 543.164353 131.473106 544.321466 134.385517 544.321466 
z
" clip-path="url(#p8dec87e60d)" style="fill: #ff8d00; fill-opacity: 0.7; stroke: #995500; stroke-opacity: 0.7; stroke-width: 0.866426"/>
    <path d="M 307.003786 255.171532 
C 309.916197 255.171532 312.709715 254.014419 314.769101 251.955033 
C 316.828487 249.895648 317.9856 247.102129 317.9856 244.189718 
C 317.9856 241.277307 316.828487 238.483788 314.769101 236.424402 
C 312.709715 234.365017 309.916197 233.207903 307.003786 233.207903 
C 304.091375 233.207903 301.297856 234.365017 299.23847 236.424402 
C 297.179085 238.483788 296.021971 241.277307 296.021971 244.189718 
C 296.021971 247.102129 297.179085 249.895648 299.23847 251.955033 
C 301.297856 254.014419 304.091375 255.171532 307.003786 255.171532 
z
" clip-path="url(#p8dec87e60d)" style="fill: #ff8d00; fill-opacity: 0.7; stroke: #995500; stroke-opacity: 0.7; stroke-width: 0.866426"/>
    <path d="M 662.095866 223.254824 
C 665.008277 223.254824 667.801795 222.097711 669.861181 220.038325 
C 671.920567 217.978939 673.07768 215.185421 673.07768 212.273009 
C 673.07768 209.360598 671.920567 206.56708 669.861181 204.507694 
C 667.801795 202.448308 665.008277 201.291195 662.095866 201.291195 
C 659.183454 201.291195 656.389936 202.448308 654.33055 204.507694 
C 652.271164 206.56708 651.114051 209.360598 651.114051 212.273009 
C 651.114051 215.185421 652.271164 217.978939 654.33055 220.038325 
C 656.389936 222.097711 659.183454 223.254824 662.095866 223.254824 
z
" clip-path="url(#p8dec87e60d)" style="fill: #ff8d00; fill-opacity: 0.7; stroke: #995500; stroke-opacity: 0.7; stroke-width: 0.866426"/>
    <path d="M 134.385517 462.995897 
C 136.225149 462.995897 137.989682 462.265004 139.290498 460.964188 
C 140.591314 459.663372 141.322208 457.898839 141.322208 456.059207 
C 141.322208 454.219575 140.591314 452.455042 139.290498 451.154226 
C 137.989682 449.85341 136.225149 449.122517 134.385517 449.122517 
C 132.545886 449.122517 130.781353 449.85341 129.480537 451.154226 
C 128.17972 452.455042 127.448827 454.219575 127.448827 456.059207 
C 127.448827 457.898839 128.17972 459.663372 129.480537 460.964188 
C 130.781353 462.265004 132.545886 462.995897 134.385517 462.995897 
z
" clip-path="url(#p8dec87e60d)" style="fill: #ff8d00; fill-opacity: 0.7; stroke: #995500; stroke-opacity: 0.7; stroke-width: 0.866426"/>
    <path d="M 307.003786 256.240457 
C 308.843418 256.240457 310.60795 255.509563 311.908767 254.208747 
C 313.209583 252.907931 313.940476 251.143398 313.940476 249.303766 
C 313.940476 247.464135 313.209583 245.699602 311.908767 244.398786 
C 310.60795 243.09797 308.843418 242.367076 307.003786 242.367076 
C 305.164154 242.367076 303.399621 243.09797 302.098805 244.398786 
C 300.797989 245.699602 300.067095 247.464135 300.067095 249.303766 
C 300.067095 251.143398 300.797989 252.907931 302.098805 254.208747 
C 303.399621 255.509563 305.164154 256.240457 307.003786 256.240457 
z
" clip-path="url(#p8dec87e60d)" style="fill: #ff8d00; fill-opacity: 0.7; stroke: #995500; stroke-opacity: 0.7; stroke-width: 0.866426"/>
    <path d="M 134.385517 444.494491 
C 135.904122 444.494491 137.360732 443.891143 138.434548 442.817328 
C 139.508363 441.743512 140.111711 440.286902 140.111711 438.768298 
C 140.111711 437.249693 139.508363 435.793083 138.434548 434.719267 
C 137.360732 433.645452 135.904122 433.042104 134.385517 433.042104 
C 132.866913 433.042104 131.410302 433.645452 130.336487 434.719267 
C 129.262672 435.793083 128.659324 437.249693 128.659324 438.768298 
C 128.659324 440.286902 129.262672 441.743512 130.336487 442.817328 
C 131.410302 443.891143 132.866913 444.494491 134.385517 444.494491 
z
" clip-path="url(#p8dec87e60d)" style="fill: #ff8d00; fill-opacity: 0.7; stroke: #995500; stroke-opacity: 0.7; stroke-width: 0.866426"/>
    <path d="M 307.003786 387.855625 
C 308.52239 387.855625 309.979001 387.252277 311.052816 386.178462 
C 312.126632 385.104646 312.729979 383.648036 312.729979 382.129431 
C 312.729979 380.610827 312.126632 379.154216 311.052816 378.080401 
C 309.979001 377.006586 308.52239 376.403238 307.003786 376.403238 
C 305.485181 376.403238 304.028571 377.006586 302.954755 378.080401 
C 301.88094 379.154216 301.277592 380.610827 301.277592 382.129431 
C 301.277592 383.648036 301.88094 385.104646 302.954755 386.178462 
C 304.028571 387.252277 305.485181 387.855625 307.003786 387.855625 
z
" clip-path="url(#p8dec87e60d)" style="fill: #ff8d00; fill-opacity: 0.7; stroke: #995500; stroke-opacity: 0.7; stroke-width: 0.866426"/>
    <path d="M 662.095866 151.792008 
C 666.831113 151.792008 671.373055 149.910674 674.721381 146.562348 
C 678.069707 143.214022 679.951041 138.672081 679.951041 133.936833 
C 679.951041 129.201585 678.069707 124.659643 674.721381 121.311317 
C 671.373055 117.962991 666.831113 116.081657 662.095866 116.081657 
C 657.360618 116.081657 652.818676 117.962991 649.47035 121.311317 
C 646.122024 124.659643 644.24069 129.201585 644.24069 133.936833 
C 644.24069 138.672081 646.122024 143.214022 649.47035 146.562348 
C 652.818676 149.910674 657.360618 151.792008 662.095866 151.792008 
z
" clip-path="url(#p8dec87e60d)" style="fill: #ff8d00; fill-opacity: 0.7; stroke: #995500; stroke-opacity: 0.7; stroke-width: 0.866426"/>
    <path d="M 134.385517 517.248687 
C 136.266976 517.248687 138.071629 516.501176 139.402021 515.170783 
C 140.732413 513.840391 141.479924 512.035739 141.479924 510.15428 
C 141.479924 508.272821 140.732413 506.468169 139.402021 505.137777 
C 138.071629 503.807384 136.266976 503.059873 134.385517 503.059873 
C 132.504059 503.059873 130.699406 503.807384 129.369014 505.137777 
C 128.038622 506.468169 127.29111 508.272821 127.29111 510.15428 
C 127.29111 512.035739 128.038622 513.840391 129.369014 515.170783 
C 130.699406 516.501176 132.504059 517.248687 134.385517 517.248687 
z
" clip-path="url(#p8dec87e60d)" style="fill: #ff8d00; fill-opacity: 0.7; stroke: #995500; stroke-opacity: 0.7; stroke-width: 0.866426"/>
    <path d="M 650.432409 193.05716 
C 652.658001 193.05716 654.792738 192.172923 656.366469 190.599192 
C 657.9402 189.025461 658.824437 186.890724 658.824437 184.665132 
C 658.824437 182.43954 657.9402 180.304803 656.366469 178.731072 
C 654.792738 177.157341 652.658001 176.273104 650.432409 176.273104 
C 648.206818 176.273104 646.072081 177.157341 644.49835 178.731072 
C 642.924619 180.304803 642.040382 182.43954 642.040382 184.665132 
C 642.040382 186.890724 642.924619 189.025461 644.49835 190.599192 
C 646.072081 192.172923 648.206818 193.05716 650.432409 193.05716 
z
" clip-path="url(#p8dec87e60d)" style="fill: #ff8d00; fill-opacity: 0.7; stroke: #995500; stroke-opacity: 0.7; stroke-width: 0.866426"/>
    <path d="M 650.432409 195.896911 
C 653.344836 195.896911 656.138369 194.739791 658.197765 192.680395 
C 660.257162 190.620998 661.414281 187.827465 661.414281 184.915039 
C 661.414281 182.002612 660.257162 179.209079 658.197765 177.149683 
C 656.138369 175.090286 653.344836 173.933167 650.432409 173.933167 
C 647.519983 173.933167 644.72645 175.090286 642.667054 177.149683 
C 640.607657 179.209079 639.450538 182.002612 639.450538 184.915039 
C 639.450538 187.827465 640.607657 190.620998 642.667054 192.680395 
C 644.72645 194.739791 647.519983 195.896911 650.432409 195.896911 
z
" clip-path="url(#p8dec87e60d)" style="fill: #ff8d00; fill-opacity: 0.7; stroke: #995500; stroke-opacity: 0.7; stroke-width: 0.866426"/>
    <path d="M 650.432409 209.730672 
C 652.27206 209.730672 654.036612 208.999771 655.337441 207.698941 
C 656.638271 206.398112 657.369172 204.63356 657.369172 202.79391 
C 657.369172 200.954259 656.638271 199.189708 655.337441 197.888878 
C 654.036612 196.588048 652.27206 195.857147 650.432409 195.857147 
C 648.592759 195.857147 646.828207 196.588048 645.527378 197.888878 
C 644.226548 199.189708 643.495647 200.954259 643.495647 202.79391 
C 643.495647 204.63356 644.226548 206.398112 645.527378 207.698941 
C 646.828207 208.999771 648.592759 209.730672 650.432409 209.730672 
z
" clip-path="url(#p8dec87e60d)" style="fill: #ff8d00; fill-opacity: 0.7; stroke: #995500; stroke-opacity: 0.7; stroke-width: 0.866426"/>
    <path d="M 650.432409 261.16811 
C 651.951042 261.16811 653.407679 260.564751 654.481514 259.490915 
C 655.55535 258.41708 656.158709 256.960443 656.158709 255.441811 
C 656.158709 253.923178 655.55535 252.466541 654.481514 251.392706 
C 653.407679 250.318871 651.951042 249.715512 650.432409 249.715512 
C 648.913777 249.715512 647.45714 250.318871 646.383305 251.392706 
C 645.309469 252.466541 644.70611 253.923178 644.70611 255.441811 
C 644.70611 256.960443 645.309469 258.41708 646.383305 259.490915 
C 647.45714 260.564751 648.913777 261.16811 650.432409 261.16811 
z
" clip-path="url(#p8dec87e60d)" style="fill: #ff8d00; fill-opacity: 0.7; stroke: #995500; stroke-opacity: 0.7; stroke-width: 0.866426"/>
    <path d="M 134.385517 511.316451 
C 136.134544 511.316451 137.812171 510.621555 139.048919 509.384807 
C 140.285668 508.148058 140.980564 506.470432 140.980564 504.721405 
C 140.980564 502.972378 140.285668 501.294752 139.048919 500.058003 
C 137.812171 498.821254 136.134544 498.126359 134.385517 498.126359 
C 132.636491 498.126359 130.958864 498.821254 129.722116 500.058003 
C 128.485367 501.294752 127.790471 502.972378 127.790471 504.721405 
C 127.790471 506.470432 128.485367 508.148058 129.722116 509.384807 
C 130.958864 510.621555 132.636491 511.316451 134.385517 511.316451 
z
" clip-path="url(#p8dec87e60d)" style="fill: #ff8d00; fill-opacity: 0.7; stroke: #995500; stroke-opacity: 0.7; stroke-width: 0.866426"/>
    <path d="M 546.591731 476.349091 
C 548.341021 476.349091 550.018901 475.65409 551.255836 474.417155 
C 552.492771 473.18022 553.187772 471.50234 553.187772 469.75305 
C 553.187772 468.003759 552.492771 466.32588 551.255836 465.088945 
C 550.018901 463.852009 548.341021 463.157009 546.591731 463.157009 
C 544.842441 463.157009 543.164561 463.852009 541.927626 465.088945 
C 540.690691 466.32588 539.99569 468.003759 539.99569 469.75305 
C 539.99569 471.50234 540.690691 473.18022 541.927626 474.417155 
C 543.164561 475.65409 544.842441 476.349091 546.591731 476.349091 
z
" clip-path="url(#p8dec87e60d)" style="fill: #ff8d00; fill-opacity: 0.7; stroke: #995500; stroke-opacity: 0.7; stroke-width: 0.866426"/>
    <path d="M 134.385517 575.27078 
C 135.506077 575.27078 136.580892 574.825577 137.373248 574.033221 
C 138.165603 573.240866 138.610806 572.166051 138.610806 571.045491 
C 138.610806 569.924931 138.165603 568.850116 137.373248 568.057761 
C 136.580892 567.265405 135.506077 566.820202 134.385517 566.820202 
C 133.264958 566.820202 132.190142 567.265405 131.397787 568.057761 
C 130.605432 568.850116 130.160228 569.924931 130.160228 571.045491 
C 130.160228 572.166051 130.605432 573.240866 131.397787 574.033221 
C 132.190142 574.825577 133.264958 575.27078 134.385517 575.27078 
z
" clip-path="url(#p8dec87e60d)" style="fill: #ff8d00; fill-opacity: 0.7; stroke: #995500; stroke-opacity: 0.7; stroke-width: 0.866426"/>
    <path d="M 134.385517 539.085692 
C 135.821244 539.085692 137.19836 538.515271 138.213572 537.50006 
C 139.228783 536.484848 139.799204 535.107732 139.799204 533.672005 
C 139.799204 532.236279 139.228783 530.859163 138.213572 529.843951 
C 137.19836 528.828739 135.821244 528.258319 134.385517 528.258319 
C 132.949791 528.258319 131.572675 528.828739 130.557463 529.843951 
C 129.542251 530.859163 128.971831 532.236279 128.971831 533.672005 
C 128.971831 535.107732 129.542251 536.484848 130.557463 537.50006 
C 131.572675 538.515271 132.949791 539.085692 134.385517 539.085692 
z
" clip-path="url(#p8dec87e60d)" style="fill: #ff8d00; fill-opacity: 0.7; stroke: #995500; stroke-opacity: 0.7; stroke-width: 0.866426"/>
    <path d="M 546.591731 562.377827 
C 548.027849 562.377827 549.40534 561.807251 550.420829 560.791762 
C 551.436317 559.776274 552.006893 558.398782 552.006893 556.962665 
C 552.006893 555.526547 551.436317 554.149055 550.420829 553.133567 
C 549.40534 552.118078 548.027849 551.547502 546.591731 551.547502 
C 545.155613 551.547502 543.778122 552.118078 542.762633 553.133567 
C 541.747145 554.149055 541.176569 555.526547 541.176569 556.962665 
C 541.176569 558.398782 541.747145 559.776274 542.762633 560.791762 
C 543.778122 561.807251 545.155613 562.377827 546.591731 562.377827 
z
" clip-path="url(#p8dec87e60d)" style="fill: #ff8d00; fill-opacity: 0.7; stroke: #995500; stroke-opacity: 0.7; stroke-width: 0.866426"/>
   </g>
   <g id="PathCollection_2">
    <path d="M 472.26739 186.547656 
C 474.484597 186.547656 476.611292 185.666751 478.179094 184.098949 
C 479.746896 182.531146 480.627802 180.404452 480.627802 178.187245 
C 480.627802 175.970038 479.746896 173.843343 478.179094 172.275541 
C 476.611292 170.707739 474.484597 169.826834 472.26739 169.826834 
C 470.050183 169.826834 467.923489 170.707739 466.355687 172.275541 
C 464.787885 173.843343 463.906979 175.970038 463.906979 178.187245 
C 463.906979 180.404452 464.787885 182.531146 466.355687 184.098949 
C 467.923489 185.666751 470.050183 186.547656 472.26739 186.547656 
z
" clip-path="url(#p8dec87e60d)" style="fill: #13066d; fill-opacity: 0.7; stroke: #0b0441; stroke-opacity: 0.7; stroke-width: 0.842933"/>
    <path d="M 472.26739 292.813788 
C 477.497614 292.813788 482.514326 290.735798 486.212652 287.037471 
C 489.910979 283.339144 491.988969 278.322433 491.988969 273.092209 
C 491.988969 267.861985 489.910979 262.845274 486.212652 259.146947 
C 482.514326 255.44862 477.497614 253.37063 472.26739 253.37063 
C 467.037166 253.37063 462.020455 255.44862 458.322128 259.146947 
C 454.623801 262.845274 452.545811 267.861985 452.545811 273.092209 
C 452.545811 278.322433 454.623801 283.339144 458.322128 287.037471 
C 462.020455 290.735798 467.037166 292.813788 472.26739 292.813788 
z
" clip-path="url(#p8dec87e60d)" style="fill: #13066d; fill-opacity: 0.7; stroke: #0b0441; stroke-opacity: 0.7; stroke-width: 0.842933"/>
    <path d="M 472.26739 198.596579 
C 475.638707 198.596579 478.872397 197.25714 481.256278 194.87326 
C 483.640159 192.489379 484.979597 189.255689 484.979597 185.884372 
C 484.979597 182.513055 483.640159 179.279365 481.256278 176.895484 
C 478.872397 174.511603 475.638707 173.172165 472.26739 173.172165 
C 468.896074 173.172165 465.662383 174.511603 463.278503 176.895484 
C 460.894622 179.279365 459.555183 182.513055 459.555183 185.884372 
C 459.555183 189.255689 460.894622 192.489379 463.278503 194.87326 
C 465.662383 197.25714 468.896074 198.596579 472.26739 198.596579 
z
" clip-path="url(#p8dec87e60d)" style="fill: #13066d; fill-opacity: 0.7; stroke: #0b0441; stroke-opacity: 0.7; stroke-width: 0.842933"/>
    <path d="M 472.26739 254.072076 
C 473.672938 254.072076 475.021107 253.513646 476.01498 252.519774 
C 477.008852 251.525901 477.567282 250.177732 477.567282 248.772184 
C 477.567282 247.366636 477.008852 246.018467 476.01498 245.024595 
C 475.021107 244.030722 473.672938 243.472292 472.26739 243.472292 
C 470.861842 243.472292 469.513673 244.030722 468.519801 245.024595 
C 467.525928 246.018467 466.967498 247.366636 466.967498 248.772184 
C 466.967498 250.177732 467.525928 251.525901 468.519801 252.519774 
C 469.513673 253.513646 470.861842 254.072076 472.26739 254.072076 
z
" clip-path="url(#p8dec87e60d)" style="fill: #13066d; fill-opacity: 0.7; stroke: #0b0441; stroke-opacity: 0.7; stroke-width: 0.842933"/>
    <path d="M 650.432409 290.254647 
C 658.153138 290.254647 665.558684 287.18717 671.018064 281.72779 
C 676.477443 276.268411 679.544921 268.862864 679.544921 261.142136 
C 679.544921 253.421408 676.477443 246.015861 671.018064 240.556482 
C 665.558684 235.097102 658.153138 232.029624 650.432409 232.029624 
C 642.711681 232.029624 635.306135 235.097102 629.846755 240.556482 
C 624.387376 246.015861 621.319898 253.421408 621.319898 261.142136 
C 621.319898 268.862864 624.387376 276.268411 629.846755 281.72779 
C 635.306135 287.18717 642.711681 290.254647 650.432409 290.254647 
z
" clip-path="url(#p8dec87e60d)" style="fill: #13066d; fill-opacity: 0.7; stroke: #0b0441; stroke-opacity: 0.7; stroke-width: 0.842933"/>
    <path d="M 650.432409 188.229275 
C 652.641735 188.229275 654.760869 187.351501 656.323098 185.789272 
C 657.885327 184.227043 658.763101 182.107909 658.763101 179.898584 
C 658.763101 177.689259 657.885327 175.570124 656.323098 174.007895 
C 654.760869 172.445667 652.641735 171.567892 650.432409 171.567892 
C 648.223084 171.567892 646.10395 172.445667 644.541721 174.007895 
C 642.979492 175.570124 642.101718 177.689259 642.101718 179.898584 
C 642.101718 182.107909 642.979492 184.227043 644.541721 185.789272 
C 646.10395 187.351501 648.223084 188.229275 650.432409 188.229275 
z
" clip-path="url(#p8dec87e60d)" style="fill: #13066d; fill-opacity: 0.7; stroke: #0b0441; stroke-opacity: 0.7; stroke-width: 0.842933"/>
    <path d="M 650.432409 171.838874 
C 655.162413 171.838874 659.699324 169.959624 663.043942 166.615007 
C 666.388559 163.270389 668.267809 158.733478 668.267809 154.003475 
C 668.267809 149.273471 666.388559 144.73656 663.043942 141.391943 
C 659.699324 138.047325 655.162413 136.168075 650.432409 136.168075 
C 645.702406 136.168075 641.165495 138.047325 637.820877 141.391943 
C 634.47626 144.73656 632.59701 149.273471 632.59701 154.003475 
C 632.59701 158.733478 634.47626 163.270389 637.820877 166.615007 
C 641.165495 169.959624 645.702406 171.838874 650.432409 171.838874 
z
" clip-path="url(#p8dec87e60d)" style="fill: #13066d; fill-opacity: 0.7; stroke: #0b0441; stroke-opacity: 0.7; stroke-width: 0.842933"/>
    <path d="M 650.432409 189.003062 
C 653.799145 189.003062 657.028441 187.665444 659.409083 185.284802 
C 661.789725 182.90416 663.127343 179.674864 663.127343 176.308128 
C 663.127343 172.941393 661.789725 169.712096 659.409083 167.331455 
C 657.028441 164.950813 653.799145 163.613195 650.432409 163.613195 
C 647.065674 163.613195 643.836378 164.950813 641.455736 167.331455 
C 639.075094 169.712096 637.737476 172.941393 637.737476 176.308128 
C 637.737476 179.674864 639.075094 182.90416 641.455736 185.284802 
C 643.836378 187.665444 647.065674 189.003062 650.432409 189.003062 
z
" clip-path="url(#p8dec87e60d)" style="fill: #13066d; fill-opacity: 0.7; stroke: #0b0441; stroke-opacity: 0.7; stroke-width: 0.842933"/>
    <path d="M 650.432409 212.612655 
C 651.828117 212.612655 653.166847 212.058134 654.153761 211.07122 
C 655.140675 210.084306 655.695196 208.745576 655.695196 207.349869 
C 655.695196 205.954161 655.140675 204.615431 654.153761 203.628517 
C 653.166847 202.641603 651.828117 202.087082 650.432409 202.087082 
C 649.036702 202.087082 647.697972 202.641603 646.711058 203.628517 
C 645.724144 204.615431 645.169623 205.954161 645.169623 207.349869 
C 645.169623 208.745576 645.724144 210.084306 646.711058 211.07122 
C 647.697972 212.058134 649.036702 212.612655 650.432409 212.612655 
z
" clip-path="url(#p8dec87e60d)" style="fill: #13066d; fill-opacity: 0.7; stroke: #0b0441; stroke-opacity: 0.7; stroke-width: 0.842933"/>
    <path d="M 307.003786 156.972899 
C 309.219359 156.972899 311.344487 156.092643 312.911134 154.525996 
C 314.477781 152.959349 315.358037 150.834221 315.358037 148.618648 
C 315.358037 146.403074 314.477781 144.277947 312.911134 142.7113 
C 311.344487 141.144653 309.219359 140.264396 307.003786 140.264396 
C 304.788212 140.264396 302.663085 141.144653 301.096438 142.7113 
C 299.529791 144.277947 298.649534 146.403074 298.649534 148.618648 
C 298.649534 150.834221 299.529791 152.959349 301.096438 154.525996 
C 302.663085 156.092643 304.788212 156.972899 307.003786 156.972899 
z
" clip-path="url(#p8dec87e60d)" style="fill: #13066d; fill-opacity: 0.7; stroke: #0b0441; stroke-opacity: 0.7; stroke-width: 0.842933"/>
    <path d="M 134.385517 328.35199 
C 136.596017 328.35199 138.716278 327.47375 140.279338 325.91069 
C 141.842397 324.347631 142.720638 322.22737 142.720638 320.01687 
C 142.720638 317.80637 141.842397 315.686109 140.279338 314.12305 
C 138.716278 312.55999 136.596017 311.681749 134.385517 311.681749 
C 132.175018 311.681749 130.054757 312.55999 128.491697 314.12305 
C 126.928638 315.686109 126.050397 317.80637 126.050397 320.01687 
C 126.050397 322.22737 126.928638 324.347631 128.491697 325.91069 
C 130.054757 327.47375 132.175018 328.35199 134.385517 328.35199 
z
" clip-path="url(#p8dec87e60d)" style="fill: #13066d; fill-opacity: 0.7; stroke: #0b0441; stroke-opacity: 0.7; stroke-width: 0.842933"/>
    <path d="M 134.385517 409.374386 
C 136.596017 409.374386 138.716278 408.496145 140.279338 406.933085 
C 141.842397 405.370026 142.720638 403.249765 142.720638 401.039265 
C 142.720638 398.828765 141.842397 396.708504 140.279338 395.145445 
C 138.716278 393.582385 136.596017 392.704144 134.385517 392.704144 
C 132.175018 392.704144 130.054757 393.582385 128.491697 395.145445 
C 126.928638 396.708504 126.050397 398.828765 126.050397 401.039265 
C 126.050397 403.249765 126.928638 405.370026 128.491697 406.933085 
C 130.054757 408.496145 132.175018 409.374386 134.385517 409.374386 
z
" clip-path="url(#p8dec87e60d)" style="fill: #13066d; fill-opacity: 0.7; stroke: #0b0441; stroke-opacity: 0.7; stroke-width: 0.842933"/>
    <path d="M 662.095866 207.754536 
C 664.306372 207.754536 666.426639 206.876293 667.989703 205.313229 
C 669.552767 203.750165 670.431011 201.629897 670.431011 199.419391 
C 670.431011 197.208884 669.552767 195.088617 667.989703 193.525553 
C 666.426639 191.962489 664.306372 191.084245 662.095866 191.084245 
C 659.885359 191.084245 657.765092 191.962489 656.202028 193.525553 
C 654.638964 195.088617 653.76072 197.208884 653.76072 199.419391 
C 653.76072 201.629897 654.638964 203.750165 656.202028 205.313229 
C 657.765092 206.876293 659.885359 207.754536 662.095866 207.754536 
z
" clip-path="url(#p8dec87e60d)" style="fill: #13066d; fill-opacity: 0.7; stroke: #0b0441; stroke-opacity: 0.7; stroke-width: 0.842933"/>
    <path d="M 546.591731 336.473415 
C 548.802237 336.473415 550.922505 335.595172 552.485569 334.032108 
C 554.048633 332.469044 554.926876 330.348776 554.926876 328.13827 
C 554.926876 325.927763 554.048633 323.807496 552.485569 322.244432 
C 550.922505 320.681368 548.802237 319.803124 546.591731 319.803124 
C 544.381225 319.803124 542.260957 320.681368 540.697893 322.244432 
C 539.134829 323.807496 538.256586 325.927763 538.256586 328.13827 
C 538.256586 330.348776 539.134829 332.469044 540.697893 334.032108 
C 542.260957 335.595172 544.381225 336.473415 546.591731 336.473415 
z
" clip-path="url(#p8dec87e60d)" style="fill: #13066d; fill-opacity: 0.7; stroke: #0b0441; stroke-opacity: 0.7; stroke-width: 0.842933"/>
    <path d="M 662.095866 221.527587 
C 667.126376 221.527587 671.951528 219.528944 675.508636 215.971835 
C 679.065744 212.414727 681.064387 207.589576 681.064387 202.559065 
C 681.064387 197.528554 679.065744 192.703403 675.508636 189.146295 
C 671.951528 185.589186 667.126376 183.590543 662.095866 183.590543 
C 657.065355 183.590543 652.240203 185.589186 648.683095 189.146295 
C 645.125987 192.703403 643.127344 197.528554 643.127344 202.559065 
C 643.127344 207.589576 645.125987 212.414727 648.683095 215.971835 
C 652.240203 219.528944 657.065355 221.527587 662.095866 221.527587 
z
" clip-path="url(#p8dec87e60d)" style="fill: #13066d; fill-opacity: 0.7; stroke: #0b0441; stroke-opacity: 0.7; stroke-width: 0.842933"/>
    <path d="M 307.003786 541.554936 
C 311.305728 541.554936 315.432053 539.845756 318.473985 536.803824 
C 321.515918 533.761891 323.225097 529.635567 323.225097 525.333624 
C 323.225097 521.031682 321.515918 516.905358 318.473985 513.863425 
C 315.432053 510.821493 311.305728 509.112313 307.003786 509.112313 
C 302.701844 509.112313 298.575519 510.821493 295.533586 513.863425 
C 292.491654 516.905358 290.782474 521.031682 290.782474 525.333624 
C 290.782474 529.635567 292.491654 533.761891 295.533586 536.803824 
C 298.575519 539.845756 302.701844 541.554936 307.003786 541.554936 
z
" clip-path="url(#p8dec87e60d)" style="fill: #13066d; fill-opacity: 0.7; stroke: #0b0441; stroke-opacity: 0.7; stroke-width: 0.842933"/>
    <path d="M 662.095866 211.939444 
C 666.394083 211.939444 670.516836 210.231744 673.556135 207.192445 
C 676.595434 204.153146 678.303135 200.030393 678.303135 195.732175 
C 678.303135 191.433957 676.595434 187.311204 673.556135 184.271905 
C 670.516836 181.232606 666.394083 179.524906 662.095866 179.524906 
C 657.797648 179.524906 653.674895 181.232606 650.635596 184.271905 
C 647.596297 187.311204 645.888597 191.433957 645.888597 195.732175 
C 645.888597 200.030393 647.596297 204.153146 650.635596 207.192445 
C 653.674895 210.231744 657.797648 211.939444 662.095866 211.939444 
z
" clip-path="url(#p8dec87e60d)" style="fill: #13066d; fill-opacity: 0.7; stroke: #0b0441; stroke-opacity: 0.7; stroke-width: 0.842933"/>
    <path d="M 307.003786 245.659097 
C 310.375038 245.659097 313.608667 244.319684 315.992502 241.935849 
C 318.376338 239.552013 319.71575 236.318385 319.71575 232.947133 
C 319.71575 229.57588 318.376338 226.342252 315.992502 223.958416 
C 313.608667 221.574581 310.375038 220.235168 307.003786 220.235168 
C 303.632533 220.235168 300.398905 221.574581 298.015069 223.958416 
C 295.631234 226.342252 294.291821 229.57588 294.291821 232.947133 
C 294.291821 236.318385 295.631234 239.552013 298.015069 241.935849 
C 300.398905 244.319684 303.632533 245.659097 307.003786 245.659097 
z
" clip-path="url(#p8dec87e60d)" style="fill: #13066d; fill-opacity: 0.7; stroke: #0b0441; stroke-opacity: 0.7; stroke-width: 0.842933"/>
    <path d="M 662.095866 175.690673 
C 665.462779 175.690673 668.692247 174.352984 671.073014 171.972217 
C 673.453782 169.591449 674.791471 166.361982 674.791471 162.995068 
C 674.791471 159.628154 673.453782 156.398687 671.073014 154.017919 
C 668.692247 151.637152 665.462779 150.299463 662.095866 150.299463 
C 658.728952 150.299463 655.499484 151.637152 653.118717 154.017919 
C 650.737949 156.398687 649.40026 159.628154 649.40026 162.995068 
C 649.40026 166.361982 650.737949 169.591449 653.118717 171.972217 
C 655.499484 174.352984 658.728952 175.690673 662.095866 175.690673 
z
" clip-path="url(#p8dec87e60d)" style="fill: #13066d; fill-opacity: 0.7; stroke: #0b0441; stroke-opacity: 0.7; stroke-width: 0.842933"/>
    <path d="M 546.591731 249.158131 
C 549.958645 249.158131 553.188112 247.820442 555.56888 245.439674 
C 557.949647 243.058907 559.287336 239.82944 559.287336 236.462526 
C 559.287336 233.095612 557.949647 229.866145 555.56888 227.485377 
C 553.188112 225.104609 549.958645 223.76692 546.591731 223.76692 
C 543.224817 223.76692 539.99535 225.104609 537.614582 227.485377 
C 535.233815 229.866145 533.896126 233.095612 533.896126 236.462526 
C 533.896126 239.82944 535.233815 243.058907 537.614582 245.439674 
C 539.99535 247.820442 543.224817 249.158131 546.591731 249.158131 
z
" clip-path="url(#p8dec87e60d)" style="fill: #13066d; fill-opacity: 0.7; stroke: #0b0441; stroke-opacity: 0.7; stroke-width: 0.842933"/>
    <path d="M 307.003786 222.531682 
C 308.404151 222.531682 309.74735 221.975311 310.737558 220.985103 
C 311.727766 219.994895 312.284137 218.651696 312.284137 217.251331 
C 312.284137 215.850965 311.727766 214.507766 310.737558 213.517559 
C 309.74735 212.527351 308.404151 211.97098 307.003786 211.97098 
C 305.60342 211.97098 304.260222 212.527351 303.270014 213.517559 
C 302.279806 214.507766 301.723435 215.850965 301.723435 217.251331 
C 301.723435 218.651696 302.279806 219.994895 303.270014 220.985103 
C 304.260222 221.975311 305.60342 222.531682 307.003786 222.531682 
z
" clip-path="url(#p8dec87e60d)" style="fill: #13066d; fill-opacity: 0.7; stroke: #0b0441; stroke-opacity: 0.7; stroke-width: 0.842933"/>
    <path d="M 134.385517 402.604015 
C 135.782696 402.604015 137.122837 402.04891 138.110791 401.060956 
C 139.098745 400.073002 139.65385 398.732861 139.65385 397.335683 
C 139.65385 395.938504 139.098745 394.598363 138.110791 393.610409 
C 137.122837 392.622455 135.782696 392.06735 134.385517 392.06735 
C 132.988339 392.06735 131.648198 392.622455 130.660244 393.610409 
C 129.67229 394.598363 129.117185 395.938504 129.117185 397.335683 
C 129.117185 398.732861 129.67229 400.073002 130.660244 401.060956 
C 131.648198 402.04891 132.988339 402.604015 134.385517 402.604015 
z
" clip-path="url(#p8dec87e60d)" style="fill: #13066d; fill-opacity: 0.7; stroke: #0b0441; stroke-opacity: 0.7; stroke-width: 0.842933"/>
    <path d="M 134.385517 430.483583 
C 135.782696 430.483583 137.122837 429.928479 138.110791 428.940524 
C 139.098745 427.95257 139.65385 426.612429 139.65385 425.215251 
C 139.65385 423.818072 139.098745 422.477931 138.110791 421.489977 
C 137.122837 420.502023 135.782696 419.946918 134.385517 419.946918 
C 132.988339 419.946918 131.648198 420.502023 130.660244 421.489977 
C 129.67229 422.477931 129.117185 423.818072 129.117185 425.215251 
C 129.117185 426.612429 129.67229 427.95257 130.660244 428.940524 
C 131.648198 429.928479 132.988339 430.483583 134.385517 430.483583 
z
" clip-path="url(#p8dec87e60d)" style="fill: #13066d; fill-opacity: 0.7; stroke: #0b0441; stroke-opacity: 0.7; stroke-width: 0.842933"/>
    <path d="M 307.003786 392.151174 
C 307.891751 392.151174 308.743468 391.798382 309.371354 391.170495 
C 309.999241 390.542609 310.352033 389.690892 310.352033 388.802927 
C 310.352033 387.914961 309.999241 387.063245 309.371354 386.435358 
C 308.743468 385.807472 307.891751 385.454679 307.003786 385.454679 
C 306.11582 385.454679 305.264104 385.807472 304.636217 386.435358 
C 304.008331 387.063245 303.655538 387.914961 303.655538 388.802927 
C 303.655538 389.690892 304.008331 390.542609 304.636217 391.170495 
C 305.264104 391.798382 306.11582 392.151174 307.003786 392.151174 
z
" clip-path="url(#p8dec87e60d)" style="fill: #13066d; fill-opacity: 0.7; stroke: #0b0441; stroke-opacity: 0.7; stroke-width: 0.842933"/>
   </g>
   <g id="PathCollection_3">
    <path d="M 0 725.872117 
C 1.557304 725.872117 3.051034 725.253394 4.152214 724.152214 
C 5.253394 723.051034 5.872117 721.557304 5.872117 720 
C 5.872117 718.442696 5.253394 716.948966 4.152214 715.847786 
C 3.051034 714.746606 1.557304 714.127883 0 714.127883 
C -1.557304 714.127883 -3.051034 714.746606 -4.152214 715.847786 
C -5.253394 716.948966 -5.872117 718.442696 -5.872117 720 
C -5.872117 721.557304 -5.253394 723.051034 -4.152214 724.152214 
C -3.051034 725.253394 -1.557304 725.872117 0 725.872117 
z
" clip-path="url(#p8dec87e60d)" style="fill: #808080; fill-opacity: 0.5"/>
   </g>
   <g id="PathCollection_4">
    <path d="M 0 730.04118 
C 2.662952 730.04118 5.217195 728.983178 7.100186 727.100186 
C 8.983178 725.217195 10.04118 722.662952 10.04118 720 
C 10.04118 717.337048 8.983178 714.782805 7.100186 712.899814 
C 5.217195 711.016822 2.662952 709.95882 0 709.95882 
C -2.662952 709.95882 -5.217195 711.016822 -7.100186 712.899814 
C -8.983178 714.782805 -10.04118 717.337048 -10.04118 720 
C -10.04118 722.662952 -8.983178 725.217195 -7.100186 727.100186 
C -5.217195 728.983178 -2.662952 730.04118 0 730.04118 
z
" clip-path="url(#p8dec87e60d)" style="fill: #808080; fill-opacity: 0.5"/>
   </g>
   <g id="PathCollection_5">
    <path d="M 0 738.898224 
C 5.011867 738.898224 9.819137 736.906988 13.363062 733.363062 
C 16.906988 729.819137 18.898224 725.011867 18.898224 720 
C 18.898224 714.988133 16.906988 710.180863 13.363062 706.636938 
C 9.819137 703.093012 5.011867 701.101776 0 701.101776 
C -5.011867 701.101776 -9.819137 703.093012 -13.363062 706.636938 
C -16.906988 710.180863 -18.898224 714.988133 -18.898224 720 
C -18.898224 725.011867 -16.906988 729.819137 -13.363062 733.363062 
C -9.819137 736.906988 -5.011867 738.898224 0 738.898224 
z
" clip-path="url(#p8dec87e60d)" style="fill: #808080; fill-opacity: 0.5"/>
   </g>
   <g id="line2d_11">
    <path d="M 134.385517 473.967497 
L 662.095866 224.663291 
L 662.095866 224.663291 
" clip-path="url(#p8dec87e60d)" style="fill: none; stroke: #ff8d00; stroke-opacity: 0.9; stroke-width: 2; stroke-linecap: round"/>
   </g>
   <g id="line2d_12">
    <path d="M 134.385517 371.858567 
L 662.095866 189.033005 
L 662.095866 189.033005 
" clip-path="url(#p8dec87e60d)" style="fill: none; stroke: #13066d; stroke-opacity: 0.9; stroke-width: 2; stroke-linecap: round"/>
   </g>
   <g id="line2d_13">
    <path d="M 108 271.0152 
L 777.6 271.0152 
" clip-path="url(#p8dec87e60d)" style="fill: none; stroke-dasharray: 5.55,2.4; stroke-dashoffset: 0; stroke: #c44e52; stroke-width: 1.5"/>
   </g>
   <g id="line2d_14">
    <path d="M 108 91.944 
L 777.6 91.944 
" clip-path="url(#p8dec87e60d)" style="fill: none; stroke-dasharray: 5.55,2.4; stroke-dashoffset: 0; stroke: #68c3d4; stroke-width: 1.5"/>
   </g>
   <g id="patch_3">
    <path d="M 108 640.8 
L 108 86.4 
" style="fill: none; stroke: #262626; stroke-width: 1.25; stroke-linejoin: miter; stroke-linecap: square"/>
   </g>
   <g id="patch_4">
    <path d="M 116.60377 640.8 
L 777.6 640.8 
" style="fill: none; stroke: #262626; stroke-width: 1.25; stroke-linejoin: miter; stroke-linecap: square"/>
   </g>
   <g id="legend_1">
    <g id="text_6">
     <text style="fill: #262626; font: 25px 'Arial', 'DejaVu Sans', 'Liberation Sans', 'Bitstream Vera Sans', sans-serif; text-anchor: start" x="583.939844" y="384.95625" transform="rotate(-0 583.939844 384.95625)">Model size</text>
    </g>
    <g id="PathCollection_6">
     <path d="M 557.267969 446.062742 
C 558.825273 446.062742 560.319003 445.444019 561.420183 444.342839 
C 562.521363 443.241659 563.140086 441.747929 563.140086 440.190625 
C 563.140086 438.633321 562.521363 437.139591 561.420183 436.038411 
C 560.319003 434.937231 558.825273 434.318508 557.267969 434.318508 
C 555.710665 434.318508 554.216935 434.937231 553.115755 436.038411 
C 552.014575 437.139591 551.395851 438.633321 551.395851 440.190625 
C 551.395851 441.747929 552.014575 443.241659 553.115755 444.342839 
C 554.216935 445.444019 555.710665 446.062742 557.267969 446.062742 
z
" style="fill: #808080; fill-opacity: 0.5"/>
    </g>
    <g id="text_7">
     <text style="fill: #262626; font: 25px 'Arial', 'DejaVu Sans', 'Liberation Sans', 'Bitstream Vera Sans', sans-serif; text-anchor: start" x="602.267969" y="454.675" transform="rotate(-0 602.267969 454.675)">30M params</text>
    </g>
    <g id="PathCollection_7">
     <path d="M 557.267969 526.356805 
C 559.930921 526.356805 562.485164 525.298803 564.368155 523.415811 
C 566.251146 521.53282 567.309148 518.978577 567.309148 516.315625 
C 567.309148 513.652673 566.251146 511.09843 564.368155 509.215439 
C 562.485164 507.332447 559.930921 506.274445 557.267969 506.274445 
C 554.605017 506.274445 552.050774 507.332447 550.167783 509.215439 
C 548.284791 511.09843 547.226789 513.652673 547.226789 516.315625 
C 547.226789 518.978577 548.284791 521.53282 550.167783 523.415811 
C 552.050774 525.298803 554.605017 526.356805 557.267969 526.356805 
z
" style="fill: #808080; fill-opacity: 0.5"/>
    </g>
    <g id="text_8">
     <text style="fill: #262626; font: 25px 'Arial', 'DejaVu Sans', 'Liberation Sans', 'Bitstream Vera Sans', sans-serif; text-anchor: start" x="602.267969" y="530.8" transform="rotate(-0 602.267969 530.8)">150M params</text>
    </g>
    <g id="PathCollection_8">
     <path d="M 557.267969 611.338849 
C 562.279836 611.338849 567.087105 609.347613 570.631031 605.803687 
C 574.174956 602.259762 576.166192 597.452492 576.166192 592.440625 
C 576.166192 587.428758 574.174956 582.621488 570.631031 579.077563 
C 567.087105 575.533637 562.279836 573.542401 557.267969 573.542401 
C 552.256101 573.542401 547.448832 575.533637 543.904907 579.077563 
C 540.360981 582.621488 538.369745 587.428758 538.369745 592.440625 
C 538.369745 597.452492 540.360981 602.259762 543.904907 605.803687 
C 547.448832 609.347613 552.256101 611.338849 557.267969 611.338849 
z
" style="fill: #808080; fill-opacity: 0.5"/>
    </g>
    <g id="text_9">
     <text style="fill: #262626; font: 25px 'Arial', 'DejaVu Sans', 'Liberation Sans', 'Bitstream Vera Sans', sans-serif; text-anchor: start" x="602.267969" y="606.925" transform="rotate(-0 602.267969 606.925)">1.0B params</text>
    </g>
   </g>
  </g>
 </g>
 <defs>
  <clipPath id="p8dec87e60d">
   <rect x="108" y="86.4" width="669.6" height="554.4"/>
  </clipPath>
 </defs>
</svg>
