<?xml version="1.0" encoding="utf-8" standalone="no"?>
<!DOCTYPE svg PUBLIC "-//W3C//DTD SVG 1.1//EN"
  "http://www.w3.org/Graphics/SVG/1.1/DTD/svg11.dtd">
<svg xmlns:xlink="http://www.w3.org/1999/xlink" width="864pt" height="720pt" viewBox="0 0 864 720" xmlns="http://www.w3.org/2000/svg" version="1.1">
 <metadata>
  <rdf:RDF xmlns:dc="http://purl.org/dc/elements/1.1/" xmlns:cc="http://creativecommons.org/ns#" xmlns:rdf="http://www.w3.org/1999/02/22-rdf-syntax-ns#">
   <cc:Work>
    <dc:type rdf:resource="http://purl.org/dc/dcmitype/StillImage"/>
    <dc:date>2026-03-06T10:37:25.632843</dc:date>
    <dc:format>image/svg+xml</dc:format>
    <dc:creator>
     <cc:Agent>
      <dc:title>Matplotlib v3.9.4, https://matplotlib.org/</dc:title>
     </cc:Agent>
    </dc:creator>
   </cc:Work>
  </rdf:RDF>
 </metadata>
 <defs>
  <style type="text/css">*{stroke-linejoin: round; stroke-linecap: butt}</style>
 </defs>
 <g id="figure_1">
  <g id="patch_1">
   <path d="M 0 720 
L 864 720 
L 864 0 
L 0 0 
z
" style="fill: #ffffff"/>
  </g>
  <g id="axes_1">
   <g id="patch_2">
    <path d="M 108 640.8 
L 777.6 640.8 
L 777.6 86.4 
L 108 86.4 
z
" style="fill: #ffffff"/>
   </g>
   <g id="matplotlib.axis_1">
    <g id="xtick_1">
     <g id="line2d_1">
      <defs>
       <path id="m75ad4b5e9e" d="M 0 0 
L 0 6 
" style="stroke: #262626; stroke-width: 1.25"/>
      </defs>
      <g>
       <use xlink:href="#m75ad4b5e9e" x="116.60377" y="650.8" style="fill: #262626; stroke: #262626; stroke-width: 1.25"/>
      </g>
     </g>
    </g>
    <g id="xtick_2">
     <g id="line2d_2">
      <g>
       <use xlink:href="#m75ad4b5e9e" x="281.852827" y="650.8" style="fill: #262626; stroke: #262626; stroke-width: 1.25"/>
      </g>
     </g>
    </g>
    <g id="xtick_3">
     <g id="line2d_3">
      <g>
       <use xlink:href="#m75ad4b5e9e" x="447.101885" y="650.8" style="fill: #262626; stroke: #262626; stroke-width: 1.25"/>
      </g>
     </g>
    </g>
    <g id="xtick_4">
     <g id="line2d_4">
      <g>
       <use xlink:href="#m75ad4b5e9e" x="612.350942" y="650.8" style="fill: #262626; stroke: #262626; stroke-width: 1.25"/>
      </g>
     </g>
    </g>
    <g id="xtick_5">
     <g id="line2d_5">
      <g>
       <use xlink:href="#m75ad4b5e9e" x="777.6" y="650.8" style="fill: #262626; stroke: #262626; stroke-width: 1.25"/>
      </g>
     </g>
    </g>
    <g id="xtick_6"/>
    <g id="xtick_7"/>
    <g id="xtick_8"/>
    <g id="xtick_9"/>
    <g id="xtick_10"/>
    <g id="xtick_11"/>
    <g id="xtick_12"/>
    <g id="xtick_13"/>
    <g id="xtick_14"/>
    <g id="xtick_15"/>
    <g id="xtick_16"/>
    <g id="xtick_17"/>
    <g id="xtick_18"/>
    <g id="xtick_19"/>
    <g id="xtick_20"/>
    <g id="xtick_21"/>
    <g id="xtick_22"/>
    <g id="xtick_23"/>
    <g id="xtick_24"/>
    <g id="xtick_25"/>
    <g id="xtick_26"/>
    <g id="xtick_27"/>
    <g id="xtick_28"/>
    <g id="xtick_29"/>
    <g id="xtick_30"/>
    <g id="xtick_31"/>
    <g id="xtick_32"/>
    <g id="xtick_33"/>
    <g id="xtick_34"/>
    <g id="xtick_35"/>
    <g id="xtick_36"/>
    <g id="xtick_37"/>
    <g id="xtick_38"/>
   </g>
   <g id="matplotlib.axis_2">
    <g id="ytick_1">
     <g id="line2d_6">
      <defs>
       <path id="me51034febc" d="M 0 0 
L -6 0 
" style="stroke: #262626; stroke-width: 1.25"/>
      </defs>
      <g>
       <use xlink:href="#me51034febc" x="108" y="640.8" style="fill: #262626; stroke: #262626; stroke-width: 1.25"/>
      </g>
     </g>
     <g id="text_1">
      <text style="fill: #262626; font: 25px 'Arial', 'DejaVu Sans', 'Liberation Sans', 'Bitstream Vera Sans', sans-serif; text-anchor: end" x="98.5" y="649.747266" transform="rotate(-0 98.5 649.747266)">0.00</text>
     </g>
    </g>
    <g id="ytick_2">
     <g id="line2d_7">
      <g>
       <use xlink:href="#me51034febc" x="108" y="502.2" style="fill: #262626; stroke: #262626; stroke-width: 1.25"/>
      </g>
     </g>
     <g id="text_2">
      <text style="fill: #262626; font: 25px 'Arial', 'DejaVu Sans', 'Liberation Sans', 'Bitstream Vera Sans', sans-serif; text-anchor: end" x="98.5" y="511.147266" transform="rotate(-0 98.5 511.147266)">0.25</text>
     </g>
    </g>
    <g id="ytick_3">
     <g id="line2d_8">
      <g>
       <use xlink:href="#me51034febc" x="108" y="363.6" style="fill: #262626; stroke: #262626; stroke-width: 1.25"/>
      </g>
     </g>
     <g id="text_3">
      <text style="fill: #262626; font: 25px 'Arial', 'DejaVu Sans', 'Liberation Sans', 'Bitstream Vera Sans', sans-serif; text-anchor: end" x="98.5" y="372.547266" transform="rotate(-0 98.5 372.547266)">0.50</text>
     </g>
    </g>
    <g id="ytick_4">
     <g id="line2d_9">
      <g>
       <use xlink:href="#me51034febc" x="108" y="225" style="fill: #262626; stroke: #262626; stroke-width: 1.25"/>
      </g>
     </g>
     <g id="text_4">
      <text style="fill: #262626; font: 25px 'Arial', 'DejaVu Sans', 'Liberation Sans', 'Bitstream Vera Sans', sans-serif; text-anchor: end" x="98.5" y="233.947266" transform="rotate(-0 98.5 233.947266)">0.75</text>
     </g>
    </g>
    <g id="ytick_5">
     <g id="line2d_10">
      <g>
       <use xlink:href="#me51034febc" x="108" y="86.4" style="fill: #262626; stroke: #262626; stroke-width: 1.25"/>
      </g>
     </g>
     <g id="text_5">
      <text style="fill: #262626; font: 25px 'Arial', 'DejaVu Sans', 'Liberation Sans', 'Bitstream Vera Sans', sans-serif; text-anchor: end" x="98.5" y="95.347266" transform="rotate(-0 98.5 95.347266)">1.00</text>
     </g>
    </g>
   </g>
   <g id="PathCollection_1">
    <path d="M 662.095866 481.477126 
C 664.32144 481.477126 666.45616 480.592896 668.029879 479.019177 
C 669.603598 477.445458 670.487828 475.310738 670.487828 473.085163 
C 670.487828 470.859589 669.603598 468.724868 668.029879 467.15115 
C 666.45616 465.577431 664.32144 464.693201 662.095866 464.693201 
C 659.870291 464.693201 657.735571 465.577431 656.161852 467.15115 
C 654.588133 468.724868 653.703903 470.859589 653.703903 473.085163 
C 653.703903 475.310738 654.588133 477.445458 656.161852 479.019177 
C 657.735571 480.592896 659.870291 481.477126 662.095866 481.477126 
z
" clip-path="url(#p0bc824ec91)" style="fill: #ff8d00; fill-opacity: 0.7; stroke: #995500; stroke-opacity: 0.7; stroke-width: 0.866426"/>
    <path d="M 134.385517 555.710042 
C 136.611092 555.710042 138.745812 554.825812 140.319531 553.252093 
C 141.89325 551.678374 142.77748 549.543654 142.77748 547.318079 
C 142.77748 545.092505 141.89325 542.957784 140.319531 541.384066 
C 138.745812 539.810347 136.611092 538.926117 134.385517 538.926117 
C 132.159943 538.926117 130.025223 539.810347 128.451504 541.384066 
C 126.877785 542.957784 125.993555 545.092505 125.993555 547.318079 
C 125.993555 549.543654 126.877785 551.678374 128.451504 553.252093 
C 130.025223 554.825812 132.159943 555.710042 134.385517 555.710042 
z
" clip-path="url(#p0bc824ec91)" style="fill: #ff8d00; fill-opacity: 0.7; stroke: #995500; stroke-opacity: 0.7; stroke-width: 0.866426"/>
    <path d="M 307.003786 562.673709 
C 309.22936 562.673709 311.364081 561.789479 312.937799 560.215761 
C 314.511518 558.642042 315.395748 556.507321 315.395748 554.281747 
C 315.395748 552.056172 314.511518 549.921452 312.937799 548.347733 
C 311.364081 546.774014 309.22936 545.889784 307.003786 545.889784 
C 304.778211 545.889784 302.643491 546.774014 301.069772 548.347733 
C 299.496053 549.921452 298.611823 552.056172 298.611823 554.281747 
C 298.611823 556.507321 299.496053 558.642042 301.069772 560.215761 
C 302.643491 561.789479 304.778211 562.673709 307.003786 562.673709 
z
" clip-path="url(#p0bc824ec91)" style="fill: #ff8d00; fill-opacity: 0.7; stroke: #995500; stroke-opacity: 0.7; stroke-width: 0.866426"/>
    <path d="M 134.385517 567.629964 
C 137.297929 567.629964 140.091447 566.472851 142.150833 564.413466 
C 144.210219 562.35408 145.367332 559.560561 145.367332 556.64815 
C 145.367332 553.735739 144.210219 550.94222 142.150833 548.882835 
C 140.091447 546.823449 137.297929 545.666336 134.385517 545.666336 
C 131.473106 545.666336 128.679588 546.823449 126.620202 548.882835 
C 124.560816 550.94222 123.403703 553.735739 123.403703 556.64815 
C 123.403703 559.560561 124.560816 562.35408 126.620202 564.413466 
C 128.679588 566.472851 131.473106 567.629964 134.385517 567.629964 
z
" clip-path="url(#p0bc824ec91)" style="fill: #ff8d00; fill-opacity: 0.7; stroke: #995500; stroke-opacity: 0.7; stroke-width: 0.866426"/>
    <path d="M 307.003786 578.192483 
C 309.916197 578.192483 312.709715 577.035369 314.769101 574.975984 
C 316.828487 572.916598 317.9856 570.123079 317.9856 567.210668 
C 317.9856 564.298257 316.828487 561.504738 314.769101 559.445353 
C 312.709715 557.385967 309.916197 556.228854 307.003786 556.228854 
C 304.091375 556.228854 301.297856 557.385967 299.23847 559.445353 
C 297.179085 561.504738 296.021971 564.298257 296.021971 567.210668 
C 296.021971 570.123079 297.179085 572.916598 299.23847 574.975984 
C 301.297856 577.035369 304.091375 578.192483 307.003786 578.192483 
z
" clip-path="url(#p0bc824ec91)" style="fill: #ff8d00; fill-opacity: 0.7; stroke: #995500; stroke-opacity: 0.7; stroke-width: 0.866426"/>
    <path d="M 662.095866 495.614845 
C 665.008277 495.614845 667.801795 494.457732 669.861181 492.398346 
C 671.920567 490.338961 673.07768 487.545442 673.07768 484.633031 
C 673.07768 481.72062 671.920567 478.927101 669.861181 476.867716 
C 667.801795 474.80833 665.008277 473.651217 662.095866 473.651217 
C 659.183454 473.651217 656.389936 474.80833 654.33055 476.867716 
C 652.271164 478.927101 651.114051 481.72062 651.114051 484.633031 
C 651.114051 487.545442 652.271164 490.338961 654.33055 492.398346 
C 656.389936 494.457732 659.183454 495.614845 662.095866 495.614845 
z
" clip-path="url(#p0bc824ec91)" style="fill: #ff8d00; fill-opacity: 0.7; stroke: #995500; stroke-opacity: 0.7; stroke-width: 0.866426"/>
    <path d="M 134.385517 565.6793 
C 136.225149 565.6793 137.989682 564.948406 139.290498 563.64759 
C 140.591314 562.346774 141.322208 560.582241 141.322208 558.742609 
C 141.322208 556.902978 140.591314 555.138445 139.290498 553.837629 
C 137.989682 552.536812 136.225149 551.805919 134.385517 551.805919 
C 132.545886 551.805919 130.781353 552.536812 129.480537 553.837629 
C 128.17972 555.138445 127.448827 556.902978 127.448827 558.742609 
C 127.448827 560.582241 128.17972 562.346774 129.480537 563.64759 
C 130.781353 564.948406 132.545886 565.6793 134.385517 565.6793 
z
" clip-path="url(#p0bc824ec91)" style="fill: #ff8d00; fill-opacity: 0.7; stroke: #995500; stroke-opacity: 0.7; stroke-width: 0.866426"/>
    <path d="M 307.003786 569.755541 
C 308.843418 569.755541 310.60795 569.024648 311.908767 567.723832 
C 313.209583 566.423016 313.940476 564.658483 313.940476 562.818851 
C 313.940476 560.979219 313.209583 559.214686 311.908767 557.91387 
C 310.60795 556.613054 308.843418 555.882161 307.003786 555.882161 
C 305.164154 555.882161 303.399621 556.613054 302.098805 557.91387 
C 300.797989 559.214686 300.067095 560.979219 300.067095 562.818851 
C 300.067095 564.658483 300.797989 566.423016 302.098805 567.723832 
C 303.399621 569.024648 305.164154 569.755541 307.003786 569.755541 
z
" clip-path="url(#p0bc824ec91)" style="fill: #ff8d00; fill-opacity: 0.7; stroke: #995500; stroke-opacity: 0.7; stroke-width: 0.866426"/>
    <path d="M 134.385517 576.859153 
C 135.904122 576.859153 137.360732 576.255805 138.434548 575.18199 
C 139.508363 574.108175 140.111711 572.651564 140.111711 571.13296 
C 140.111711 569.614355 139.508363 568.157745 138.434548 567.083929 
C 137.360732 566.010114 135.904122 565.406766 134.385517 565.406766 
C 132.866913 565.406766 131.410302 566.010114 130.336487 567.083929 
C 129.262672 568.157745 128.659324 569.614355 128.659324 571.13296 
C 128.659324 572.651564 129.262672 574.108175 130.336487 575.18199 
C 131.410302 576.255805 132.866913 576.859153 134.385517 576.859153 
z
" clip-path="url(#p0bc824ec91)" style="fill: #ff8d00; fill-opacity: 0.7; stroke: #995500; stroke-opacity: 0.7; stroke-width: 0.866426"/>
    <path d="M 307.003786 584.545968 
C 308.52239 584.545968 309.979001 583.94262 311.052816 582.868805 
C 312.126632 581.794989 312.729979 580.338379 312.729979 578.819774 
C 312.729979 577.30117 312.126632 575.844559 311.052816 574.770744 
C 309.979001 573.696929 308.52239 573.093581 307.003786 573.093581 
C 305.485181 573.093581 304.028571 573.696929 302.954755 574.770744 
C 301.88094 575.844559 301.277592 577.30117 301.277592 578.819774 
C 301.277592 580.338379 301.88094 581.794989 302.954755 582.868805 
C 304.028571 583.94262 305.485181 584.545968 307.003786 584.545968 
z
" clip-path="url(#p0bc824ec91)" style="fill: #ff8d00; fill-opacity: 0.7; stroke: #995500; stroke-opacity: 0.7; stroke-width: 0.866426"/>
    <path d="M 662.095866 496.148404 
C 666.831113 496.148404 671.373055 494.267071 674.721381 490.918745 
C 678.069707 487.570419 679.951041 483.028477 679.951041 478.293229 
C 679.951041 473.557981 678.069707 469.016039 674.721381 465.667713 
C 671.373055 462.319388 666.831113 460.438054 662.095866 460.438054 
C 657.360618 460.438054 652.818676 462.319388 649.47035 465.667713 
C 646.122024 469.016039 644.24069 473.557981 644.24069 478.293229 
C 644.24069 483.028477 646.122024 487.570419 649.47035 490.918745 
C 652.818676 494.267071 657.360618 496.148404 662.095866 496.148404 
z
" clip-path="url(#p0bc824ec91)" style="fill: #ff8d00; fill-opacity: 0.7; stroke: #995500; stroke-opacity: 0.7; stroke-width: 0.866426"/>
    <path d="M 134.385517 553.054652 
C 136.266976 553.054652 138.071629 552.30714 139.402021 550.976748 
C 140.732413 549.646356 141.479924 547.841704 141.479924 545.960245 
C 141.479924 544.078786 140.732413 542.274134 139.402021 540.943742 
C 138.071629 539.613349 136.266976 538.865838 134.385517 538.865838 
C 132.504059 538.865838 130.699406 539.613349 129.369014 540.943742 
C 128.038622 542.274134 127.29111 544.078786 127.29111 545.960245 
C 127.29111 547.841704 128.038622 549.646356 129.369014 550.976748 
C 130.699406 552.30714 132.504059 553.054652 134.385517 553.054652 
z
" clip-path="url(#p0bc824ec91)" style="fill: #ff8d00; fill-opacity: 0.7; stroke: #995500; stroke-opacity: 0.7; stroke-width: 0.866426"/>
    <path d="M 650.432409 498.710269 
C 652.658001 498.710269 654.792738 497.826032 656.366469 496.252301 
C 657.9402 494.67857 658.824437 492.543833 658.824437 490.318241 
C 658.824437 488.092649 657.9402 485.957912 656.366469 484.384181 
C 654.792738 482.81045 652.658001 481.926213 650.432409 481.926213 
C 648.206818 481.926213 646.072081 482.81045 644.49835 484.384181 
C 642.924619 485.957912 642.040382 488.092649 642.040382 490.318241 
C 642.040382 492.543833 642.924619 494.67857 644.49835 496.252301 
C 646.072081 497.826032 648.206818 498.710269 650.432409 498.710269 
z
" clip-path="url(#p0bc824ec91)" style="fill: #ff8d00; fill-opacity: 0.7; stroke: #995500; stroke-opacity: 0.7; stroke-width: 0.866426"/>
    <path d="M 650.432409 461.7322 
C 653.344836 461.7322 656.138369 460.575081 658.197765 458.515685 
C 660.257162 456.456288 661.414281 453.662755 661.414281 450.750329 
C 661.414281 447.837902 660.257162 445.044369 658.197765 442.984973 
C 656.138369 440.925576 653.344836 439.768457 650.432409 439.768457 
C 647.519983 439.768457 644.72645 440.925576 642.667054 442.984973 
C 640.607657 445.044369 639.450538 447.837902 639.450538 450.750329 
C 639.450538 453.662755 640.607657 456.456288 642.667054 458.515685 
C 644.72645 460.575081 647.519983 461.7322 650.432409 461.7322 
z
" clip-path="url(#p0bc824ec91)" style="fill: #ff8d00; fill-opacity: 0.7; stroke: #995500; stroke-opacity: 0.7; stroke-width: 0.866426"/>
    <path d="M 650.432409 466.593938 
C 652.27206 466.593938 654.036612 465.863037 655.337441 464.562207 
C 656.638271 463.261378 657.369172 461.496827 657.369172 459.657176 
C 657.369172 457.817525 656.638271 456.052974 655.337441 454.752144 
C 654.036612 453.451315 652.27206 452.720414 650.432409 452.720414 
C 648.592759 452.720414 646.828207 453.451315 645.527378 454.752144 
C 644.226548 456.052974 643.495647 457.817525 643.495647 459.657176 
C 643.495647 461.496827 644.226548 463.261378 645.527378 464.562207 
C 646.828207 465.863037 648.592759 466.593938 650.432409 466.593938 
z
" clip-path="url(#p0bc824ec91)" style="fill: #ff8d00; fill-opacity: 0.7; stroke: #995500; stroke-opacity: 0.7; stroke-width: 0.866426"/>
    <path d="M 650.432409 437.503968 
C 651.951042 437.503968 653.407679 436.900609 654.481514 435.826774 
C 655.55535 434.752939 656.158709 433.296301 656.158709 431.777669 
C 656.158709 430.259037 655.55535 428.802399 654.481514 427.728564 
C 653.407679 426.654729 651.951042 426.05137 650.432409 426.05137 
C 648.913777 426.05137 647.45714 426.654729 646.383305 427.728564 
C 645.309469 428.802399 644.70611 430.259037 644.70611 431.777669 
C 644.70611 433.296301 645.309469 434.752939 646.383305 435.826774 
C 647.45714 436.900609 648.913777 437.503968 650.432409 437.503968 
z
" clip-path="url(#p0bc824ec91)" style="fill: #ff8d00; fill-opacity: 0.7; stroke: #995500; stroke-opacity: 0.7; stroke-width: 0.866426"/>
    <path d="M 134.385517 526.091943 
C 136.134544 526.091943 137.812171 525.397047 139.048919 524.160299 
C 140.285668 522.92355 140.980564 521.245924 140.980564 519.496897 
C 140.980564 517.74787 140.285668 516.070244 139.048919 514.833495 
C 137.812171 513.596746 136.134544 512.901851 134.385517 512.901851 
C 132.636491 512.901851 130.958864 513.596746 129.722116 514.833495 
C 128.485367 516.070244 127.790471 517.74787 127.790471 519.496897 
C 127.790471 521.245924 128.485367 522.92355 129.722116 524.160299 
C 130.958864 525.397047 132.636491 526.091943 134.385517 526.091943 
z
" clip-path="url(#p0bc824ec91)" style="fill: #ff8d00; fill-opacity: 0.7; stroke: #995500; stroke-opacity: 0.7; stroke-width: 0.866426"/>
    <path d="M 546.591731 547.167487 
C 548.341021 547.167487 550.018901 546.472487 551.255836 545.235552 
C 552.492771 543.998616 553.187772 542.320737 553.187772 540.571446 
C 553.187772 538.822156 552.492771 537.144276 551.255836 535.907341 
C 550.018901 534.670406 548.341021 533.975406 546.591731 533.975406 
C 544.842441 533.975406 543.164561 534.670406 541.927626 535.907341 
C 540.690691 537.144276 539.99569 538.822156 539.99569 540.571446 
C 539.99569 542.320737 540.690691 543.998616 541.927626 545.235552 
C 543.164561 546.472487 544.842441 547.167487 546.591731 547.167487 
z
" clip-path="url(#p0bc824ec91)" style="fill: #ff8d00; fill-opacity: 0.7; stroke: #995500; stroke-opacity: 0.7; stroke-width: 0.866426"/>
    <path d="M 134.385517 516.357588 
C 135.506077 516.357588 136.580892 515.912385 137.373248 515.120029 
C 138.165603 514.327674 138.610806 513.252859 138.610806 512.132299 
C 138.610806 511.011739 138.165603 509.936924 137.373248 509.144568 
C 136.580892 508.352213 135.506077 507.90701 134.385517 507.90701 
C 133.264958 507.90701 132.190142 508.352213 131.397787 509.144568 
C 130.605432 509.936924 130.160228 511.011739 130.160228 512.132299 
C 130.160228 513.252859 130.605432 514.327674 131.397787 515.120029 
C 132.190142 515.912385 133.264958 516.357588 134.385517 516.357588 
z
" clip-path="url(#p0bc824ec91)" style="fill: #ff8d00; fill-opacity: 0.7; stroke: #995500; stroke-opacity: 0.7; stroke-width: 0.866426"/>
    <path d="M 134.385517 531.477787 
C 135.821244 531.477787 137.19836 530.907367 138.213572 529.892155 
C 139.228783 528.876943 139.799204 527.499827 139.799204 526.064101 
C 139.799204 524.628374 139.228783 523.251258 138.213572 522.236047 
C 137.19836 521.220835 135.821244 520.650415 134.385517 520.650415 
C 132.949791 520.650415 131.572675 521.220835 130.557463 522.236047 
C 129.542251 523.251258 128.971831 524.628374 128.971831 526.064101 
C 128.971831 527.499827 129.542251 528.876943 130.557463 529.892155 
C 131.572675 530.907367 132.949791 531.477787 134.385517 531.477787 
z
" clip-path="url(#p0bc824ec91)" style="fill: #ff8d00; fill-opacity: 0.7; stroke: #995500; stroke-opacity: 0.7; stroke-width: 0.866426"/>
    <path d="M 546.591731 516.279332 
C 548.027849 516.279332 549.40534 515.708757 550.420829 514.693268 
C 551.436317 513.67778 552.006893 512.300288 552.006893 510.86417 
C 552.006893 509.428053 551.436317 508.050561 550.420829 507.035073 
C 549.40534 506.019584 548.027849 505.449008 546.591731 505.449008 
C 545.155613 505.449008 543.778122 506.019584 542.762633 507.035073 
C 541.747145 508.050561 541.176569 509.428053 541.176569 510.86417 
C 541.176569 512.300288 541.747145 513.67778 542.762633 514.693268 
C 543.778122 515.708757 545.155613 516.279332 546.591731 516.279332 
z
" clip-path="url(#p0bc824ec91)" style="fill: #ff8d00; fill-opacity: 0.7; stroke: #995500; stroke-opacity: 0.7; stroke-width: 0.866426"/>
   </g>
   <g id="PathCollection_2">
    <path d="M 472.26739 532.004132 
C 474.484597 532.004132 476.611292 531.123227 478.179094 529.555424 
C 479.746896 527.987622 480.627802 525.860928 480.627802 523.643721 
C 480.627802 521.426514 479.746896 519.299819 478.179094 517.732017 
C 476.611292 516.164215 474.484597 515.283309 472.26739 515.283309 
C 470.050183 515.283309 467.923489 516.164215 466.355687 517.732017 
C 464.787885 519.299819 463.906979 521.426514 463.906979 523.643721 
C 463.906979 525.860928 464.787885 527.987622 466.355687 529.555424 
C 467.923489 531.123227 470.050183 532.004132 472.26739 532.004132 
z
" clip-path="url(#p0bc824ec91)" style="fill: #13066d; fill-opacity: 0.7; stroke: #0b0441; stroke-opacity: 0.7; stroke-width: 0.842933"/>
    <path d="M 472.26739 560.969226 
C 477.497614 560.969226 482.514326 558.891236 486.212652 555.192909 
C 489.910979 551.494582 491.988969 546.477871 491.988969 541.247647 
C 491.988969 536.017423 489.910979 531.000712 486.212652 527.302385 
C 482.514326 523.604058 477.497614 521.526068 472.26739 521.526068 
C 467.037166 521.526068 462.020455 523.604058 458.322128 527.302385 
C 454.623801 531.000712 452.545811 536.017423 452.545811 541.247647 
C 452.545811 546.477871 454.623801 551.494582 458.322128 555.192909 
C 462.020455 558.891236 467.037166 560.969226 472.26739 560.969226 
z
" clip-path="url(#p0bc824ec91)" style="fill: #13066d; fill-opacity: 0.7; stroke: #0b0441; stroke-opacity: 0.7; stroke-width: 0.842933"/>
    <path d="M 472.26739 519.667731 
C 475.638707 519.667731 478.872397 518.328293 481.256278 515.944412 
C 483.640159 513.560531 484.979597 510.326841 484.979597 506.955524 
C 484.979597 503.584208 483.640159 500.350518 481.256278 497.966637 
C 478.872397 495.582756 475.638707 494.243318 472.26739 494.243318 
C 468.896074 494.243318 465.662383 495.582756 463.278503 497.966637 
C 460.894622 500.350518 459.555183 503.584208 459.555183 506.955524 
C 459.555183 510.326841 460.894622 513.560531 463.278503 515.944412 
C 465.662383 518.328293 468.896074 519.667731 472.26739 519.667731 
z
" clip-path="url(#p0bc824ec91)" style="fill: #13066d; fill-opacity: 0.7; stroke: #0b0441; stroke-opacity: 0.7; stroke-width: 0.842933"/>
    <path d="M 472.26739 509.466726 
C 473.672938 509.466726 475.021107 508.908296 476.01498 507.914424 
C 477.008852 506.920551 477.567282 505.572382 477.567282 504.166834 
C 477.567282 502.761286 477.008852 501.413117 476.01498 500.419245 
C 475.021107 499.425372 473.672938 498.866942 472.26739 498.866942 
C 470.861842 498.866942 469.513673 499.425372 468.519801 500.419245 
C 467.525928 501.413117 466.967498 502.761286 466.967498 504.166834 
C 466.967498 505.572382 467.525928 506.920551 468.519801 507.914424 
C 469.513673 508.908296 470.861842 509.466726 472.26739 509.466726 
z
" clip-path="url(#p0bc824ec91)" style="fill: #13066d; fill-opacity: 0.7; stroke: #0b0441; stroke-opacity: 0.7; stroke-width: 0.842933"/>
    <path d="M 650.432409 496.448125 
C 658.153138 496.448125 665.558684 493.380647 671.018064 487.921268 
C 676.477443 482.461889 679.544921 475.056342 679.544921 467.335614 
C 679.544921 459.614885 676.477443 452.209339 671.018064 446.749959 
C 665.558684 441.29058 658.153138 438.223102 650.432409 438.223102 
C 642.711681 438.223102 635.306135 441.29058 629.846755 446.749959 
C 624.387376 452.209339 621.319898 459.614885 621.319898 467.335614 
C 621.319898 475.056342 624.387376 482.461889 629.846755 487.921268 
C 635.306135 493.380647 642.711681 496.448125 650.432409 496.448125 
z
" clip-path="url(#p0bc824ec91)" style="fill: #13066d; fill-opacity: 0.7; stroke: #0b0441; stroke-opacity: 0.7; stroke-width: 0.842933"/>
    <path d="M 650.432409 418.636134 
C 652.641735 418.636134 654.760869 417.75836 656.323098 416.196131 
C 657.885327 414.633903 658.763101 412.514768 658.763101 410.305443 
C 658.763101 408.096118 657.885327 405.976984 656.323098 404.414755 
C 654.760869 402.852526 652.641735 401.974752 650.432409 401.974752 
C 648.223084 401.974752 646.10395 402.852526 644.541721 404.414755 
C 642.979492 405.976984 642.101718 408.096118 642.101718 410.305443 
C 642.101718 412.514768 642.979492 414.633903 644.541721 416.196131 
C 646.10395 417.75836 648.223084 418.636134 650.432409 418.636134 
z
" clip-path="url(#p0bc824ec91)" style="fill: #13066d; fill-opacity: 0.7; stroke: #0b0441; stroke-opacity: 0.7; stroke-width: 0.842933"/>
    <path d="M 650.432409 505.603159 
C 655.162413 505.603159 659.699324 503.723909 663.043942 500.379291 
C 666.388559 497.034674 668.267809 492.497763 668.267809 487.767759 
C 668.267809 483.037756 666.388559 478.500845 663.043942 475.156227 
C 659.699324 471.81161 655.162413 469.93236 650.432409 469.93236 
C 645.702406 469.93236 641.165495 471.81161 637.820877 475.156227 
C 634.47626 478.500845 632.59701 483.037756 632.59701 487.767759 
C 632.59701 492.497763 634.47626 497.034674 637.820877 500.379291 
C 641.165495 503.723909 645.702406 505.603159 650.432409 505.603159 
z
" clip-path="url(#p0bc824ec91)" style="fill: #13066d; fill-opacity: 0.7; stroke: #0b0441; stroke-opacity: 0.7; stroke-width: 0.842933"/>
    <path d="M 650.432409 487.804472 
C 653.799145 487.804472 657.028441 486.466854 659.409083 484.086212 
C 661.789725 481.70557 663.127343 478.476274 663.127343 475.109539 
C 663.127343 471.742803 661.789725 468.513507 659.409083 466.132865 
C 657.028441 463.752223 653.799145 462.414605 650.432409 462.414605 
C 647.065674 462.414605 643.836378 463.752223 641.455736 466.132865 
C 639.075094 468.513507 637.737476 471.742803 637.737476 475.109539 
C 637.737476 478.476274 639.075094 481.70557 641.455736 484.086212 
C 643.836378 486.466854 647.065674 487.804472 650.432409 487.804472 
z
" clip-path="url(#p0bc824ec91)" style="fill: #13066d; fill-opacity: 0.7; stroke: #0b0441; stroke-opacity: 0.7; stroke-width: 0.842933"/>
    <path d="M 650.432409 431.919845 
C 651.828117 431.919845 653.166847 431.365324 654.153761 430.37841 
C 655.140675 429.391496 655.695196 428.052766 655.695196 426.657058 
C 655.695196 425.261351 655.140675 423.922621 654.153761 422.935706 
C 653.166847 421.948792 651.828117 421.394272 650.432409 421.394272 
C 649.036702 421.394272 647.697972 421.948792 646.711058 422.935706 
C 645.724144 423.922621 645.169623 425.261351 645.169623 426.657058 
C 645.169623 428.052766 645.724144 429.391496 646.711058 430.37841 
C 647.697972 431.365324 649.036702 431.919845 650.432409 431.919845 
z
" clip-path="url(#p0bc824ec91)" style="fill: #13066d; fill-opacity: 0.7; stroke: #0b0441; stroke-opacity: 0.7; stroke-width: 0.842933"/>
    <path d="M 307.003786 553.316589 
C 309.219359 553.316589 311.344487 552.436332 312.911134 550.869685 
C 314.477781 549.303038 315.358037 547.177911 315.358037 544.962337 
C 315.358037 542.746764 314.477781 540.621636 312.911134 539.054989 
C 311.344487 537.488342 309.219359 536.608086 307.003786 536.608086 
C 304.788212 536.608086 302.663085 537.488342 301.096438 539.054989 
C 299.529791 540.621636 298.649534 542.746764 298.649534 544.962337 
C 298.649534 547.177911 299.529791 549.303038 301.096438 550.869685 
C 302.663085 552.436332 304.788212 553.316589 307.003786 553.316589 
z
" clip-path="url(#p0bc824ec91)" style="fill: #13066d; fill-opacity: 0.7; stroke: #0b0441; stroke-opacity: 0.7; stroke-width: 0.842933"/>
    <path d="M 134.385517 528.299252 
C 136.596017 528.299252 138.716278 527.421011 140.279338 525.857951 
C 141.842397 524.294892 142.720638 522.174631 142.720638 519.964131 
C 142.720638 517.753631 141.842397 515.63337 140.279338 514.070311 
C 138.716278 512.507251 136.596017 511.629011 134.385517 511.629011 
C 132.175018 511.629011 130.054757 512.507251 128.491697 514.070311 
C 126.928638 515.63337 126.050397 517.753631 126.050397 519.964131 
C 126.050397 522.174631 126.928638 524.294892 128.491697 525.857951 
C 130.054757 527.421011 132.175018 528.299252 134.385517 528.299252 
z
" clip-path="url(#p0bc824ec91)" style="fill: #13066d; fill-opacity: 0.7; stroke: #0b0441; stroke-opacity: 0.7; stroke-width: 0.842933"/>
    <path d="M 134.385517 523.933561 
C 136.596017 523.933561 138.716278 523.05532 140.279338 521.492261 
C 141.842397 519.929201 142.720638 517.80894 142.720638 515.598441 
C 142.720638 513.387941 141.842397 511.26768 140.279338 509.70462 
C 138.716278 508.141561 136.596017 507.26332 134.385517 507.26332 
C 132.175018 507.26332 130.054757 508.141561 128.491697 509.70462 
C 126.928638 511.26768 126.050397 513.387941 126.050397 515.598441 
C 126.050397 517.80894 126.928638 519.929201 128.491697 521.492261 
C 130.054757 523.05532 132.175018 523.933561 134.385517 523.933561 
z
" clip-path="url(#p0bc824ec91)" style="fill: #13066d; fill-opacity: 0.7; stroke: #0b0441; stroke-opacity: 0.7; stroke-width: 0.842933"/>
    <path d="M 662.095866 464.107082 
C 664.306372 464.107082 666.426639 463.228839 667.989703 461.665775 
C 669.552767 460.102711 670.431011 457.982443 670.431011 455.771937 
C 670.431011 453.56143 669.552767 451.441163 667.989703 449.878099 
C 666.426639 448.315035 664.306372 447.436791 662.095866 447.436791 
C 659.885359 447.436791 657.765092 448.315035 656.202028 449.878099 
C 654.638964 451.441163 653.76072 453.56143 653.76072 455.771937 
C 653.76072 457.982443 654.638964 460.102711 656.202028 461.665775 
C 657.765092 463.228839 659.885359 464.107082 662.095866 464.107082 
z
" clip-path="url(#p0bc824ec91)" style="fill: #13066d; fill-opacity: 0.7; stroke: #0b0441; stroke-opacity: 0.7; stroke-width: 0.842933"/>
    <path d="M 546.591731 509.4828 
C 548.802237 509.4828 550.922505 508.604557 552.485569 507.041493 
C 554.048633 505.478429 554.926876 503.358161 554.926876 501.147655 
C 554.926876 498.937148 554.048633 496.816881 552.485569 495.253817 
C 550.922505 493.690753 548.802237 492.812509 546.591731 492.812509 
C 544.381225 492.812509 542.260957 493.690753 540.697893 495.253817 
C 539.134829 496.816881 538.256586 498.937148 538.256586 501.147655 
C 538.256586 503.358161 539.134829 505.478429 540.697893 507.041493 
C 542.260957 508.604557 544.381225 509.4828 546.591731 509.4828 
z
" clip-path="url(#p0bc824ec91)" style="fill: #13066d; fill-opacity: 0.7; stroke: #0b0441; stroke-opacity: 0.7; stroke-width: 0.842933"/>
    <path d="M 662.095866 453.411135 
C 667.126376 453.411135 671.951528 451.412492 675.508636 447.855384 
C 679.065744 444.298276 681.064387 439.473124 681.064387 434.442614 
C 681.064387 429.412103 679.065744 424.586952 675.508636 421.029843 
C 671.951528 417.472735 667.126376 415.474092 662.095866 415.474092 
C 657.065355 415.474092 652.240203 417.472735 648.683095 421.029843 
C 645.125987 424.586952 643.127344 429.412103 643.127344 434.442614 
C 643.127344 439.473124 645.125987 444.298276 648.683095 447.855384 
C 652.240203 451.412492 657.065355 453.411135 662.095866 453.411135 
z
" clip-path="url(#p0bc824ec91)" style="fill: #13066d; fill-opacity: 0.7; stroke: #0b0441; stroke-opacity: 0.7; stroke-width: 0.842933"/>
    <path d="M 307.003786 558.121465 
C 311.305728 558.121465 315.432053 556.412285 318.473985 553.370352 
C 321.515918 550.32842 323.225097 546.202095 323.225097 541.900153 
C 323.225097 537.598211 321.515918 533.471886 318.473985 530.429954 
C 315.432053 527.388021 311.305728 525.678842 307.003786 525.678842 
C 302.701844 525.678842 298.575519 527.388021 295.533586 530.429954 
C 292.491654 533.471886 290.782474 537.598211 290.782474 541.900153 
C 290.782474 546.202095 292.491654 550.32842 295.533586 553.370352 
C 298.575519 556.412285 302.701844 558.121465 307.003786 558.121465 
z
" clip-path="url(#p0bc824ec91)" style="fill: #13066d; fill-opacity: 0.7; stroke: #0b0441; stroke-opacity: 0.7; stroke-width: 0.842933"/>
    <path d="M 662.095866 466.17834 
C 666.394083 466.17834 670.516836 464.470639 673.556135 461.43134 
C 676.595434 458.392041 678.303135 454.269289 678.303135 449.971071 
C 678.303135 445.672853 676.595434 441.5501 673.556135 438.510801 
C 670.516836 435.471502 666.394083 433.763802 662.095866 433.763802 
C 657.797648 433.763802 653.674895 435.471502 650.635596 438.510801 
C 647.596297 441.5501 645.888597 445.672853 645.888597 449.971071 
C 645.888597 454.269289 647.596297 458.392041 650.635596 461.43134 
C 653.674895 464.470639 657.797648 466.17834 662.095866 466.17834 
z
" clip-path="url(#p0bc824ec91)" style="fill: #13066d; fill-opacity: 0.7; stroke: #0b0441; stroke-opacity: 0.7; stroke-width: 0.842933"/>
    <path d="M 307.003786 549.200132 
C 310.375038 549.200132 313.608667 547.860719 315.992502 545.476884 
C 318.376338 543.093048 319.71575 539.85942 319.71575 536.488168 
C 319.71575 533.116915 318.376338 529.883287 315.992502 527.499451 
C 313.608667 525.115616 310.375038 523.776203 307.003786 523.776203 
C 303.632533 523.776203 300.398905 525.115616 298.015069 527.499451 
C 295.631234 529.883287 294.291821 533.116915 294.291821 536.488168 
C 294.291821 539.85942 295.631234 543.093048 298.015069 545.476884 
C 300.398905 547.860719 303.632533 549.200132 307.003786 549.200132 
z
" clip-path="url(#p0bc824ec91)" style="fill: #13066d; fill-opacity: 0.7; stroke: #0b0441; stroke-opacity: 0.7; stroke-width: 0.842933"/>
    <path d="M 662.095866 490.100949 
C 665.462779 490.100949 668.692247 488.76326 671.073014 486.382492 
C 673.453782 484.001724 674.791471 480.772257 674.791471 477.405343 
C 674.791471 474.038429 673.453782 470.808962 671.073014 468.428195 
C 668.692247 466.047427 665.462779 464.709738 662.095866 464.709738 
C 658.728952 464.709738 655.499484 466.047427 653.118717 468.428195 
C 650.737949 470.808962 649.40026 474.038429 649.40026 477.405343 
C 649.40026 480.772257 650.737949 484.001724 653.118717 486.382492 
C 655.499484 488.76326 658.728952 490.100949 662.095866 490.100949 
z
" clip-path="url(#p0bc824ec91)" style="fill: #13066d; fill-opacity: 0.7; stroke: #0b0441; stroke-opacity: 0.7; stroke-width: 0.842933"/>
    <path d="M 546.591731 523.444808 
C 549.958645 523.444808 553.188112 522.107119 555.56888 519.726351 
C 557.949647 517.345584 559.287336 514.116116 559.287336 510.749203 
C 559.287336 507.382289 557.949647 504.152822 555.56888 501.772054 
C 553.188112 499.391286 549.958645 498.053597 546.591731 498.053597 
C 543.224817 498.053597 539.99535 499.391286 537.614582 501.772054 
C 535.233815 504.152822 533.896126 507.382289 533.896126 510.749203 
C 533.896126 514.116116 535.233815 517.345584 537.614582 519.726351 
C 539.99535 522.107119 543.224817 523.444808 546.591731 523.444808 
z
" clip-path="url(#p0bc824ec91)" style="fill: #13066d; fill-opacity: 0.7; stroke: #0b0441; stroke-opacity: 0.7; stroke-width: 0.842933"/>
    <path d="M 307.003786 550.443013 
C 308.404151 550.443013 309.74735 549.886642 310.737558 548.896434 
C 311.727766 547.906226 312.284137 546.563028 312.284137 545.162662 
C 312.284137 543.762297 311.727766 542.419098 310.737558 541.42889 
C 309.74735 540.438682 308.404151 539.882311 307.003786 539.882311 
C 305.60342 539.882311 304.260222 540.438682 303.270014 541.42889 
C 302.279806 542.419098 301.723435 543.762297 301.723435 545.162662 
C 301.723435 546.563028 302.279806 547.906226 303.270014 548.896434 
C 304.260222 549.886642 305.60342 550.443013 307.003786 550.443013 
z
" clip-path="url(#p0bc824ec91)" style="fill: #13066d; fill-opacity: 0.7; stroke: #0b0441; stroke-opacity: 0.7; stroke-width: 0.842933"/>
    <path d="M 134.385517 545.104051 
C 135.782696 545.104051 137.122837 544.548947 138.110791 543.560993 
C 139.098745 542.573038 139.65385 541.232897 139.65385 539.835719 
C 139.65385 538.438541 139.098745 537.098399 138.110791 536.110445 
C 137.122837 535.122491 135.782696 534.567386 134.385517 534.567386 
C 132.988339 534.567386 131.648198 535.122491 130.660244 536.110445 
C 129.67229 537.098399 129.117185 538.438541 129.117185 539.835719 
C 129.117185 541.232897 129.67229 542.573038 130.660244 543.560993 
C 131.648198 544.548947 132.988339 545.104051 134.385517 545.104051 
z
" clip-path="url(#p0bc824ec91)" style="fill: #13066d; fill-opacity: 0.7; stroke: #0b0441; stroke-opacity: 0.7; stroke-width: 0.842933"/>
    <path d="M 134.385517 531.640608 
C 135.782696 531.640608 137.122837 531.085503 138.110791 530.097549 
C 139.098745 529.109594 139.65385 527.769453 139.65385 526.372275 
C 139.65385 524.975097 139.098745 523.634955 138.110791 522.647001 
C 137.122837 521.659047 135.782696 521.103942 134.385517 521.103942 
C 132.988339 521.103942 131.648198 521.659047 130.660244 522.647001 
C 129.67229 523.634955 129.117185 524.975097 129.117185 526.372275 
C 129.117185 527.769453 129.67229 529.109594 130.660244 530.097549 
C 131.648198 531.085503 132.988339 531.640608 134.385517 531.640608 
z
" clip-path="url(#p0bc824ec91)" style="fill: #13066d; fill-opacity: 0.7; stroke: #0b0441; stroke-opacity: 0.7; stroke-width: 0.842933"/>
    <path d="M 307.003786 492.165586 
C 307.891751 492.165586 308.743468 491.812793 309.371354 491.184907 
C 309.999241 490.55702 310.352033 489.705304 310.352033 488.817338 
C 310.352033 487.929373 309.999241 487.077656 309.371354 486.44977 
C 308.743468 485.821883 307.891751 485.469091 307.003786 485.469091 
C 306.11582 485.469091 305.264104 485.821883 304.636217 486.44977 
C 304.008331 487.077656 303.655538 487.929373 303.655538 488.817338 
C 303.655538 489.705304 304.008331 490.55702 304.636217 491.184907 
C 305.264104 491.812793 306.11582 492.165586 307.003786 492.165586 
z
" clip-path="url(#p0bc824ec91)" style="fill: #13066d; fill-opacity: 0.7; stroke: #0b0441; stroke-opacity: 0.7; stroke-width: 0.842933"/>
   </g>
   <g id="line2d_11">
    <path d="M 134.385517 555.404119 
L 662.095866 479.459598 
L 662.095866 479.459598 
" clip-path="url(#p0bc824ec91)" style="fill: none; stroke: #ff8d00; stroke-opacity: 0.9; stroke-width: 2; stroke-linecap: round"/>
   </g>
   <g id="line2d_12">
    <path d="M 134.385517 546.013391 
L 662.095866 465.967517 
L 662.095866 465.967517 
" clip-path="url(#p0bc824ec91)" style="fill: none; stroke: #13066d; stroke-opacity: 0.9; stroke-width: 2; stroke-linecap: round"/>
   </g>
   <g id="line2d_13">
    <path d="M 108 474.48 
L 777.6 474.48 
" clip-path="url(#p0bc824ec91)" style="fill: none; stroke-dasharray: 5.55,2.4; stroke-dashoffset: 0; stroke: #c44e52; stroke-width: 1.5"/>
   </g>
   <g id="line2d_14">
    <path d="M 108 158.472 
L 777.6 158.472 
" clip-path="url(#p0bc824ec91)" style="fill: none; stroke-dasharray: 5.55,2.4; stroke-dashoffset: 0; stroke: #68c3d4; stroke-width: 1.5"/>
   </g>
   <g id="patch_3">
    <path d="M 108 640.8 
L 108 86.4 
" style="fill: none; stroke: #262626; stroke-width: 1.25; stroke-linejoin: miter; stroke-linecap: square"/>
   </g>
   <g id="patch_4">
    <path d="M 116.60377 650.8 
L 777.6 650.8 
" style="fill: none; stroke: #262626; stroke-width: 1.25; stroke-linejoin: miter; stroke-linecap: square"/>
   </g>
   <g id="PathCollection_3">
    <path d="M 642.101718 362.592349 
L 658.763101 362.592349 
L 658.763101 345.930967 
L 642.101718 345.930967 
z
" clip-path="url(#p0bc824ec91)" style="fill: #13066d; fill-opacity: 0.7; stroke: #0b0441; stroke-opacity: 0.7"/>
    <path d="M 645.169623 369.027453 
L 655.695196 369.027453 
L 655.695196 358.50188 
L 645.169623 358.50188 
z
" clip-path="url(#p0bc824ec91)" style="fill: #13066d; fill-opacity: 0.7; stroke: #0b0441; stroke-opacity: 0.7"/>
    <path d="M 644.70611 372.120591 
L 656.158709 372.120591 
L 656.158709 360.667993 
L 644.70611 360.667993 
z
" clip-path="url(#p0bc824ec91)" style="fill: #ff8d00; fill-opacity: 0.7; stroke: #995500; stroke-opacity: 0.7"/>
    <path d="M 643.127344 437.709773 
L 681.064387 437.709773 
L 681.064387 399.77273 
L 643.127344 399.77273 
z
" clip-path="url(#p0bc824ec91)" style="fill: #13066d; fill-opacity: 0.7; stroke: #0b0441; stroke-opacity: 0.7"/>
    <path d="M 645.888597 410.240657 
L 678.303135 410.240657 
L 678.303135 377.826119 
L 645.888597 377.826119 
z
" clip-path="url(#p0bc824ec91)" style="fill: #13066d; fill-opacity: 0.7; stroke: #0b0441; stroke-opacity: 0.7"/>
   </g>
   <g id="PathCollection_4">
    <path d="M 642.101718 362.592349 
L 658.763101 362.592349 
L 658.763101 345.930967 
L 642.101718 345.930967 
z
" clip-path="url(#p0bc824ec91)" style="fill: #13066d; fill-opacity: 0.7; stroke: #0b0441; stroke-opacity: 0.7"/>
    <path d="M 645.169623 369.027453 
L 655.695196 369.027453 
L 655.695196 358.50188 
L 645.169623 358.50188 
z
" clip-path="url(#p0bc824ec91)" style="fill: #13066d; fill-opacity: 0.7; stroke: #0b0441; stroke-opacity: 0.7"/>
    <path d="M 644.70611 372.120591 
L 656.158709 372.120591 
L 656.158709 360.667993 
L 644.70611 360.667993 
z
" clip-path="url(#p0bc824ec91)" style="fill: #ff8d00; fill-opacity: 0.7; stroke: #995500; stroke-opacity: 0.7"/>
    <path d="M 643.127344 437.709773 
L 681.064387 437.709773 
L 681.064387 399.77273 
L 643.127344 399.77273 
z
" clip-path="url(#p0bc824ec91)" style="fill: #13066d; fill-opacity: 0.7; stroke: #0b0441; stroke-opacity: 0.7"/>
    <path d="M 645.888597 410.240657 
L 678.303135 410.240657 
L 678.303135 377.826119 
L 645.888597 377.826119 
z
" clip-path="url(#p0bc824ec91)" style="fill: #13066d; fill-opacity: 0.7; stroke: #0b0441; stroke-opacity: 0.7"/>
   </g>
  </g>
 </g>
 <defs>
  <clipPath id="p0bc824ec91">
   <rect x="108" y="86.4" width="669.6" height="554.4"/>
  </clipPath>
 </defs>
</svg>
