<?xml version="1.0" encoding="utf-8" standalone="no"?>
<!DOCTYPE svg PUBLIC "-//W3C//DTD SVG 1.1//EN"
  "http://www.w3.org/Graphics/SVG/1.1/DTD/svg11.dtd">
<svg xmlns:xlink="http://www.w3.org/1999/xlink" width="864pt" height="720pt" viewBox="0 0 864 720" xmlns="http://www.w3.org/2000/svg" version="1.1">
 <metadata>
  <rdf:RDF xmlns:dc="http://purl.org/dc/elements/1.1/" xmlns:cc="http://creativecommons.org/ns#" xmlns:rdf="http://www.w3.org/1999/02/22-rdf-syntax-ns#">
   <cc:Work>
    <dc:type rdf:resource="http://purl.org/dc/dcmitype/StillImage"/>
    <dc:date>2025-10-24T16:14:07.716891</dc:date>
    <dc:format>image/svg+xml</dc:format>
    <dc:creator>
     <cc:Agent>
      <dc:title>Matplotlib v3.9.4, https://matplotlib.org/</dc:title>
     </cc:Agent>
    </dc:creator>
   </cc:Work>
  </rdf:RDF>
 </metadata>
 <defs>
  <style type="text/css">*{stroke-linejoin: round; stroke-linecap: butt}</style>
 </defs>
 <g id="figure_1">
  <g id="patch_1">
   <path d="M 0 720 
L 864 720 
L 864 0 
L 0 0 
z
" style="fill: #ffffff"/>
  </g>
  <g id="axes_1">
   <g id="patch_2">
    <path d="M 108 640.8 
L 777.6 640.8 
L 777.6 86.4 
L 108 86.4 
z
" style="fill: #ffffff"/>
   </g>
   <g id="matplotlib.axis_1">
    <g id="xtick_1">
     <g id="line2d_1">
      <defs>
       <path id="mb084fa4592" d="M 0 0 
L 0 6 
" style="stroke: #262626; stroke-width: 1.25"/>
      </defs>
      <g>
       <use xlink:href="#mb084fa4592" x="116.60377" y="650.8" style="fill: #262626; stroke: #262626; stroke-width: 1.25"/>
      </g>
     </g>
    </g>
    <g id="xtick_2">
     <g id="line2d_2">
      <g>
       <use xlink:href="#mb084fa4592" x="281.852827" y="650.8" style="fill: #262626; stroke: #262626; stroke-width: 1.25"/>
      </g>
     </g>
    </g>
    <g id="xtick_3">
     <g id="line2d_3">
      <g>
       <use xlink:href="#mb084fa4592" x="447.101885" y="650.8" style="fill: #262626; stroke: #262626; stroke-width: 1.25"/>
      </g>
     </g>
    </g>
    <g id="xtick_4">
     <g id="line2d_4">
      <g>
       <use xlink:href="#mb084fa4592" x="612.350942" y="650.8" style="fill: #262626; stroke: #262626; stroke-width: 1.25"/>
      </g>
     </g>
    </g>
    <g id="xtick_5">
     <g id="line2d_5">
      <g>
       <use xlink:href="#mb084fa4592" x="777.6" y="650.8" style="fill: #262626; stroke: #262626; stroke-width: 1.25"/>
      </g>
     </g>
    </g>
    <g id="xtick_6"/>
    <g id="xtick_7"/>
    <g id="xtick_8"/>
    <g id="xtick_9"/>
    <g id="xtick_10"/>
    <g id="xtick_11"/>
    <g id="xtick_12"/>
    <g id="xtick_13"/>
    <g id="xtick_14"/>
    <g id="xtick_15"/>
    <g id="xtick_16"/>
    <g id="xtick_17"/>
    <g id="xtick_18"/>
    <g id="xtick_19"/>
    <g id="xtick_20"/>
    <g id="xtick_21"/>
    <g id="xtick_22"/>
    <g id="xtick_23"/>
    <g id="xtick_24"/>
    <g id="xtick_25"/>
    <g id="xtick_26"/>
    <g id="xtick_27"/>
    <g id="xtick_28"/>
    <g id="xtick_29"/>
    <g id="xtick_30"/>
    <g id="xtick_31"/>
    <g id="xtick_32"/>
    <g id="xtick_33"/>
    <g id="xtick_34"/>
    <g id="xtick_35"/>
    <g id="xtick_36"/>
    <g id="xtick_37"/>
    <g id="xtick_38"/>
   </g>
   <g id="matplotlib.axis_2">
    <g id="ytick_1">
     <g id="line2d_6">
      <defs>
       <path id="m6cc177daca" d="M 0 0 
L -6 0 
" style="stroke: #262626; stroke-width: 1.25"/>
      </defs>
      <g>
       <use xlink:href="#m6cc177daca" x="108" y="640.8" style="fill: #262626; stroke: #262626; stroke-width: 1.25"/>
      </g>
     </g>
     <g id="text_1">
      <text style="fill: #262626; font: 25px 'Arial', 'DejaVu Sans', 'Liberation Sans', 'Bitstream Vera Sans', sans-serif; text-anchor: end" x="98.5" y="649.747266" transform="rotate(-0 98.5 649.747266)">0.00</text>
     </g>
    </g>
    <g id="ytick_2">
     <g id="line2d_7">
      <g>
       <use xlink:href="#m6cc177daca" x="108" y="502.2" style="fill: #262626; stroke: #262626; stroke-width: 1.25"/>
      </g>
     </g>
     <g id="text_2">
      <text style="fill: #262626; font: 25px 'Arial', 'DejaVu Sans', 'Liberation Sans', 'Bitstream Vera Sans', sans-serif; text-anchor: end" x="98.5" y="511.147266" transform="rotate(-0 98.5 511.147266)">0.25</text>
     </g>
    </g>
    <g id="ytick_3">
     <g id="line2d_8">
      <g>
       <use xlink:href="#m6cc177daca" x="108" y="363.6" style="fill: #262626; stroke: #262626; stroke-width: 1.25"/>
      </g>
     </g>
     <g id="text_3">
      <text style="fill: #262626; font: 25px 'Arial', 'DejaVu Sans', 'Liberation Sans', 'Bitstream Vera Sans', sans-serif; text-anchor: end" x="98.5" y="372.547266" transform="rotate(-0 98.5 372.547266)">0.50</text>
     </g>
    </g>
    <g id="ytick_4">
     <g id="line2d_9">
      <g>
       <use xlink:href="#m6cc177daca" x="108" y="225" style="fill: #262626; stroke: #262626; stroke-width: 1.25"/>
      </g>
     </g>
     <g id="text_4">
      <text style="fill: #262626; font: 25px 'Arial', 'DejaVu Sans', 'Liberation Sans', 'Bitstream Vera Sans', sans-serif; text-anchor: end" x="98.5" y="233.947266" transform="rotate(-0 98.5 233.947266)">0.75</text>
     </g>
    </g>
    <g id="ytick_5">
     <g id="line2d_10">
      <g>
       <use xlink:href="#m6cc177daca" x="108" y="86.4" style="fill: #262626; stroke: #262626; stroke-width: 1.25"/>
      </g>
     </g>
     <g id="text_5">
      <text style="fill: #262626; font: 25px 'Arial', 'DejaVu Sans', 'Liberation Sans', 'Bitstream Vera Sans', sans-serif; text-anchor: end" x="98.5" y="95.347266" transform="rotate(-0 98.5 95.347266)">1.00</text>
     </g>
    </g>
   </g>
   <g id="PathCollection_1">
    <path d="M 662.095866 400.221743 
C 664.32144 400.221743 666.45616 399.337513 668.029879 397.763794 
C 669.603598 396.190075 670.487828 394.055355 670.487828 391.82978 
C 670.487828 389.604206 669.603598 387.469486 668.029879 385.895767 
C 666.45616 384.322048 664.32144 383.437818 662.095866 383.437818 
C 659.870291 383.437818 657.735571 384.322048 656.161852 385.895767 
C 654.588133 387.469486 653.703903 389.604206 653.703903 391.82978 
C 653.703903 394.055355 654.588133 396.190075 656.161852 397.763794 
C 657.735571 399.337513 659.870291 400.221743 662.095866 400.221743 
z
" clip-path="url(#p1b6b80e3bc)" style="fill: #ff8d00; fill-opacity: 0.7; stroke: #995500; stroke-opacity: 0.7; stroke-width: 0.866426"/>
    <path d="M 134.385517 491.183608 
C 136.611092 491.183608 138.745812 490.299378 140.319531 488.72566 
C 141.89325 487.151941 142.77748 485.01722 142.77748 482.791646 
C 142.77748 480.566071 141.89325 478.431351 140.319531 476.857632 
C 138.745812 475.283914 136.611092 474.399683 134.385517 474.399683 
C 132.159943 474.399683 130.025223 475.283914 128.451504 476.857632 
C 126.877785 478.431351 125.993555 480.566071 125.993555 482.791646 
C 125.993555 485.01722 126.877785 487.151941 128.451504 488.72566 
C 130.025223 490.299378 132.159943 491.183608 134.385517 491.183608 
z
" clip-path="url(#p1b6b80e3bc)" style="fill: #ff8d00; fill-opacity: 0.7; stroke: #995500; stroke-opacity: 0.7; stroke-width: 0.866426"/>
    <path d="M 307.003786 501.513252 
C 309.22936 501.513252 311.364081 500.629022 312.937799 499.055303 
C 314.511518 497.481584 315.395748 495.346864 315.395748 493.12129 
C 315.395748 490.895715 314.511518 488.760995 312.937799 487.187276 
C 311.364081 485.613557 309.22936 484.729327 307.003786 484.729327 
C 304.778211 484.729327 302.643491 485.613557 301.069772 487.187276 
C 299.496053 488.760995 298.611823 490.895715 298.611823 493.12129 
C 298.611823 495.346864 299.496053 497.481584 301.069772 499.055303 
C 302.643491 500.629022 304.778211 501.513252 307.003786 501.513252 
z
" clip-path="url(#p1b6b80e3bc)" style="fill: #ff8d00; fill-opacity: 0.7; stroke: #995500; stroke-opacity: 0.7; stroke-width: 0.866426"/>
    <path d="M 134.385517 511.131296 
C 137.297929 511.131296 140.091447 509.974183 142.150833 507.914797 
C 144.210219 505.855412 145.367332 503.061893 145.367332 500.149482 
C 145.367332 497.237071 144.210219 494.443552 142.150833 492.384166 
C 140.091447 490.324781 137.297929 489.167667 134.385517 489.167667 
C 131.473106 489.167667 128.679588 490.324781 126.620202 492.384166 
C 124.560816 494.443552 123.403703 497.237071 123.403703 500.149482 
C 123.403703 503.061893 124.560816 505.855412 126.620202 507.914797 
C 128.679588 509.974183 131.473106 511.131296 134.385517 511.131296 
z
" clip-path="url(#p1b6b80e3bc)" style="fill: #ff8d00; fill-opacity: 0.7; stroke: #995500; stroke-opacity: 0.7; stroke-width: 0.866426"/>
    <path d="M 307.003786 483.235316 
C 309.916197 483.235316 312.709715 482.078203 314.769101 480.018817 
C 316.828487 477.959432 317.9856 475.165913 317.9856 472.253502 
C 317.9856 469.341091 316.828487 466.547572 314.769101 464.488187 
C 312.709715 462.428801 309.916197 461.271688 307.003786 461.271688 
C 304.091375 461.271688 301.297856 462.428801 299.23847 464.488187 
C 297.179085 466.547572 296.021971 469.341091 296.021971 472.253502 
C 296.021971 475.165913 297.179085 477.959432 299.23847 480.018817 
C 301.297856 482.078203 304.091375 483.235316 307.003786 483.235316 
z
" clip-path="url(#p1b6b80e3bc)" style="fill: #ff8d00; fill-opacity: 0.7; stroke: #995500; stroke-opacity: 0.7; stroke-width: 0.866426"/>
    <path d="M 662.095866 401.003802 
C 665.008277 401.003802 667.801795 399.846689 669.861181 397.787303 
C 671.920567 395.727918 673.07768 392.934399 673.07768 390.021988 
C 673.07768 387.109577 671.920567 384.316058 669.861181 382.256672 
C 667.801795 380.197287 665.008277 379.040173 662.095866 379.040173 
C 659.183454 379.040173 656.389936 380.197287 654.33055 382.256672 
C 652.271164 384.316058 651.114051 387.109577 651.114051 390.021988 
C 651.114051 392.934399 652.271164 395.727918 654.33055 397.787303 
C 656.389936 399.846689 659.183454 401.003802 662.095866 401.003802 
z
" clip-path="url(#p1b6b80e3bc)" style="fill: #ff8d00; fill-opacity: 0.7; stroke: #995500; stroke-opacity: 0.7; stroke-width: 0.866426"/>
    <path d="M 134.385517 501.709144 
C 136.225149 501.709144 137.989682 500.978251 139.290498 499.677435 
C 140.591314 498.376618 141.322208 496.612086 141.322208 494.772454 
C 141.322208 492.932822 140.591314 491.168289 139.290498 489.867473 
C 137.989682 488.566657 136.225149 487.835763 134.385517 487.835763 
C 132.545886 487.835763 130.781353 488.566657 129.480537 489.867473 
C 128.17972 491.168289 127.448827 492.932822 127.448827 494.772454 
C 127.448827 496.612086 128.17972 498.376618 129.480537 499.677435 
C 130.781353 500.978251 132.545886 501.709144 134.385517 501.709144 
z
" clip-path="url(#p1b6b80e3bc)" style="fill: #ff8d00; fill-opacity: 0.7; stroke: #995500; stroke-opacity: 0.7; stroke-width: 0.866426"/>
    <path d="M 307.003786 501.951185 
C 308.843418 501.951185 310.60795 501.220291 311.908767 499.919475 
C 313.209583 498.618659 313.940476 496.854126 313.940476 495.014494 
C 313.940476 493.174863 313.209583 491.41033 311.908767 490.109514 
C 310.60795 488.808698 308.843418 488.077804 307.003786 488.077804 
C 305.164154 488.077804 303.399621 488.808698 302.098805 490.109514 
C 300.797989 491.41033 300.067095 493.174863 300.067095 495.014494 
C 300.067095 496.854126 300.797989 498.618659 302.098805 499.919475 
C 303.399621 501.220291 305.164154 501.951185 307.003786 501.951185 
z
" clip-path="url(#p1b6b80e3bc)" style="fill: #ff8d00; fill-opacity: 0.7; stroke: #995500; stroke-opacity: 0.7; stroke-width: 0.866426"/>
    <path d="M 134.385517 527.906246 
C 135.904122 527.906246 137.360732 527.302898 138.434548 526.229083 
C 139.508363 525.155268 140.111711 523.698657 140.111711 522.180053 
C 140.111711 520.661448 139.508363 519.204838 138.434548 518.131022 
C 137.360732 517.057207 135.904122 516.453859 134.385517 516.453859 
C 132.866913 516.453859 131.410302 517.057207 130.336487 518.131022 
C 129.262672 519.204838 128.659324 520.661448 128.659324 522.180053 
C 128.659324 523.698657 129.262672 525.155268 130.336487 526.229083 
C 131.410302 527.302898 132.866913 527.906246 134.385517 527.906246 
z
" clip-path="url(#p1b6b80e3bc)" style="fill: #ff8d00; fill-opacity: 0.7; stroke: #995500; stroke-opacity: 0.7; stroke-width: 0.866426"/>
    <path d="M 307.003786 512.514756 
C 308.52239 512.514756 309.979001 511.911408 311.052816 510.837592 
C 312.126632 509.763777 312.729979 508.307166 312.729979 506.788562 
C 312.729979 505.269958 312.126632 503.813347 311.052816 502.739532 
C 309.979001 501.665716 308.52239 501.062368 307.003786 501.062368 
C 305.485181 501.062368 304.028571 501.665716 302.954755 502.739532 
C 301.88094 503.813347 301.277592 505.269958 301.277592 506.788562 
C 301.277592 508.307166 301.88094 509.763777 302.954755 510.837592 
C 304.028571 511.911408 305.485181 512.514756 307.003786 512.514756 
z
" clip-path="url(#p1b6b80e3bc)" style="fill: #ff8d00; fill-opacity: 0.7; stroke: #995500; stroke-opacity: 0.7; stroke-width: 0.866426"/>
    <path d="M 662.095866 416.151991 
C 666.831113 416.151991 671.373055 414.270657 674.721381 410.922331 
C 678.069707 407.574005 679.951041 403.032063 679.951041 398.296815 
C 679.951041 393.561567 678.069707 389.019625 674.721381 385.6713 
C 671.373055 382.322974 666.831113 380.44164 662.095866 380.44164 
C 657.360618 380.44164 652.818676 382.322974 649.47035 385.6713 
C 646.122024 389.019625 644.24069 393.561567 644.24069 398.296815 
C 644.24069 403.032063 646.122024 407.574005 649.47035 410.922331 
C 652.818676 414.270657 657.360618 416.151991 662.095866 416.151991 
z
" clip-path="url(#p1b6b80e3bc)" style="fill: #ff8d00; fill-opacity: 0.7; stroke: #995500; stroke-opacity: 0.7; stroke-width: 0.866426"/>
    <path d="M 134.385517 528.318681 
C 136.266976 528.318681 138.071629 527.57117 139.402021 526.240778 
C 140.732413 524.910385 141.479924 523.105733 141.479924 521.224274 
C 141.479924 519.342815 140.732413 517.538163 139.402021 516.207771 
C 138.071629 514.877379 136.266976 514.129867 134.385517 514.129867 
C 132.504059 514.129867 130.699406 514.877379 129.369014 516.207771 
C 128.038622 517.538163 127.29111 519.342815 127.29111 521.224274 
C 127.29111 523.105733 128.038622 524.910385 129.369014 526.240778 
C 130.699406 527.57117 132.504059 528.318681 134.385517 528.318681 
z
" clip-path="url(#p1b6b80e3bc)" style="fill: #ff8d00; fill-opacity: 0.7; stroke: #995500; stroke-opacity: 0.7; stroke-width: 0.866426"/>
    <path d="M 650.432409 394.088566 
C 652.658001 394.088566 654.792738 393.204329 656.366469 391.630598 
C 657.9402 390.056867 658.824437 387.92213 658.824437 385.696538 
C 658.824437 383.470947 657.9402 381.33621 656.366469 379.762479 
C 654.792738 378.188747 652.658001 377.30451 650.432409 377.30451 
C 648.206818 377.30451 646.072081 378.188747 644.49835 379.762479 
C 642.924619 381.33621 642.040382 383.470947 642.040382 385.696538 
C 642.040382 387.92213 642.924619 390.056867 644.49835 391.630598 
C 646.072081 393.204329 648.206818 394.088566 650.432409 394.088566 
z
" clip-path="url(#p1b6b80e3bc)" style="fill: #ff8d00; fill-opacity: 0.7; stroke: #995500; stroke-opacity: 0.7; stroke-width: 0.866426"/>
    <path d="M 650.432409 390.580467 
C 653.344836 390.580467 656.138369 389.423347 658.197765 387.363951 
C 660.257162 385.304554 661.414281 382.511021 661.414281 379.598595 
C 661.414281 376.686169 660.257162 373.892635 658.197765 371.833239 
C 656.138369 369.773843 653.344836 368.616723 650.432409 368.616723 
C 647.519983 368.616723 644.72645 369.773843 642.667054 371.833239 
C 640.607657 373.892635 639.450538 376.686169 639.450538 379.598595 
C 639.450538 382.511021 640.607657 385.304554 642.667054 387.363951 
C 644.72645 389.423347 647.519983 390.580467 650.432409 390.580467 
z
" clip-path="url(#p1b6b80e3bc)" style="fill: #ff8d00; fill-opacity: 0.7; stroke: #995500; stroke-opacity: 0.7; stroke-width: 0.866426"/>
    <path d="M 650.432409 396.363277 
C 652.27206 396.363277 654.036612 395.632376 655.337441 394.331547 
C 656.638271 393.030717 657.369172 391.266166 657.369172 389.426515 
C 657.369172 387.586864 656.638271 385.822313 655.337441 384.521484 
C 654.036612 383.220654 652.27206 382.489753 650.432409 382.489753 
C 648.592759 382.489753 646.828207 383.220654 645.527378 384.521484 
C 644.226548 385.822313 643.495647 387.586864 643.495647 389.426515 
C 643.495647 391.266166 644.226548 393.030717 645.527378 394.331547 
C 646.828207 395.632376 648.592759 396.363277 650.432409 396.363277 
z
" clip-path="url(#p1b6b80e3bc)" style="fill: #ff8d00; fill-opacity: 0.7; stroke: #995500; stroke-opacity: 0.7; stroke-width: 0.866426"/>
    <path d="M 650.432409 367.057838 
C 651.951042 367.057838 653.407679 366.454479 654.481514 365.380644 
C 655.55535 364.306808 656.158709 362.850171 656.158709 361.331539 
C 656.158709 359.812906 655.55535 358.356269 654.481514 357.282434 
C 653.407679 356.208599 651.951042 355.60524 650.432409 355.60524 
C 648.913777 355.60524 647.45714 356.208599 646.383305 357.282434 
C 645.309469 358.356269 644.70611 359.812906 644.70611 361.331539 
C 644.70611 362.850171 645.309469 364.306808 646.383305 365.380644 
C 647.45714 366.454479 648.913777 367.057838 650.432409 367.057838 
z
" clip-path="url(#p1b6b80e3bc)" style="fill: #ff8d00; fill-opacity: 0.7; stroke: #995500; stroke-opacity: 0.7; stroke-width: 0.866426"/>
    <path d="M 134.385517 470.876979 
C 136.134544 470.876979 137.812171 470.182083 139.048919 468.945335 
C 140.285668 467.708586 140.980564 466.030959 140.980564 464.281933 
C 140.980564 462.532906 140.285668 460.85528 139.048919 459.618531 
C 137.812171 458.381782 136.134544 457.686887 134.385517 457.686887 
C 132.636491 457.686887 130.958864 458.381782 129.722116 459.618531 
C 128.485367 460.85528 127.790471 462.532906 127.790471 464.281933 
C 127.790471 466.030959 128.485367 467.708586 129.722116 468.945335 
C 130.958864 470.182083 132.636491 470.876979 134.385517 470.876979 
z
" clip-path="url(#p1b6b80e3bc)" style="fill: #ff8d00; fill-opacity: 0.7; stroke: #995500; stroke-opacity: 0.7; stroke-width: 0.866426"/>
    <path d="M 546.591731 499.717093 
C 548.341021 499.717093 550.018901 499.022092 551.255836 497.785157 
C 552.492771 496.548222 553.187772 494.870343 553.187772 493.121052 
C 553.187772 491.371762 552.492771 489.693882 551.255836 488.456947 
C 550.018901 487.220012 548.341021 486.525011 546.591731 486.525011 
C 544.842441 486.525011 543.164561 487.220012 541.927626 488.456947 
C 540.690691 489.693882 539.99569 491.371762 539.99569 493.121052 
C 539.99569 494.870343 540.690691 496.548222 541.927626 497.785157 
C 543.164561 499.022092 544.842441 499.717093 546.591731 499.717093 
z
" clip-path="url(#p1b6b80e3bc)" style="fill: #ff8d00; fill-opacity: 0.7; stroke: #995500; stroke-opacity: 0.7; stroke-width: 0.866426"/>
    <path d="M 134.385517 484.418207 
C 135.506077 484.418207 136.580892 483.973003 137.373248 483.180648 
C 138.165603 482.388293 138.610806 481.313477 138.610806 480.192918 
C 138.610806 479.072358 138.165603 477.997543 137.373248 477.205187 
C 136.580892 476.412832 135.506077 475.967629 134.385517 475.967629 
C 133.264958 475.967629 132.190142 476.412832 131.397787 477.205187 
C 130.605432 477.997543 130.160228 479.072358 130.160228 480.192918 
C 130.160228 481.313477 130.605432 482.388293 131.397787 483.180648 
C 132.190142 483.973003 133.264958 484.418207 134.385517 484.418207 
z
" clip-path="url(#p1b6b80e3bc)" style="fill: #ff8d00; fill-opacity: 0.7; stroke: #995500; stroke-opacity: 0.7; stroke-width: 0.866426"/>
    <path d="M 134.385517 481.286852 
C 135.821244 481.286852 137.19836 480.716432 138.213572 479.70122 
C 139.228783 478.686008 139.799204 477.308892 139.799204 475.873166 
C 139.799204 474.43744 139.228783 473.060324 138.213572 472.045112 
C 137.19836 471.0299 135.821244 470.45948 134.385517 470.45948 
C 132.949791 470.45948 131.572675 471.0299 130.557463 472.045112 
C 129.542251 473.060324 128.971831 474.43744 128.971831 475.873166 
C 128.971831 477.308892 129.542251 478.686008 130.557463 479.70122 
C 131.572675 480.716432 132.949791 481.286852 134.385517 481.286852 
z
" clip-path="url(#p1b6b80e3bc)" style="fill: #ff8d00; fill-opacity: 0.7; stroke: #995500; stroke-opacity: 0.7; stroke-width: 0.866426"/>
    <path d="M 546.591731 470.890473 
C 548.027849 470.890473 549.40534 470.319897 550.420829 469.304409 
C 551.436317 468.28892 552.006893 466.911429 552.006893 465.475311 
C 552.006893 464.039193 551.436317 462.661702 550.420829 461.646213 
C 549.40534 460.630725 548.027849 460.060149 546.591731 460.060149 
C 545.155613 460.060149 543.778122 460.630725 542.762633 461.646213 
C 541.747145 462.661702 541.176569 464.039193 541.176569 465.475311 
C 541.176569 466.911429 541.747145 468.28892 542.762633 469.304409 
C 543.778122 470.319897 545.155613 470.890473 546.591731 470.890473 
z
" clip-path="url(#p1b6b80e3bc)" style="fill: #ff8d00; fill-opacity: 0.7; stroke: #995500; stroke-opacity: 0.7; stroke-width: 0.866426"/>
   </g>
   <g id="PathCollection_2">
    <path d="M 472.26739 436.068924 
C 474.484597 436.068924 476.611292 435.188018 478.179094 433.620216 
C 479.746896 432.052414 480.627802 429.92572 480.627802 427.708513 
C 480.627802 425.491306 479.746896 423.364611 478.179094 421.796809 
C 476.611292 420.229007 474.484597 419.348101 472.26739 419.348101 
C 470.050183 419.348101 467.923489 420.229007 466.355687 421.796809 
C 464.787885 423.364611 463.906979 425.491306 463.906979 427.708513 
C 463.906979 429.92572 464.787885 432.052414 466.355687 433.620216 
C 467.923489 435.188018 470.050183 436.068924 472.26739 436.068924 
z
" clip-path="url(#p1b6b80e3bc)" style="fill: #13066d; fill-opacity: 0.7; stroke: #0b0441; stroke-opacity: 0.7; stroke-width: 0.842933"/>
    <path d="M 472.26739 496.063905 
C 477.497614 496.063905 482.514326 493.985915 486.212652 490.287588 
C 489.910979 486.589261 491.988969 481.57255 491.988969 476.342326 
C 491.988969 471.112102 489.910979 466.09539 486.212652 462.397064 
C 482.514326 458.698737 477.497614 456.620747 472.26739 456.620747 
C 467.037166 456.620747 462.020455 458.698737 458.322128 462.397064 
C 454.623801 466.09539 452.545811 471.112102 452.545811 476.342326 
C 452.545811 481.57255 454.623801 486.589261 458.322128 490.287588 
C 462.020455 493.985915 467.037166 496.063905 472.26739 496.063905 
z
" clip-path="url(#p1b6b80e3bc)" style="fill: #13066d; fill-opacity: 0.7; stroke: #0b0441; stroke-opacity: 0.7; stroke-width: 0.842933"/>
    <path d="M 472.26739 430.550022 
C 475.638707 430.550022 478.872397 429.210584 481.256278 426.826703 
C 483.640159 424.442822 484.979597 421.209132 484.979597 417.837815 
C 484.979597 414.466499 483.640159 411.232808 481.256278 408.848928 
C 478.872397 406.465047 475.638707 405.125608 472.26739 405.125608 
C 468.896074 405.125608 465.662383 406.465047 463.278503 408.848928 
C 460.894622 411.232808 459.555183 414.466499 459.555183 417.837815 
C 459.555183 421.209132 460.894622 424.442822 463.278503 426.826703 
C 465.662383 429.210584 468.896074 430.550022 472.26739 430.550022 
z
" clip-path="url(#p1b6b80e3bc)" style="fill: #13066d; fill-opacity: 0.7; stroke: #0b0441; stroke-opacity: 0.7; stroke-width: 0.842933"/>
    <path d="M 472.26739 408.799926 
C 473.672938 408.799926 475.021107 408.241496 476.01498 407.247624 
C 477.008852 406.253751 477.567282 404.905582 477.567282 403.500034 
C 477.567282 402.094486 477.008852 400.746317 476.01498 399.752445 
C 475.021107 398.758572 473.672938 398.200142 472.26739 398.200142 
C 470.861842 398.200142 469.513673 398.758572 468.519801 399.752445 
C 467.525928 400.746317 466.967498 402.094486 466.967498 403.500034 
C 466.967498 404.905582 467.525928 406.253751 468.519801 407.247624 
C 469.513673 408.241496 470.861842 408.799926 472.26739 408.799926 
z
" clip-path="url(#p1b6b80e3bc)" style="fill: #13066d; fill-opacity: 0.7; stroke: #0b0441; stroke-opacity: 0.7; stroke-width: 0.842933"/>
    <path d="M 650.432409 461.876063 
C 658.153138 461.876063 665.558684 458.808586 671.018064 453.349206 
C 676.477443 447.889827 679.544921 440.48428 679.544921 432.763552 
C 679.544921 425.042824 676.477443 417.637277 671.018064 412.177898 
C 665.558684 406.718518 658.153138 403.65104 650.432409 403.65104 
C 642.711681 403.65104 635.306135 406.718518 629.846755 412.177898 
C 624.387376 417.637277 621.319898 425.042824 621.319898 432.763552 
C 621.319898 440.48428 624.387376 447.889827 629.846755 453.349206 
C 635.306135 458.808586 642.711681 461.876063 650.432409 461.876063 
z
" clip-path="url(#p1b6b80e3bc)" style="fill: #13066d; fill-opacity: 0.7; stroke: #0b0441; stroke-opacity: 0.7; stroke-width: 0.842933"/>
    <path d="M 650.432409 354.287747 
C 652.641735 354.287747 654.760869 353.409972 656.323098 351.847744 
C 657.885327 350.285515 658.763101 348.16638 658.763101 345.957055 
C 658.763101 343.74773 657.885327 341.628596 656.323098 340.066367 
C 654.760869 338.504138 652.641735 337.626364 650.432409 337.626364 
C 648.223084 337.626364 646.10395 338.504138 644.541721 340.066367 
C 642.979492 341.628596 642.101718 343.74773 642.101718 345.957055 
C 642.101718 348.16638 642.979492 350.285515 644.541721 351.847744 
C 646.10395 353.409972 648.223084 354.287747 650.432409 354.287747 
z
" clip-path="url(#p1b6b80e3bc)" style="fill: #13066d; fill-opacity: 0.7; stroke: #0b0441; stroke-opacity: 0.7; stroke-width: 0.842933"/>
    <path d="M 650.432409 449.283612 
C 655.162413 449.283612 659.699324 447.404362 663.043942 444.059744 
C 666.388559 440.715127 668.267809 436.178216 668.267809 431.448212 
C 668.267809 426.718209 666.388559 422.181298 663.043942 418.83668 
C 659.699324 415.492063 655.162413 413.612813 650.432409 413.612813 
C 645.702406 413.612813 641.165495 415.492063 637.820877 418.83668 
C 634.47626 422.181298 632.59701 426.718209 632.59701 431.448212 
C 632.59701 436.178216 634.47626 440.715127 637.820877 444.059744 
C 641.165495 447.404362 645.702406 449.283612 650.432409 449.283612 
z
" clip-path="url(#p1b6b80e3bc)" style="fill: #13066d; fill-opacity: 0.7; stroke: #0b0441; stroke-opacity: 0.7; stroke-width: 0.842933"/>
    <path d="M 650.432409 448.892985 
C 653.799145 448.892985 657.028441 447.555367 659.409083 445.174725 
C 661.789725 442.794083 663.127343 439.564787 663.127343 436.198051 
C 663.127343 432.831316 661.789725 429.602019 659.409083 427.221378 
C 657.028441 424.840736 653.799145 423.503118 650.432409 423.503118 
C 647.065674 423.503118 643.836378 424.840736 641.455736 427.221378 
C 639.075094 429.602019 637.737476 432.831316 637.737476 436.198051 
C 637.737476 439.564787 639.075094 442.794083 641.455736 445.174725 
C 643.836378 447.555367 647.065674 448.892985 650.432409 448.892985 
z
" clip-path="url(#p1b6b80e3bc)" style="fill: #13066d; fill-opacity: 0.7; stroke: #0b0441; stroke-opacity: 0.7; stroke-width: 0.842933"/>
    <path d="M 650.432409 344.357568 
C 651.828117 344.357568 653.166847 343.803047 654.153761 342.816133 
C 655.140675 341.829219 655.695196 340.490489 655.695196 339.094781 
C 655.695196 337.699074 655.140675 336.360344 654.153761 335.37343 
C 653.166847 334.386516 651.828117 333.831995 650.432409 333.831995 
C 649.036702 333.831995 647.697972 334.386516 646.711058 335.37343 
C 645.724144 336.360344 645.169623 337.699074 645.169623 339.094781 
C 645.169623 340.490489 645.724144 341.829219 646.711058 342.816133 
C 647.697972 343.803047 649.036702 344.357568 650.432409 344.357568 
z
" clip-path="url(#p1b6b80e3bc)" style="fill: #13066d; fill-opacity: 0.7; stroke: #0b0441; stroke-opacity: 0.7; stroke-width: 0.842933"/>
    <path d="M 307.003786 412.171807 
C 309.219359 412.171807 311.344487 411.29155 312.911134 409.724903 
C 314.477781 408.158256 315.358037 406.033129 315.358037 403.817555 
C 315.358037 401.601982 314.477781 399.476854 312.911134 397.910207 
C 311.344487 396.34356 309.219359 395.463304 307.003786 395.463304 
C 304.788212 395.463304 302.663085 396.34356 301.096438 397.910207 
C 299.529791 399.476854 298.649534 401.601982 298.649534 403.817555 
C 298.649534 406.033129 299.529791 408.158256 301.096438 409.724903 
C 302.663085 411.29155 304.788212 412.171807 307.003786 412.171807 
z
" clip-path="url(#p1b6b80e3bc)" style="fill: #13066d; fill-opacity: 0.7; stroke: #0b0441; stroke-opacity: 0.7; stroke-width: 0.842933"/>
    <path d="M 134.385517 458.251852 
C 136.596017 458.251852 138.716278 457.373611 140.279338 455.810551 
C 141.842397 454.247492 142.720638 452.127231 142.720638 449.916731 
C 142.720638 447.706231 141.842397 445.58597 140.279338 444.022911 
C 138.716278 442.459851 136.596017 441.58161 134.385517 441.58161 
C 132.175018 441.58161 130.054757 442.459851 128.491697 444.022911 
C 126.928638 445.58597 126.050397 447.706231 126.050397 449.916731 
C 126.050397 452.127231 126.928638 454.247492 128.491697 455.810551 
C 130.054757 457.373611 132.175018 458.251852 134.385517 458.251852 
z
" clip-path="url(#p1b6b80e3bc)" style="fill: #13066d; fill-opacity: 0.7; stroke: #0b0441; stroke-opacity: 0.7; stroke-width: 0.842933"/>
    <path d="M 134.385517 465.204066 
C 136.596017 465.204066 138.716278 464.325825 140.279338 462.762766 
C 141.842397 461.199706 142.720638 459.079445 142.720638 456.868945 
C 142.720638 454.658446 141.842397 452.538185 140.279338 450.975125 
C 138.716278 449.412066 136.596017 448.533825 134.385517 448.533825 
C 132.175018 448.533825 130.054757 449.412066 128.491697 450.975125 
C 126.928638 452.538185 126.050397 454.658446 126.050397 456.868945 
C 126.050397 459.079445 126.928638 461.199706 128.491697 462.762766 
C 130.054757 464.325825 132.175018 465.204066 134.385517 465.204066 
z
" clip-path="url(#p1b6b80e3bc)" style="fill: #13066d; fill-opacity: 0.7; stroke: #0b0441; stroke-opacity: 0.7; stroke-width: 0.842933"/>
    <path d="M 662.095866 428.445108 
C 664.306372 428.445108 666.426639 427.566864 667.989703 426.0038 
C 669.552767 424.440736 670.431011 422.320469 670.431011 420.109962 
C 670.431011 417.899456 669.552767 415.779189 667.989703 414.216125 
C 666.426639 412.653061 664.306372 411.774817 662.095866 411.774817 
C 659.885359 411.774817 657.765092 412.653061 656.202028 414.216125 
C 654.638964 415.779189 653.76072 417.899456 653.76072 420.109962 
C 653.76072 422.320469 654.638964 424.440736 656.202028 426.0038 
C 657.765092 427.566864 659.885359 428.445108 662.095866 428.445108 
z
" clip-path="url(#p1b6b80e3bc)" style="fill: #13066d; fill-opacity: 0.7; stroke: #0b0441; stroke-opacity: 0.7; stroke-width: 0.842933"/>
    <path d="M 546.591731 480.759107 
C 548.802237 480.759107 550.922505 479.880863 552.485569 478.317799 
C 554.048633 476.754735 554.926876 474.634468 554.926876 472.423961 
C 554.926876 470.213455 554.048633 468.093188 552.485569 466.530124 
C 550.922505 464.96706 548.802237 464.088816 546.591731 464.088816 
C 544.381225 464.088816 542.260957 464.96706 540.697893 466.530124 
C 539.134829 468.093188 538.256586 470.213455 538.256586 472.423961 
C 538.256586 474.634468 539.134829 476.754735 540.697893 478.317799 
C 542.260957 479.880863 544.381225 480.759107 546.591731 480.759107 
z
" clip-path="url(#p1b6b80e3bc)" style="fill: #13066d; fill-opacity: 0.7; stroke: #0b0441; stroke-opacity: 0.7; stroke-width: 0.842933"/>
    <path d="M 662.095866 376.285678 
C 667.126376 376.285678 671.951528 374.287035 675.508636 370.729926 
C 679.065744 367.172818 681.064387 362.347667 681.064387 357.317156 
C 681.064387 352.286645 679.065744 347.461494 675.508636 343.904386 
C 671.951528 340.347277 667.126376 338.348634 662.095866 338.348634 
C 657.065355 338.348634 652.240203 340.347277 648.683095 343.904386 
C 645.125987 347.461494 643.127344 352.286645 643.127344 357.317156 
C 643.127344 362.347667 645.125987 367.172818 648.683095 370.729926 
C 652.240203 374.287035 657.065355 376.285678 662.095866 376.285678 
z
" clip-path="url(#p1b6b80e3bc)" style="fill: #13066d; fill-opacity: 0.7; stroke: #0b0441; stroke-opacity: 0.7; stroke-width: 0.842933"/>
    <path d="M 307.003786 528.371376 
C 311.305728 528.371376 315.432053 526.662196 318.473985 523.620264 
C 321.515918 520.578331 323.225097 516.452006 323.225097 512.150064 
C 323.225097 507.848122 321.515918 503.721797 318.473985 500.679865 
C 315.432053 497.637933 311.305728 495.928753 307.003786 495.928753 
C 302.701844 495.928753 298.575519 497.637933 295.533586 500.679865 
C 292.491654 503.721797 290.782474 507.848122 290.782474 512.150064 
C 290.782474 516.452006 292.491654 520.578331 295.533586 523.620264 
C 298.575519 526.662196 302.701844 528.371376 307.003786 528.371376 
z
" clip-path="url(#p1b6b80e3bc)" style="fill: #13066d; fill-opacity: 0.7; stroke: #0b0441; stroke-opacity: 0.7; stroke-width: 0.842933"/>
    <path d="M 662.095866 389.562269 
C 666.394083 389.562269 670.516836 387.854569 673.556135 384.81527 
C 676.595434 381.775971 678.303135 377.653218 678.303135 373.355 
C 678.303135 369.056782 676.595434 364.93403 673.556135 361.89473 
C 670.516836 358.855431 666.394083 357.147731 662.095866 357.147731 
C 657.797648 357.147731 653.674895 358.855431 650.635596 361.89473 
C 647.596297 364.93403 645.888597 369.056782 645.888597 373.355 
C 645.888597 377.653218 647.596297 381.775971 650.635596 384.81527 
C 653.674895 387.854569 657.797648 389.562269 662.095866 389.562269 
z
" clip-path="url(#p1b6b80e3bc)" style="fill: #13066d; fill-opacity: 0.7; stroke: #0b0441; stroke-opacity: 0.7; stroke-width: 0.842933"/>
    <path d="M 307.003786 452.988777 
C 310.375038 452.988777 313.608667 451.649364 315.992502 449.265529 
C 318.376338 446.881693 319.71575 443.648065 319.71575 440.276812 
C 319.71575 436.90556 318.376338 433.671932 315.992502 431.288096 
C 313.608667 428.904261 310.375038 427.564848 307.003786 427.564848 
C 303.632533 427.564848 300.398905 428.904261 298.015069 431.288096 
C 295.631234 433.671932 294.291821 436.90556 294.291821 440.276812 
C 294.291821 443.648065 295.631234 446.881693 298.015069 449.265529 
C 300.398905 451.649364 303.632533 452.988777 307.003786 452.988777 
z
" clip-path="url(#p1b6b80e3bc)" style="fill: #13066d; fill-opacity: 0.7; stroke: #0b0441; stroke-opacity: 0.7; stroke-width: 0.842933"/>
    <path d="M 662.095866 375.276685 
C 665.462779 375.276685 668.692247 373.938995 671.073014 371.558228 
C 673.453782 369.17746 674.791471 365.947993 674.791471 362.581079 
C 674.791471 359.214165 673.453782 355.984698 671.073014 353.60393 
C 668.692247 351.223163 665.462779 349.885474 662.095866 349.885474 
C 658.728952 349.885474 655.499484 351.223163 653.118717 353.60393 
C 650.737949 355.984698 649.40026 359.214165 649.40026 362.581079 
C 649.40026 365.947993 650.737949 369.17746 653.118717 371.558228 
C 655.499484 373.938995 658.728952 375.276685 662.095866 375.276685 
z
" clip-path="url(#p1b6b80e3bc)" style="fill: #13066d; fill-opacity: 0.7; stroke: #0b0441; stroke-opacity: 0.7; stroke-width: 0.842933"/>
    <path d="M 546.591731 451.498251 
C 549.958645 451.498251 553.188112 450.160562 555.56888 447.779795 
C 557.949647 445.399027 559.287336 442.16956 559.287336 438.802646 
C 559.287336 435.435732 557.949647 432.206265 555.56888 429.825497 
C 553.188112 427.44473 549.958645 426.107041 546.591731 426.107041 
C 543.224817 426.107041 539.99535 427.44473 537.614582 429.825497 
C 535.233815 432.206265 533.896126 435.435732 533.896126 438.802646 
C 533.896126 442.16956 535.233815 445.399027 537.614582 447.779795 
C 539.99535 450.160562 543.224817 451.498251 546.591731 451.498251 
z
" clip-path="url(#p1b6b80e3bc)" style="fill: #13066d; fill-opacity: 0.7; stroke: #0b0441; stroke-opacity: 0.7; stroke-width: 0.842933"/>
    <path d="M 307.003786 439.134234 
C 308.404151 439.134234 309.74735 438.577862 310.737558 437.587655 
C 311.727766 436.597447 312.284137 435.254248 312.284137 433.853883 
C 312.284137 432.453517 311.727766 431.110318 310.737558 430.12011 
C 309.74735 429.129903 308.404151 428.573531 307.003786 428.573531 
C 305.60342 428.573531 304.260222 429.129903 303.270014 430.12011 
C 302.279806 431.110318 301.723435 432.453517 301.723435 433.853883 
C 301.723435 435.254248 302.279806 436.597447 303.270014 437.587655 
C 304.260222 438.577862 305.60342 439.134234 307.003786 439.134234 
z
" clip-path="url(#p1b6b80e3bc)" style="fill: #13066d; fill-opacity: 0.7; stroke: #0b0441; stroke-opacity: 0.7; stroke-width: 0.842933"/>
    <path d="M 134.385517 467.929674 
C 135.782696 467.929674 137.122837 467.374569 138.110791 466.386615 
C 139.098745 465.398661 139.65385 464.05852 139.65385 462.661341 
C 139.65385 461.264163 139.098745 459.924022 138.110791 458.936068 
C 137.122837 457.948114 135.782696 457.393009 134.385517 457.393009 
C 132.988339 457.393009 131.648198 457.948114 130.660244 458.936068 
C 129.67229 459.924022 129.117185 461.264163 129.117185 462.661341 
C 129.117185 464.05852 129.67229 465.398661 130.660244 466.386615 
C 131.648198 467.374569 132.988339 467.929674 134.385517 467.929674 
z
" clip-path="url(#p1b6b80e3bc)" style="fill: #13066d; fill-opacity: 0.7; stroke: #0b0441; stroke-opacity: 0.7; stroke-width: 0.842933"/>
    <path d="M 134.385517 484.807218 
C 135.782696 484.807218 137.122837 484.252114 138.110791 483.26416 
C 139.098745 482.276205 139.65385 480.936064 139.65385 479.538886 
C 139.65385 478.141708 139.098745 476.801566 138.110791 475.813612 
C 137.122837 474.825658 135.782696 474.270553 134.385517 474.270553 
C 132.988339 474.270553 131.648198 474.825658 130.660244 475.813612 
C 129.67229 476.801566 129.117185 478.141708 129.117185 479.538886 
C 129.117185 480.936064 129.67229 482.276205 130.660244 483.26416 
C 131.648198 484.252114 132.988339 484.807218 134.385517 484.807218 
z
" clip-path="url(#p1b6b80e3bc)" style="fill: #13066d; fill-opacity: 0.7; stroke: #0b0441; stroke-opacity: 0.7; stroke-width: 0.842933"/>
    <path d="M 307.003786 426.500474 
C 307.891751 426.500474 308.743468 426.147682 309.371354 425.519795 
C 309.999241 424.891909 310.352033 424.040192 310.352033 423.152227 
C 310.352033 422.264261 309.999241 421.412545 309.371354 420.784658 
C 308.743468 420.156772 307.891751 419.803979 307.003786 419.803979 
C 306.11582 419.803979 305.264104 420.156772 304.636217 420.784658 
C 304.008331 421.412545 303.655538 422.264261 303.655538 423.152227 
C 303.655538 424.040192 304.008331 424.891909 304.636217 425.519795 
C 305.264104 426.147682 306.11582 426.500474 307.003786 426.500474 
z
" clip-path="url(#p1b6b80e3bc)" style="fill: #13066d; fill-opacity: 0.7; stroke: #0b0441; stroke-opacity: 0.7; stroke-width: 0.842933"/>
   </g>
   <g id="line2d_11">
    <path d="M 134.385517 502.964948 
L 662.095866 400.859588 
L 662.095866 400.859588 
" clip-path="url(#p1b6b80e3bc)" style="fill: none; stroke: #ff8d00; stroke-opacity: 0.9; stroke-width: 2; stroke-linecap: round"/>
   </g>
   <g id="line2d_12">
    <path d="M 134.385517 468.044553 
L 662.095866 397.361518 
L 662.095866 397.361518 
" clip-path="url(#p1b6b80e3bc)" style="fill: none; stroke: #13066d; stroke-opacity: 0.9; stroke-width: 2; stroke-linecap: round"/>
   </g>
   <g id="line2d_13">
    <path d="M 108 401.2992 
L 777.6 401.2992 
" clip-path="url(#p1b6b80e3bc)" style="fill: none; stroke-dasharray: 5.55,2.4; stroke-dashoffset: 0; stroke: #c44e52; stroke-width: 1.5"/>
   </g>
   <g id="line2d_14">
    <path d="M 108 141.84 
L 777.6 141.84 
" clip-path="url(#p1b6b80e3bc)" style="fill: none; stroke-dasharray: 5.55,2.4; stroke-dashoffset: 0; stroke: #68c3d4; stroke-width: 1.5"/>
   </g>
   <g id="patch_3">
    <path d="M 108 640.8 
L 108 86.4 
" style="fill: none; stroke: #262626; stroke-width: 1.25; stroke-linejoin: miter; stroke-linecap: square"/>
   </g>
   <g id="patch_4">
    <path d="M 116.60377 650.8 
L 777.6 650.8 
" style="fill: none; stroke: #262626; stroke-width: 1.25; stroke-linejoin: miter; stroke-linecap: square"/>
   </g>
   <g id="PathCollection_3">
    <path d="M 642.101718 267.245524 
L 658.763101 267.245524 
L 658.763101 250.584141 
L 642.101718 250.584141 
z
" clip-path="url(#p1b6b80e3bc)" style="fill: #13066d; fill-opacity: 0.7; stroke: #0b0441; stroke-opacity: 0.7"/>
    <path d="M 644.70611 253.906093 
L 656.158709 253.906093 
L 656.158709 242.453495 
L 644.70611 242.453495 
z
" clip-path="url(#p1b6b80e3bc)" style="fill: #ff8d00; fill-opacity: 0.7; stroke: #995500; stroke-opacity: 0.7"/>
    <path d="M 645.169623 253.727742 
L 655.695196 253.727742 
L 655.695196 243.20217 
L 645.169623 243.20217 
z
" clip-path="url(#p1b6b80e3bc)" style="fill: #13066d; fill-opacity: 0.7; stroke: #0b0441; stroke-opacity: 0.7"/>
    <path d="M 643.127344 287.232232 
L 681.064387 287.232232 
L 681.064387 249.295189 
L 643.127344 249.295189 
z
" clip-path="url(#p1b6b80e3bc)" style="fill: #13066d; fill-opacity: 0.7; stroke: #0b0441; stroke-opacity: 0.7"/>
    <path d="M 649.40026 246.359492 
L 674.791471 246.359492 
L 674.791471 220.968281 
L 649.40026 220.968281 
z
" clip-path="url(#p1b6b80e3bc)" style="fill: #13066d; fill-opacity: 0.7; stroke: #0b0441; stroke-opacity: 0.7"/>
   </g>
   <g id="PathCollection_4">
    <path d="M 642.101718 267.245524 
L 658.763101 267.245524 
L 658.763101 250.584141 
L 642.101718 250.584141 
z
" clip-path="url(#p1b6b80e3bc)" style="fill: #13066d; fill-opacity: 0.7; stroke: #0b0441; stroke-opacity: 0.7"/>
    <path d="M 644.70611 253.906093 
L 656.158709 253.906093 
L 656.158709 242.453495 
L 644.70611 242.453495 
z
" clip-path="url(#p1b6b80e3bc)" style="fill: #ff8d00; fill-opacity: 0.7; stroke: #995500; stroke-opacity: 0.7"/>
    <path d="M 645.169623 253.727742 
L 655.695196 253.727742 
L 655.695196 243.20217 
L 645.169623 243.20217 
z
" clip-path="url(#p1b6b80e3bc)" style="fill: #13066d; fill-opacity: 0.7; stroke: #0b0441; stroke-opacity: 0.7"/>
    <path d="M 643.127344 287.232232 
L 681.064387 287.232232 
L 681.064387 249.295189 
L 643.127344 249.295189 
z
" clip-path="url(#p1b6b80e3bc)" style="fill: #13066d; fill-opacity: 0.7; stroke: #0b0441; stroke-opacity: 0.7"/>
    <path d="M 649.40026 246.359492 
L 674.791471 246.359492 
L 674.791471 220.968281 
L 649.40026 220.968281 
z
" clip-path="url(#p1b6b80e3bc)" style="fill: #13066d; fill-opacity: 0.7; stroke: #0b0441; stroke-opacity: 0.7"/>
   </g>
  </g>
 </g>
 <defs>
  <clipPath id="p1b6b80e3bc">
   <rect x="108" y="86.4" width="669.6" height="554.4"/>
  </clipPath>
 </defs>
</svg>
